<svg width="48" height="56" fill="none" xmlns="http://www.w3.org/2000/svg"><path d="m18.588 10.872 1.606 4.46a17.67 17.67 0 0 0 10.632 10.632l4.46 1.606a.459.459 0 0 1 0 .86l-4.46 1.606a17.668 17.668 0 0 0-10.632 10.632l-1.606 4.46a.458.458 0 0 1-.86 0l-1.606-4.46A17.67 17.67 0 0 0 5.49 30.036L1.03 28.43a.458.458 0 0 1 0-.86l4.46-1.606a17.671 17.671 0 0 0 10.632-10.632l1.606-4.46a.456.456 0 0 1 .86 0ZM38.664.154l.814 2.258a8.954 8.954 0 0 0 5.384 5.384l2.258.814a.232.232 0 0 1 0 .436l-2.258.814a8.953 8.953 0 0 0-5.384 5.384l-.814 2.258a.232.232 0 0 1-.436 0l-.814-2.258A8.955 8.955 0 0 0 32.03 9.86l-2.258-.814a.232.232 0 0 1 0-.436l2.258-.814a8.953 8.953 0 0 0 5.384-5.384l.814-2.258a.231.231 0 0 1 .436 0Zm0 38.346.814 2.258a8.954 8.954 0 0 0 5.384 5.384l2.258.814a.232.232 0 0 1 0 .436l-2.258.814a8.952 8.952 0 0 0-5.384 5.384l-.814 2.258a.232.232 0 0 1-.436 0l-.814-2.258a8.955 8.955 0 0 0-5.384-5.384l-2.258-.814a.232.232 0 0 1 0-.436l2.258-.814a8.954 8.954 0 0 0 5.384-5.384l.814-2.258c.074-.204.364-.204.436 0Z" fill="#fff"/></svg>