<svg width="146.746" height="30.612" xmlns="http://www.w3.org/2000/svg"><path d="M98.829 15.237c0-1.726-.326-3.354-.977-4.884a12.536 12.536 0 0 0-2.68-3.998 12.604 12.604 0 0 0-3.976-2.68c-1.515-.652-3.135-.978-4.862-.978-1.635 0-3.18.296-4.634.886a12.515 12.515 0 0 0-3.862 2.454 12.757 12.757 0 0 0-2.726 3.657 12.616 12.616 0 0 0-1.272 4.498v14.252h2.045v-6.255a12.902 12.902 0 0 0 4.452 4.066c1.817 1.015 3.817 1.522 5.997 1.522 1.727 0 3.347-.333 4.862-1a12.927 12.927 0 0 0 3.975-2.703 12.604 12.604 0 0 0 2.681-3.975c.651-1.515.977-3.135.977-4.862zm-2.09 0a10.16 10.16 0 0 1-.818 4.044 10.472 10.472 0 0 1-2.226 3.317 10.472 10.472 0 0 1-3.317 2.226 10.16 10.16 0 0 1-4.044.818c-1.454 0-2.809-.273-4.066-.818a10.821 10.821 0 0 1-3.317-2.226 10.286 10.286 0 0 1-2.249-3.317 10.156 10.156 0 0 1-.817-4.044c0-1.423.272-2.771.817-4.043a10.285 10.285 0 0 1 2.25-3.317 10.821 10.821 0 0 1 3.316-2.226c1.257-.546 2.612-.818 4.066-.818 1.424 0 2.772.272 4.044.818a10.472 10.472 0 0 1 3.317 2.226 10.471 10.471 0 0 1 2.226 3.317 10.16 10.16 0 0 1 .818 4.043zm30.76 0c0-1.726-.326-3.354-.978-4.884a12.538 12.538 0 0 0-2.68-3.998 12.604 12.604 0 0 0-3.976-2.68c-1.514-.652-3.135-.978-4.861-.978-1.636 0-3.18.296-4.635.886a12.514 12.514 0 0 0-3.862 2.454 12.757 12.757 0 0 0-2.726 3.657 12.616 12.616 0 0 0-1.272 4.498v14.252h2.045v-6.255a12.902 12.902 0 0 0 4.452 4.066c1.818 1.015 3.817 1.522 5.998 1.522 1.726 0 3.347-.333 4.861-1a12.927 12.927 0 0 0 3.976-2.703 12.606 12.606 0 0 0 2.68-3.975c.652-1.515.977-3.135.977-4.862zm-2.09 0c0 1.424-.273 2.772-.819 4.044a10.471 10.471 0 0 1-2.226 3.317 10.47 10.47 0 0 1-3.317 2.226 10.16 10.16 0 0 1-4.043.818c-1.454 0-2.81-.273-4.067-.818a10.821 10.821 0 0 1-3.316-2.226 10.283 10.283 0 0 1-2.25-3.317 10.156 10.156 0 0 1-.817-4.044c0-1.423.272-2.771.818-4.043a10.282 10.282 0 0 1 2.249-3.317 10.821 10.821 0 0 1 3.316-2.226c1.257-.546 2.613-.818 4.067-.818 1.423 0 2.771.272 4.043.818a10.47 10.47 0 0 1 3.317 2.226 10.47 10.47 0 0 1 2.226 3.317c.546 1.272.818 2.62.818 4.043zm17.855 1.045a4.62 4.62 0 0 1 1.817.364 4.474 4.474 0 0 1 1.5 1.022c.424.44.757.947 1 1.522.242.576.363 1.181.363 1.818 0 .636-.121 1.241-.364 1.817a4.646 4.646 0 0 1-1 1.5 4.646 4.646 0 0 1-1.499.999 4.637 4.637 0 0 1-1.817.363h-12.131v2.045h12.131a6.54 6.54 0 0 0 2.59-.523 6.78 6.78 0 0 0 2.158-1.454 6.778 6.778 0 0 0 1.454-2.158 6.54 6.54 0 0 0 .522-2.59c0-.938-.174-1.817-.522-2.635a6.778 6.778 0 0 0-1.454-2.158 6.779 6.779 0 0 0-2.158-1.454 6.539 6.539 0 0 0-2.59-.522h-5.407a4.637 4.637 0 0 1-1.817-.364 4.646 4.646 0 0 1-1.5-1 4.647 4.647 0 0 1-.999-1.499 4.638 4.638 0 0 1-.363-1.817c0-.636.12-1.242.363-1.817a4.918 4.918 0 0 1 1-1.522c.424-.44.923-.78 1.499-1.023a4.637 4.637 0 0 1 1.817-.363h12.131V2.788h-12.13c-.91 0-1.773.174-2.59.523a6.779 6.779 0 0 0-2.159 1.454 6.779 6.779 0 0 0-1.454 2.158 6.655 6.655 0 0 0-.522 2.635c0 .939.174 1.817.522 2.635a6.52 6.52 0 0 0 1.454 2.136 6.972 6.972 0 0 0 2.159 1.43 6.54 6.54 0 0 0 2.59.523zm-98.36-1.16c0-1.727.325-3.355.976-4.885a12.536 12.536 0 0 1 2.68-3.998 12.606 12.606 0 0 1 3.976-2.68c1.515-.652 3.135-.978 4.862-.978 1.635 0 3.18.296 4.634.886a12.519 12.519 0 0 1 3.862 2.454 12.756 12.756 0 0 1 2.726 3.657 12.616 12.616 0 0 1 1.272 4.498v14.252h-2.044v-6.255a12.902 12.902 0 0 1-4.453 4.066c-1.817 1.015-3.817 1.522-5.997 1.522-1.727 0-3.347-.333-4.862-1a12.929 12.929 0 0 1-3.975-2.703 12.606 12.606 0 0 1-2.681-3.975c-.651-1.515-.977-3.135-.977-4.862zm2.09 0c0 1.423.272 2.77.817 4.043a10.47 10.47 0 0 0 2.226 3.317c.94.939 2.045 1.68 3.317 2.226a10.16 10.16 0 0 0 4.044.818c1.454 0 2.809-.273 4.066-.818a10.821 10.821 0 0 0 3.317-2.226 10.283 10.283 0 0 0 2.249-3.317 10.16 10.16 0 0 0 .818-4.044c0-1.423-.273-2.771-.818-4.044a10.285 10.285 0 0 0-2.25-3.316 10.821 10.821 0 0 0-3.316-2.226c-1.257-.546-2.612-.818-4.066-.818-1.424 0-2.772.272-4.044.818a10.472 10.472 0 0 0-3.317 2.226 10.472 10.472 0 0 0-2.226 3.317 10.158 10.158 0 0 0-.818 4.043z" style="fill:#1b1918;fill-rule:evenodd;stroke:#1b1918;stroke-width:1.4173;stroke-linecap:butt;stroke-linejoin:miter;stroke-dasharray:none" transform="translate(-3.951 -.078)"/><path d="M19.071 19.636c0-.505.356-.917.725-1.1.9-.45 4.693-.279 5.93-.279 3.188 0 2.289 2.757.79 2.757H20.65c-.847 0-1.579-.526-1.579-1.378zm-8.912-8.617c0-1.412.87-2.184 2.257-2.184 1.154 0 3.179 1.917 3.863 2.614.668.68 2.68 2.828 2.68 3.936 0 .69-.72 1.668-1.063 2.135-.629.855-.662.764-1.108 1.284-.219.255-.174.287-.408.503-.949.876-2.758 2.552-3.906 2.678-1.774.194-3.782-2.501-.966-4.193.8-.48 2.068-1.598 2.6-2.408-.36-.548-1.503-1.58-2.078-2.02-.804-.618-1.87-.975-1.87-2.345zm-6.204 2.527c0 3.85-.083 5.904.53 9.8.544 3.46 3.26 6.224 6.655 6.78 4.57.75 11.055.75 15.652.016 3.38-.54 6.296-3.433 6.716-6.487.816-5.934.785-10.518.011-16.437-.408-3.124-3.316-6.034-6.63-6.575C22.276-.109 15.88-.105 11.237.626 7.82 1.164 5.046 3.912 4.5 7.324c-.29 1.819-.546 4.116-.546 6.222Z" style="fill:#0054a6;fill-rule:evenodd" transform="translate(-3.951 -.078)"/></svg>