<svg width="54" height="64" fill="none" xmlns="http://www.w3.org/2000/svg"><path d="m52.135 23.46-.022-.022L29.738 1.035a3.48 3.48 0 0 0-.585-.469l-.645-.351-.439-.147h-.322c-.494-.09-1-.09-1.494 0h-.644l-.498.264a3.49 3.49 0 0 0-.761.556L1.887 23.438a3.836 3.836 0 0 0-.021 5.426l.021.022a3.924 3.924 0 0 0 5.418 0L20.69 15.53a1.464 1.464 0 0 1 2.49 1.025v43.607a3.836 3.836 0 1 0 7.672 0V16.557a1.464 1.464 0 0 1 2.49-1.025l13.325 13.355a3.924 3.924 0 0 0 5.447 0 3.836 3.836 0 0 0 .022-5.426Z" fill="#198754"/></svg>