<svg width="60" height="61" fill="none" xmlns="http://www.w3.org/2000/svg"><path d="M55.44 44.1H4.56a3.68 3.68 0 0 1-3.681-3.68V4.56A3.68 3.68 0 0 1 4.559.879h50.88a3.68 3.68 0 0 1 3.681 3.68V40.42a3.68 3.68 0 0 1-3.68 3.68Z" fill="#5290D9"/><path d="M59.12 4.56v35.86a3.679 3.679 0 0 1-3.68 3.68h-2.387a3.68 3.68 0 0 0 3.68-3.68V4.56a3.68 3.68 0 0 0-3.68-3.68h2.387a3.68 3.68 0 0 1 3.68 3.68Z" fill="#3C7DBC"/><path d="M52.619 17.079H21.314a.587.587 0 0 1-.585-.586v-3.085a.585.585 0 0 1 .585-.586H52.62a.587.587 0 0 1 .586.586v3.085a.586.586 0 0 1-.586.586Z" fill="#E6F2EC"/><path d="M53.205 13.408v3.085a.586.586 0 0 1-.586.586h-2.376a.586.586 0 0 0 .586-.586v-3.085a.586.586 0 0 0-.586-.586h2.376a.585.585 0 0 1 .586.586Z" fill="#D5E2DB"/><path d="M34.59 44.887h-9.182V58.5c0 .503.505.85.973.669l3.361-1.295a.712.712 0 0 1 .515 0l3.36 1.294a.716.716 0 0 0 .973-.668V44.887Z" fill="#FF5426"/><path d="M34.59 44.886v13.616a.716.716 0 0 1-.972.668l-.72-.278V44.886h1.693Z" fill="#F04424"/><path d="M41.904 39.002c0 1.216-1.418 2.194-1.775 3.291-.37 1.138.19 2.76-.498 3.706-.696.957-2.416.923-3.373 1.619-.947.689-1.442 2.339-2.58 2.709-1.097.356-2.462-.677-3.679-.677-1.216 0-2.581 1.033-3.679.677-1.138-.37-1.633-2.02-2.58-2.71-.956-.695-2.675-.661-3.371-1.617-.69-.947-.13-2.569-.5-3.706-.356-1.098-1.774-2.076-1.774-3.292 0-1.217 1.418-2.194 1.775-3.292.37-1.137-.19-2.759.498-3.706.697-.956 2.416-.922 3.373-1.618.947-.689 1.442-2.34 2.58-2.709 1.097-.356 2.462.677 3.679.677 1.216 0 2.582-1.033 3.68-.677 1.137.37 1.632 2.02 2.578 2.71.957.695 2.676.66 3.372 1.617.69.947.13 2.569.5 3.706.356 1.098 1.774 2.075 1.774 3.292Z" fill="#FFCD6B"/><path d="M40.13 42.294c-.37 1.137.19 2.76-.5 3.706-.695.956-2.415.922-3.372 1.618-.947.689-1.441 2.338-2.579 2.709-.6.195-1.28-.026-1.973-.266.28.097 1.037-1.217 1.167-1.405.71-1.03 1.858-1.592 2.827-2.335.995-.762 1.553-1.574 1.833-2.83.155-.696.185-1.369.612-1.975.563-.798 1.364-1.55 1.364-2.575 0-1.218-1.42-2.196-1.776-3.295-.317-.977-.058-2.083-.593-2.995-.44-.75-1.229-1.297-1.962-1.729-.599-.353-1.204-.71-1.68-1.225-.174-.188-1.437-1.875-1.679-1.792.653-.224 1.293-.411 1.86-.227 1.138.37 1.632 2.02 2.58 2.708.956.696 2.676.662 3.372 1.618.689.947.13 2.569.499 3.706.355 1.099 1.774 2.076 1.774 3.292 0 1.217-1.419 2.194-1.774 3.292Z" fill="#FFC143"/><path d="M37.45 39.002a7.45 7.45 0 1 1-14.9 0 7.45 7.45 0 0 1 14.9 0Z" fill="#FA0"/><path d="M37.45 39.002a7.45 7.45 0 0 1-7.45 7.45 7.41 7.41 0 0 1-3.782-1.03 7.45 7.45 0 0 0 5.924-13.557 7.452 7.452 0 0 1 5.308 7.137Z" fill="#FF9500"/><path d="M30 30.673c-4.593 0-8.33 3.736-8.33 8.329S25.407 47.33 30 47.33c4.592 0 8.329-3.736 8.329-8.329s-3.737-8.33-8.33-8.33Zm0 14.9a6.578 6.578 0 0 1-6.572-6.571A6.578 6.578 0 0 1 30 32.432a6.578 6.578 0 0 1 6.571 6.57 6.578 6.578 0 0 1-6.57 6.57Zm-10.151-29.08c0 .808.657 1.465 1.465 1.465h31.304c.808 0 1.466-.657 1.466-1.465v-3.085c0-.808-.657-1.465-1.466-1.465h-17.52a.88.88 0 0 0 0 1.758h17.227V16.2H21.607v-2.5h9.389a.88.88 0 1 0 0-1.757h-9.682c-.808 0-1.465.657-1.465 1.465v3.085ZM42.619 9.7a.88.88 0 0 0 0-1.758H20.73a.88.88 0 1 0 0 1.758h21.89ZM20.73 21.712h32.476a.88.88 0 0 0 0-1.758H20.728a.88.88 0 0 0 0 1.758ZM53.204 9.701a.88.88 0 0 0 0-1.758h-6.352a.88.88 0 0 0 0 1.758h6.352ZM8.244 17.94c-.549 0-.99.743-.99 1.238 0 .99 1.608 2.139 3.747 2.192v.494c0 .23.265.443.6.443.302 0 .602-.213.602-.443v-.547c1.98-.319 3.34-1.574 3.34-3.748 0-2.404-1.767-3.2-3.34-3.782v-3.111c1.184.088 1.59.654 2.086.654.654 0 .936-.814.936-1.22 0-1.026-1.873-1.361-3.022-1.396v-.46c0-.23-.3-.442-.601-.442-.336 0-.6.212-.6.442v.495c-1.768.23-3.43 1.202-3.43 3.447 0 2.262 1.82 2.952 3.43 3.552v3.518c-1.556-.177-2.087-1.325-2.758-1.325Zm3.817-1.767c.76.336 1.326.76 1.326 1.626 0 .83-.548 1.29-1.326 1.45v-3.076Zm-2.333-4.207c0-.672.53-1.096 1.415-1.237v2.669c-.814-.318-1.415-.655-1.415-1.432Z" fill="#000"/><path d="M55.44 0H4.56A4.565 4.565 0 0 0 0 4.56v27.452a.88.88 0 1 0 1.758 0V4.56a2.805 2.805 0 0 1 2.801-2.802h50.88a2.805 2.805 0 0 1 2.802 2.802v35.86a2.805 2.805 0 0 1-2.801 2.801H40.873c.008-.247.033-.472.093-.656.102-.317.386-.687.686-1.08.53-.693 1.13-1.478 1.13-2.483 0-1.005-.6-1.79-1.13-2.483-.3-.393-.584-.764-.686-1.08-.113-.345-.102-.829-.093-1.342.018-.857.038-1.828-.531-2.61-.575-.79-1.51-1.07-2.334-1.319-.487-.146-.947-.285-1.233-.492-.278-.203-.548-.594-.834-1.007-.492-.714-1.05-1.523-1.99-1.828-.906-.294-1.816.022-2.618.3-.493.172-.958.333-1.334.333-.375 0-.84-.161-1.333-.332-.802-.279-1.712-.595-2.617-.3-.941.304-1.499 1.113-1.992 1.827-.285.413-.555.803-.834 1.006-.285.208-.745.347-1.232.493-.825.248-1.76.53-2.334 1.319-.569.782-.55 1.753-.532 2.61.01.513.02.997-.091 1.342-.104.316-.387.687-.687 1.08-.53.692-1.131 1.478-1.131 2.483 0 1.004.6 1.79 1.131 2.483.3.393.583.763.686 1.08.06.184.085.409.093.656H4.56a2.805 2.805 0 0 1-2.801-2.801v-4.3a.878.878 0 1 0-1.758 0v4.3a4.565 4.565 0 0 0 4.56 4.56h14.582c.047.537.176 1.07.515 1.537.575.79 1.51 1.07 2.334 1.319.487.146.947.285 1.232.492.279.203.549.594.834 1.007.149.215.303.438.472.654v8.513a1.594 1.594 0 0 0 2.169 1.488L30 58.718l3.302 1.272a1.592 1.592 0 0 0 1.985-.745c.12-.23.184-.485.184-.743v-8.513c.169-.216.323-.439.472-.654.285-.413.555-.804.834-1.007.285-.208.745-.346 1.232-.492.824-.249 1.76-.53 2.334-1.319.339-.467.468-1 .514-1.537H55.44A4.565 4.565 0 0 0 60 40.42V4.56A4.565 4.565 0 0 0 55.44 0ZM33.71 58.264l-3.138-1.21a1.597 1.597 0 0 0-1.147 0l-3.138 1.21v-7.04c.177.038.354.056.53.056.644 0 1.273-.219 1.848-.418.493-.171.958-.333 1.333-.333.376 0 .841.162 1.334.333.732.254 1.553.538 2.378.363v7.038Zm6.544-17.847c-.376.493-.766 1.002-.962 1.605-.203.626-.19 1.284-.177 1.92.012.608.025 1.237-.196 1.54-.226.311-.833.494-1.42.67-.605.182-1.232.371-1.76.755-.52.379-.888.912-1.245 1.43-.35.507-.713 1.032-1.088 1.153-.344.111-.93-.092-1.498-.29-.608-.21-1.237-.429-1.91-.429-.672 0-1.301.218-1.91.43-.567.197-1.153.401-1.497.29-.375-.122-.738-.647-1.088-1.155-.357-.516-.725-1.05-1.246-1.43-.527-.383-1.154-.572-1.76-.754-.586-.176-1.193-.359-1.419-.67-.22-.303-.208-.932-.196-1.54.013-.636.026-1.294-.177-1.92-.196-.602-.585-1.112-.962-1.605-.379-.494-.77-1.006-.77-1.415 0-.41.391-.92.77-1.416.376-.492.766-1.001.962-1.604.203-.627.19-1.284.177-1.92-.012-.608-.025-1.237.196-1.54.226-.31.832-.494 1.419-.67.606-.183 1.233-.371 1.76-.755.52-.379.89-.913 1.246-1.429.35-.508.713-1.032 1.088-1.154a.74.74 0 0 1 .229-.032c.344 0 .813.163 1.268.321.609.211 1.238.43 1.91.43.672 0 1.302-.219 1.91-.43.568-.197 1.154-.4 1.498-.29.375.122.737.647 1.088 1.155.356.516.725 1.05 1.246 1.43.527.383 1.154.572 1.76.754.586.176 1.193.36 1.419.67.22.303.208.932.196 1.54-.013.636-.026 1.294.177 1.92.196.603.586 1.112.962 1.605.378.494.77 1.005.77 1.415 0 .41-.392.92-.77 1.415Z" fill="#000"/><path d="M6.067 29.628a.88.88 0 0 0 .879.88H17.36a.88.88 0 1 0 0-1.76H6.946a.879.879 0 0 0-.88.88Zm.879 4.592h8.44a.879.879 0 0 0 0-1.759h-8.44a.88.88 0 0 0 0 1.759Zm0 3.712h7.033a.879.879 0 1 0 0-1.758H6.946a.879.879 0 0 0 0 1.758Zm46.107-9.183H42.638a.88.88 0 0 0 0 1.758h10.415a.879.879 0 1 0 0-1.758Zm0 3.712h-8.44a.88.88 0 1 0 0 1.759h8.44a.88.88 0 0 0 0-1.759Zm0 3.713H46.02a.88.88 0 1 0 0 1.758h7.033a.88.88 0 0 0 0-1.758Z" fill="#000"/></svg>