<svg width="66" height="66" fill="none" xmlns="http://www.w3.org/2000/svg"><g clip-path="url(#a)"><mask id="b" style="mask-type:luminance" maskUnits="userSpaceOnUse" x="0" y="0" width="66" height="66"><path d="M0 0h66v66H0V0Z" fill="#fff"/></mask><g mask="url(#b)"><path d="M65.033 28.451c0-15.179-12.361-27.484-27.61-27.484-15.249 0-27.61 12.305-27.61 27.485 0 15.179 12.361 27.484 27.61 27.484 3.2 0 6.273-.544 9.131-1.54l8.423 4.067v-8.796c6.141-5.041 10.056-12.673 10.056-21.216Z" fill="#26C666"/><path d="M37.423.967c-.87 0-1.729.042-2.578.12 14.04 1.295 25.032 13.05 25.032 27.364 0 14.077-11.288 26.036-25.071 27.361a27.68 27.68 0 0 0 11.748-1.417l8.423 4.068v-8.797c6.141-5.04 10.056-12.672 10.056-21.214 0-15.18-12.361-27.485-27.61-27.485Z" fill="#13AF52"/><path d="M28.54 29a3.894 3.894 0 1 1-7.788 0 3.894 3.894 0 0 1 7.788 0Zm12.777 0a3.894 3.894 0 1 1-7.787 0 3.894 3.894 0 0 1 7.787 0Zm12.777 0a3.894 3.894 0 1 1-7.788 0 3.894 3.894 0 0 1 7.788 0Z" fill="#FFF7E8"/><path d="M.967 50.238c0-7.484 6.094-13.55 13.611-13.55 7.518 0 13.612 6.066 13.612 13.55 0 7.483-6.094 13.55-13.612 13.55-1.577 0-3.092-.269-4.501-.76l-4.153 2.005v-4.336C2.897 58.21.967 54.449.967 50.237Z" fill="#FFD98C"/><path d="M14.578 36.688c-.881 0-1.743.084-2.578.244 6.285 1.2 11.034 6.7 11.034 13.306 0 6.603-4.746 12.102-11.027 13.304a13.69 13.69 0 0 0 2.571.246c7.518 0 13.612-6.067 13.612-13.55 0-7.483-6.094-13.55-13.612-13.55Z" fill="#FFCA5B"/></g></g><defs><clipPath id="a"><path fill="#fff" d="M0 0h66v66H0z"/></clipPath></defs></svg>