<svg width="64" height="50" fill="none" xmlns="http://www.w3.org/2000/svg"><path fill-rule="evenodd" clip-rule="evenodd" d="M16.523 33.446c0-4.665 10.613-8.45 23.71-8.45 13.092 0 23.704 3.785 23.704 8.45v7.766c0 4.665-10.612 8.45-23.705 8.45-13.096 0-23.709-3.785-23.709-8.45v-7.766Z" fill="#FE9923"/><path fill-rule="evenodd" clip-rule="evenodd" d="M40.232 24.996c13.093 0 23.706 3.785 23.706 8.45 0 4.668-10.613 8.45-23.706 8.45-13.096 0-23.708-3.782-23.708-8.45 0-4.665 10.612-8.45 23.708-8.45Z" fill="#FECD3D"/><path fill-rule="evenodd" clip-rule="evenodd" d="M40.232 28.945c10.417 0 18.859 2.018 18.859 4.5 0 2.488-8.442 4.502-18.859 4.502-10.416 0-18.862-2.014-18.862-4.501 0-2.483 8.446-4.501 18.862-4.501Z" fill="#FEA832"/><path d="m28.23 44.938 2.026.004v3.934a44.697 44.697 0 0 1-2.025-.378v-3.56Zm29.298-2.083v4.134c.73-.28 1.407-.574 2.028-.883v-3.254l-2.028.003Zm-21.975 6.64c.669.05 1.345.086 2.029.112v-3.76l-2.029.004v3.643Zm-14.648-3.39c.621.31 1.297.604 2.028.884v-4.137l-2.029.003v3.25Zm21.974 3.502c.676-.026 1.35-.064 2.025-.113v-3.643l-2.025-.004v3.76Zm7.326-.731c.678-.11 1.353-.236 2.025-.378v-3.556l-2.025-.004v3.938Z" fill="#C85929"/><path d="M7.023 42.833v2.516h2.513v1.796H7.023v2.516H5.227v-2.516H2.711V45.35h2.516v-2.516h1.796Zm45.964-27.555v2.516h2.515v1.792h-2.515v2.516H51.19v-2.516h-2.512v-1.792h2.512v-2.516h1.797ZM8.23.338v2.517h2.513v1.792H8.23v2.516H6.434V4.647H3.918V2.855h2.516V.339H8.23Z" fill="#FEA832"/><path fill-rule="evenodd" clip-rule="evenodd" d="M.497 29.054C-1.837 25.01 5.464 16.427 16.803 9.883c11.34-6.548 22.422-8.577 24.756-4.538l3.883 6.723c2.334 4.042-4.966 12.627-16.306 19.17-11.34 6.549-22.422 8.581-24.756 4.538L.497 29.054Z" fill="#FE9923"/><path fill-rule="evenodd" clip-rule="evenodd" d="M16.803 9.883c11.34-6.548 22.422-8.577 24.756-4.538 2.335 4.043-4.966 12.627-16.306 19.171C13.917 31.064 2.831 33.093.497 29.054-1.837 25.01 5.464 16.427 16.803 9.883Z" fill="#FECD3D"/><path fill-rule="evenodd" clip-rule="evenodd" d="M18.778 13.3c9.02-5.206 17.342-7.682 18.586-5.53 1.243 2.152-5.065 8.119-14.085 13.329-9.02 5.206-17.34 7.682-18.583 5.53C3.453 24.477 9.757 18.51 18.778 13.3Z" fill="#FEA832"/><path d="m24.937 29.265 1.88 3.254c-.6.316-1.204.622-1.815.916l-1.821-3.156 1.756-1.014Zm-15.94 5.744 1.626 2.814c.69-.04 1.425-.123 2.196-.247l-2.065-3.581-1.756 1.014Zm7.385-1.858 1.781 3.083c.652-.213 1.3-.44 1.942-.683l-1.967-3.41-1.756 1.01Zm13.143-6.537 1.88 3.254c.572-.36 1.138-.73 1.698-1.109l-1.822-3.152-1.756 1.007Zm12.943-10.933L40.712 16.7l2.07 3.577c.49-.603.93-1.2 1.312-1.778l-1.626-2.817Zm-7.053 6.483 1.967 3.41a41.438 41.438 0 0 0 1.563-1.338l-1.777-3.079-1.753 1.007Z" fill="#C85929"/></svg>