<svg width="60" height="60" fill="none" xmlns="http://www.w3.org/2000/svg"><path d="M59.514 23.526c0 12.59-10.203 22.806-22.806 22.806-12.591 0-22.807-10.203-22.807-22.806C13.901 10.923 24.117.72 36.708.72c12.603 0 22.806 10.203 22.806 22.806Z" fill="#AFDEE0"/><path d="M50.972 36.092a4.3 4.3 0 0 1-1.575-.283.609.609 0 0 1-.357-.787.605.605 0 0 1 .788-.357c1.378.517 3.064.037 3.963-1.12a6.83 6.83 0 0 1-1.625-3.582c-.05-.345-.074-.8.099-1.23a1.456 1.456 0 0 1 1.304-.912c.64.025 1.046.542 1.182.714 1.034 1.33 1.23 3.25.566 4.8.418.357.874.64 1.378.862a.62.62 0 0 1 .32.812.62.62 0 0 1-.812.32 6.715 6.715 0 0 1-1.539-.923c-.886 1.07-2.289 1.686-3.692 1.686Zm2.548-7.027c-.013 0-.074.061-.11.135-.063.172-.05.419-.025.615.11.899.467 1.76.996 2.499.259-1.022.05-2.166-.603-3.003-.172-.234-.258-.246-.258-.246Z" fill="#000"/><path d="M51.575 34.886c0 5.723-2.72 10.88-7.077 14.499l-2.56 8.32c-.184.566-.701.96-1.304.96H35.76a1.36 1.36 0 0 1-1.366-1.354v-3.09c-3.41.707-6.929.707-10.339 0v3.09a1.35 1.35 0 0 1-1.354 1.354h-4.886a1.36 1.36 0 0 1-1.292-.96l-2.572-8.32c-2.511-2.093-4.493-4.702-5.699-7.631h-2.83a3.504 3.504 0 0 1-3.496-3.508v-6.72a3.493 3.493 0 0 1 3.495-3.495h2.831a18.729 18.729 0 0 1 2.523-4.345c.345-.381.69-.738 1.046-1.083a3.976 3.976 0 0 1-.307-.665c-1.206-2.806-.985-5.649-.419-7.84.542-2.153 2.991-3.2 4.923-2.117l6.61 3.914c.037-.012.061-.012.098-.024a24.944 24.944 0 0 1 6.498-.85 18.4 18.4 0 0 1 1.65.062v-.135c0-4.899 3.975-8.874 8.874-8.874 4.91 0 8.886 3.975 8.886 8.874a8.872 8.872 0 0 1-2.88 6.56c3.618 3.532 5.821 8.221 5.821 13.378Z" fill="#000"/><path d="M40.634 59.28H35.76a1.978 1.978 0 0 1-1.981-1.97v-2.35c-3.004.53-6.105.53-9.108 0v2.35c0 1.084-.886 1.97-1.97 1.97h-4.886a1.984 1.984 0 0 1-1.883-1.39l-2.523-8.148c-2.437-2.068-4.357-4.603-5.575-7.373H5.422a4.12 4.12 0 0 1-4.111-4.123v-6.72a4.118 4.118 0 0 1 4.11-4.11h2.425a19.308 19.308 0 0 1 2.45-4.111c.27-.296.529-.567.775-.825-.099-.21-.136-.332-.148-.357-1.305-3.04-.96-6.13-.43-8.185a3.946 3.946 0 0 1 2.289-2.683 3.967 3.967 0 0 1 3.532.185l6.4 3.79a25.452 25.452 0 0 1 7.545-.812c.27-4.984 4.418-8.972 9.476-8.972 5.243 0 9.502 4.259 9.502 9.49a9.508 9.508 0 0 1-2.622 6.56c3.594 3.716 5.563 8.443 5.563 13.378 0 5.6-2.609 11.003-7.163 14.855l-2.51 8.148a1.935 1.935 0 0 1-1.871 1.403Zm-6.24-5.674c.135 0 .283.05.394.136.147.11.221.295.221.48v3.089c0 .406.333.738.751.738h4.874c.32 0 .615-.209.714-.541l2.56-8.308a.66.66 0 0 1 .197-.295c4.357-3.619 6.855-8.727 6.855-14.031 0-4.8-2.006-9.39-5.637-12.936a.632.632 0 0 1-.184-.455c0-.172.073-.332.196-.443a8.331 8.331 0 0 0 2.684-6.105c0-4.553-3.705-8.258-8.271-8.258-4.554 0-8.259 3.705-8.259 8.258v.136a.644.644 0 0 1-.197.455.64.64 0 0 1-.467.16c-2.634-.246-5.391.086-7.939.763-.16.05-.43.05-.566-.037L15.71 12.5a2.737 2.737 0 0 0-2.436-.124 2.717 2.717 0 0 0-1.575 1.859c-.48 1.87-.8 4.677.381 7.446.025.074.098.295.283.603a.597.597 0 0 1-.11.739c-.345.332-.678.677-1.022 1.058a18.1 18.1 0 0 0-2.413 4.16.614.614 0 0 1-.566.382h-2.83a2.884 2.884 0 0 0-2.88 2.88v6.72c0 1.6 1.292 2.892 2.88 2.892h2.83c.246 0 .48.148.566.381 1.145 2.782 3.053 5.33 5.527 7.397.086.074.16.173.197.296l2.572 8.32a.75.75 0 0 0 .701.529h4.887c.418 0 .738-.32.738-.739V54.21c0-.184.086-.357.222-.48a.604.604 0 0 1 .517-.123c3.31.69 6.781.69 10.092 0h.123Z" fill="#000"/><path d="M21.902 14.554a24.5 24.5 0 0 1 6.498-.862c12.345 0 22.35 8.899 22.35 19.865 0 5.723-2.72 10.88-7.076 14.498l-2.572 8.32a1.36 1.36 0 0 1-1.293.96h-4.886a1.35 1.35 0 0 1-1.354-1.354v-3.089a25.483 25.483 0 0 1-5.169.542c-1.772 0-3.508-.185-5.17-.542v3.09a1.35 1.35 0 0 1-1.353 1.353H16.99a1.36 1.36 0 0 1-1.293-.96l-2.572-8.32c-2.523-2.092-4.492-4.701-5.71-7.643H4.608a3.506 3.506 0 0 1-3.507-3.507v-6.72a3.506 3.506 0 0 1 3.507-3.508h2.819a18.986 18.986 0 0 1 2.523-4.345c3.655-3.963 7.63-6.621 11.95-7.778Z" fill="#F6C649"/><path d="M39.81 57.95h-4.887a1.975 1.975 0 0 1-1.97-1.969v-2.338a25.73 25.73 0 0 1-9.107 0v2.338c0 1.084-.886 1.97-1.97 1.97h-4.885a1.953 1.953 0 0 1-1.883-1.391l-2.511-8.148C10.16 46.357 8.24 43.81 7.02 41.028H4.61a4.131 4.131 0 0 1-4.123-4.123v-6.72a4.12 4.12 0 0 1 4.123-4.111h2.412a19.935 19.935 0 0 1 2.45-4.111c3.827-4.172 7.95-6.855 12.283-8.025a25.541 25.541 0 0 1 6.658-.873c12.665 0 22.966 9.193 22.966 20.48 0 5.6-2.609 11.003-7.15 14.855l-2.511 8.148a1.99 1.99 0 0 1-1.908 1.403Zm-5.626-5.809v3.84a.74.74 0 0 0 .739.739h4.886a.738.738 0 0 0 .714-.53l2.621-8.492.136-.123c4.357-3.618 6.855-8.738 6.855-14.03 0-10.622-9.747-19.25-21.735-19.25-2.166 0-4.308.283-6.338.837-4.099 1.108-8.025 3.668-11.656 7.631a18.437 18.437 0 0 0-2.412 4.16l-.16.382H4.609a2.894 2.894 0 0 0-2.892 2.88v6.72a2.897 2.897 0 0 0 2.892 2.892h3.225l.16.381c1.157 2.794 3.064 5.354 5.526 7.397l.135.123 2.622 8.493a.753.753 0 0 0 .714.529h4.886a.74.74 0 0 0 .738-.739v-3.84l.739.16c3.286.702 6.794.69 10.08 0l.75-.16Z" fill="#000"/><path d="M47.12 33.57a13.32 13.32 0 0 1-.677 5.624c-.308.898-.628 1.846-1.23 2.609-.592.763-1.305 1.452-2.18 1.895-.036.013-.073 0-.085-.024a.037.037 0 0 1 0-.05c.381-.91.824-1.698 1.243-2.486.406-.787.96-1.501 1.354-2.313a15.19 15.19 0 0 0 1.464-5.244c0-.036.037-.061.062-.049.024-.024.049 0 .049.037Z" fill="#fff"/><path d="M1.102 30.061h3.187v1.231H1.102v-1.23Zm0 2.991h3.187v1.231H1.102v-1.23Zm0 2.991h3.187v1.23H1.102v-1.23Zm43.15-10.917a.624.624 0 0 1-.443-.184 21.449 21.449 0 0 0-2.658-2.314 19.693 19.693 0 0 0-2.893-1.785 19.593 19.593 0 0 0-3.68-1.415 17.53 17.53 0 0 0-3.31-.603c-1.846-.173-3.016 0-3.028 0a.622.622 0 0 1-.701-.517.622.622 0 0 1 .516-.702c.05-.012 1.33-.184 3.323 0 1.17.099 2.364.32 3.533.652a21.11 21.11 0 0 1 3.901 1.502 20.305 20.305 0 0 1 3.065 1.883 21.755 21.755 0 0 1 2.806 2.437.62.62 0 0 1-.012.874.586.586 0 0 1-.419.172Z" fill="#000"/><path d="m25.323 16.67-10.13-6.018c-1.931-1.083-4.38-.037-4.922 2.117-.554 2.19-.788 5.034.418 7.852 0 0 .456 1.44 2.031 2.487" fill="#F6C649"/><path d="M12.375 23.625c-1.735-1.157-2.252-2.757-2.277-2.819-1.046-2.412-1.193-5.194-.43-8.185a3.976 3.976 0 0 1 2.289-2.683 3.97 3.97 0 0 1 3.532.185l10.142 6.019-.628 1.058-10.13-6.006a2.776 2.776 0 0 0-2.436-.11 2.795 2.795 0 0 0-1.588 1.857c-.689 2.72-.566 5.231.394 7.459.025.074.443 1.317 1.797 2.215l-.665 1.01Zm1.293 3.286c0 .849-.677 1.526-1.526 1.526-.85 0-1.527-.677-1.527-1.526 0-.85.677-1.526 1.527-1.526.849 0 1.526.676 1.526 1.526Z" fill="#000"/><path d="M47.81 13.618a8.882 8.882 0 0 1-6.29 8.505 20.098 20.098 0 0 0-2.979-1.834 20.104 20.104 0 0 0-3.79-1.452 18.88 18.88 0 0 0-3.422-.628 8.877 8.877 0 0 1 7.594-13.464c4.91 0 8.886 3.975 8.886 8.873Z" fill="#fff"/><path d="M45.126 13.692a6.209 6.209 0 0 1-6.203 6.203c-.11 0-.234 0-.357-.024a18.456 18.456 0 0 0-3.508-1.342 6.205 6.205 0 0 1-2.326-4.837 6.203 6.203 0 0 1 6.19-6.19c3.422-.013 6.204 2.781 6.204 6.19Z" fill="#F6C649"/><path d="m41.41 22.812-.247-.184a19.693 19.693 0 0 0-2.892-1.785 18.742 18.742 0 0 0-3.68-1.403 17.53 17.53 0 0 0-3.311-.603l-.308-.025-.16-.27a9.44 9.44 0 0 1-1.366-4.911c0-5.231 4.259-9.49 9.49-9.49 5.242 0 9.5 4.259 9.5 9.49 0 4.221-2.707 7.877-6.72 9.095l-.307.086Zm-9.712-5.181c1.071.11 2.154.32 3.213.615 1.341.357 2.658.862 3.901 1.49.96.48 1.908 1.058 2.806 1.698 3.336-1.145 5.563-4.259 5.563-7.828 0-4.554-3.704-8.258-8.27-8.258-4.554 0-8.259 3.704-8.259 8.258a8.412 8.412 0 0 0 1.046 4.025Z" fill="#000"/><path d="M41.422 15.034c0 .369-.099.689-.271.972a2.003 2.003 0 0 1-.751.677c-.27.135-.578.234-.923.283v.69c0 .122-.05.245-.135.332a.44.44 0 0 1-.333.147.465.465 0 0 1-.468-.48v-.64a4.345 4.345 0 0 1-.947-.16 3.92 3.92 0 0 1-.85-.357.516.516 0 0 1-.233-.258c-.05-.098-.062-.21-.05-.32a.427.427 0 0 1 .123-.27.48.48 0 0 1 .247-.16.605.605 0 0 1 .357.085c.172.099.406.197.689.283.283.099.627.136 1.034.136.32 0 .578-.037.775-.123a1.05 1.05 0 0 0 .43-.308.748.748 0 0 0 .05-.812.794.794 0 0 0-.32-.271 2.094 2.094 0 0 0-.578-.197l-1.01-.21c-.566-.122-.997-.332-1.28-.64-.283-.295-.43-.676-.43-1.156 0-.37.098-.714.27-.997.185-.295.444-.53.764-.702.282-.16.602-.246.972-.295v-.677c0-.123.037-.246.123-.332a.455.455 0 0 1 .345-.136c.123 0 .246.05.332.136a.428.428 0 0 1 .135.332v.665c.21.024.443.073.69.135.32.098.602.246.836.43.099.075.16.16.185.26a.492.492 0 0 1-.123.516.49.49 0 0 1-.259.111c-.098.012-.221-.025-.356-.099a2.316 2.316 0 0 0-.616-.258 3.118 3.118 0 0 0-.812-.098c-.406 0-.714.098-.948.27-.234.173-.332.406-.332.702 0 .21.061.381.209.517.148.135.381.234.714.308l1.034.233c.603.136 1.046.345 1.329.628.234.27.382.652.382 1.108Z" fill="#000"/></svg>