<svg width="64" height="64" fill="none" xmlns="http://www.w3.org/2000/svg"><g clip-path="url(#a)"><path d="M31.981 63.962c17.663 0 31.981-14.318 31.981-31.98C63.962 14.318 49.645 0 31.982 0 14.318 0 0 14.319 0 31.981c0 17.663 14.319 31.981 31.981 31.981Z" fill="#FFD200"/><path d="M31.981 62.313c16.752 0 30.332-13.58 30.332-30.332 0-16.751-13.58-30.331-30.332-30.331C15.23 1.65 1.65 15.23 1.65 31.98c0 16.752 13.58 30.332 30.331 30.332Z" fill="#FA0"/><path d="M31.981 61.038c16.048 0 29.057-13.01 29.057-29.057 0-16.047-13.01-29.057-29.057-29.057-16.048 0-29.057 13.01-29.057 29.057 0 16.048 13.01 29.057 29.057 29.057Z" fill="#FFF9DD"/><path fill-rule="evenodd" clip-rule="evenodd" d="M19.009 9.523c-.3.15-.675.075-.863-.225a.658.658 0 0 1 .225-.9c1.05-.562 2.1-1.087 3.187-1.574a29.67 29.67 0 0 1 3.375-1.125c5.96-1.612 12.072-1.087 17.471 1.125a27.298 27.298 0 0 1 13.16 11.547c0 .038.038.038.038.038.337.6.637 1.2.937 1.762.3.637.562 1.237.787 1.875.15.3-.037.675-.337.825-.338.112-.713-.038-.825-.375-.263-.6-.487-1.2-.787-1.763a18.426 18.426 0 0 0-.9-1.687v-.037a25.892 25.892 0 0 0-12.56-10.986A25.74 25.74 0 0 0 25.27 6.936c-1.087.3-2.175.637-3.224 1.087-1.05.413-2.063.938-3.037 1.5ZM10.16 17.96c-.187.3-.6.375-.862.187-.3-.187-.412-.6-.225-.862a38.1 38.1 0 0 1 1.425-1.987 18.929 18.929 0 0 1 1.575-1.875c.224-.262.637-.262.9-.037a.646.646 0 0 1 .037.9 21.934 21.934 0 0 0-1.5 1.762c-.487.637-.937 1.237-1.35 1.912Zm43.642 28.157a.613.613 0 0 1 .862-.188c.3.188.375.563.188.863a27.072 27.072 0 0 1-4.087 4.949c-1.537 1.425-3.262 2.737-5.174 3.824a27.182 27.182 0 0 1-20.658 2.737c-6.712-1.8-12.748-6.186-16.535-12.71v-.037a26.71 26.71 0 0 1-3.487-10.76C4.5 30.968 4.95 27.106 6.15 23.47c.112-.337.45-.524.787-.412a.658.658 0 0 1 .412.825A26.231 26.231 0 0 0 6.186 34.68a25.605 25.605 0 0 0 3.3 10.273h.037c3.562 6.224 9.336 10.385 15.747 12.11a25.908 25.908 0 0 0 19.684-2.587h.037c1.8-1.05 3.45-2.287 4.874-3.674 1.537-1.425 2.812-3 3.937-4.687Zm4.124-12.935c0-.375.3-.637.675-.637.337.037.6.337.6.675a31.66 31.66 0 0 1-.15 1.95c-.075.637-.188 1.274-.3 1.949a.637.637 0 0 1-.75.487.696.696 0 0 1-.525-.75c.113-.6.225-1.2.3-1.837.075-.637.113-1.237.15-1.837Z" fill="#FFE0C7"/><g clip-path="url(#b)"><path d="M39.208 22.753a12.298 12.298 0 0 1 3.19 3.904 5.643 5.643 0 0 0 1.2-3.488 5.663 5.663 0 0 0-2.542-4.729.264.264 0 0 0-.41.235 5.646 5.646 0 0 1-1.438 4.077Z" fill="#465A61"/><path d="M22.83 23.62c.352-.353.725-.684 1.117-.992a5.644 5.644 0 0 1-1.33-3.953.264.264 0 0 0-.41-.235 5.663 5.663 0 0 0-2.541 4.729c0 1.223.387 2.355 1.046 3.281a12.305 12.305 0 0 1 2.117-2.83Z" fill="#596C76"/><path d="M22.61 18.972c0-.1.003-.199.008-.297a.264.264 0 0 0-.41-.235c-.444.294-.844.65-1.19 1.055a5.66 5.66 0 0 0 .774 2.065c.247.398.17.92-.177 1.234a12.363 12.363 0 0 0-1.732 1.932c.176.618.457 1.2.83 1.724a12.453 12.453 0 0 1 3.235-3.822 5.644 5.644 0 0 1-1.338-3.656Z" fill="#465A61"/><path d="M31.5 44.605c6.801 0 12.315-5.514 12.315-12.315 0-6.802-5.514-12.315-12.315-12.315-6.801 0-12.315 5.513-12.315 12.315 0 6.801 5.514 12.315 12.315 12.315Z" fill="#FD8087"/><path d="M35.065 20.5a12.31 12.31 0 0 1 6.14 10.656c0 6.801-5.514 12.315-12.315 12.315-1.24 0-2.437-.184-3.566-.525a12.258 12.258 0 0 0 6.176 1.659c6.801 0 12.315-5.514 12.315-12.315 0-5.562-3.687-10.261-8.75-11.79Z" fill="#FE646F"/><path d="M34.713 40.68h-6.426a3.906 3.906 0 0 1-3.906-3.907c0-.728.59-1.318 1.318-1.318h11.602c.728 0 1.318.59 1.318 1.318a3.906 3.906 0 0 1-3.906 3.906Z" fill="#596C76"/><path d="M37.51 35.472a3.905 3.905 0 0 1-3.904 3.833h-8.293a3.896 3.896 0 0 0 2.974 1.374h6.426a3.906 3.906 0 0 0 3.906-3.906c0-.656-.48-1.201-1.11-1.301Z" fill="#465A61"/><path d="M27.75 38.067h7.5a2.56 2.56 0 0 0 2.287-1.407l.496-.983a1.312 1.312 0 0 0-.732-.222H25.699c-.27 0-.522.082-.732.222l.497.983a2.56 2.56 0 0 0 2.286 1.407Z" fill="#fff"/><path d="M37.3 35.455h-.927l-.159.314a2.02 2.02 0 0 1-1.803 1.11h-8.823a2.562 2.562 0 0 0 2.162 1.188h7.5a2.56 2.56 0 0 0 2.287-1.407l.496-.983a1.311 1.311 0 0 0-.732-.222Z" fill="#F5F8F9"/><path d="m34.367 37.517-.55.399a.791.791 0 0 1-.465.151h-3.704a.79.79 0 0 1-.465-.151l-.55-.4a.528.528 0 0 0-.602-.012l-2.712 1.808a3.896 3.896 0 0 0 2.968 1.367h6.426c1.188 0 2.251-.53 2.968-1.367l-2.712-1.808a.527.527 0 0 0-.602.013Z" fill="#fff"/><path d="M36.196 38.322a3.89 3.89 0 0 1-2.59.983H25.33l-.01.007a3.896 3.896 0 0 0 2.967 1.367h6.426c1.188 0 2.251-.53 2.968-1.367l-1.485-.99Z" fill="#F5F8F9"/><path d="M23.555 27.731a.532.532 0 0 0-.762.271 3.92 3.92 0 0 0 1.698 4.789 3.92 3.92 0 0 0 4.997-.923.532.532 0 0 0-.147-.796l-5.786-3.34Z" fill="#fff"/><path d="M24.94 29.059a1.477 1.477 0 1 0 2.725 1.045l-2.433-1.405a1.475 1.475 0 0 0-.292.36Z" fill="#596C76"/><path d="M33.659 31.072a.532.532 0 0 0-.147.796 3.92 3.92 0 0 0 4.997.923 3.92 3.92 0 0 0 1.698-4.789.532.532 0 0 0-.763-.27l-5.785 3.34Z" fill="#fff"/><path d="m29.341 31.072-.389-.225a3.92 3.92 0 0 1-5.608.937c.313.408.702.75 1.147 1.007a3.92 3.92 0 0 0 4.997-.923.532.532 0 0 0-.147-.796Zm10.866-3.07a.532.532 0 0 0-.762-.27l-.258.148a3.92 3.92 0 0 1-1.786 4.532 3.896 3.896 0 0 1-2.656.46 3.913 3.913 0 0 0 3.764-.081 3.92 3.92 0 0 0 1.698-4.789Z" fill="#F5F8F9"/><path d="M35.501 30.536A1.477 1.477 0 1 0 37.77 28.7l-2.434 1.405c.032.152.088.298.166.432Z" fill="#596C76"/><path d="M26.852 30.015c-.376.65-1.17.907-1.846.626a1.478 1.478 0 0 0 2.659-.537l-.681-.393a1.475 1.475 0 0 1-.132.304Zm11.208-.956a1.476 1.476 0 0 0-.291-.36l-.372.215a1.478 1.478 0 0 1-1.66 1.93 1.478 1.478 0 0 0 2.323-1.785Z" fill="#465A61"/><path d="m25.277 25.805 3.824 2.817a.266.266 0 0 0 .38-.069l.603-.926m7.639-1.822-3.824 2.817a.266.266 0 0 1-.38-.069l-.603-.926" stroke="#000" stroke-width=".5" stroke-miterlimit="10" stroke-linecap="round" stroke-linejoin="round"/><path d="M42.43 26.613a5.641 5.641 0 0 0 1.168-3.444 5.663 5.663 0 0 0-2.542-4.729.264.264 0 0 0-.41.235 5.646 5.646 0 0 1-1.404 4.038" stroke="#000" stroke-width=".5" stroke-miterlimit="10" stroke-linejoin="round"/><path d="M23.915 22.588a5.643 5.643 0 0 1-1.297-3.913.264.264 0 0 0-.41-.235 5.693 5.693 0 0 0-2.006 2.32m-.5 1.777a5.64 5.64 0 0 0 .979 3.867m2.874 1.327a.532.532 0 0 0-.762.271 3.92 3.92 0 0 0 1.698 4.789 3.92 3.92 0 0 0 4.997-.923.532.532 0 0 0-.147-.796l-5.786-3.34Z" stroke="#000" stroke-width=".5" stroke-miterlimit="10" stroke-linecap="round" stroke-linejoin="round"/><path d="M24.94 29.059a1.478 1.478 0 1 0 2.725 1.045l-2.433-1.405a1.476 1.476 0 0 0-.292.36Zm10.56 1.477a1.478 1.478 0 1 0 2.267-1.837l-2.433 1.405c.032.152.088.298.166.432Zm-.788 10.143h-6.426a3.906 3.906 0 0 1-3.906-3.906c0-.728.59-1.318 1.318-1.318H37.3c.728 0 1.318.59 1.318 1.319a3.906 3.906 0 0 1-3.906 3.905Z" stroke="#000" stroke-width=".5" stroke-miterlimit="10" stroke-linecap="round" stroke-linejoin="round"/><path d="m37.68 39.312-2.71-1.807a.527.527 0 0 0-.603.012l-.55.399a.791.791 0 0 1-.465.151h-3.704a.79.79 0 0 1-.465-.151l-.55-.4a.528.528 0 0 0-.602-.011l-2.712 1.807" stroke="#000" stroke-width=".5" stroke-miterlimit="10" stroke-linejoin="round"/><path d="M35.742 38.02a2.56 2.56 0 0 0 1.795-1.36l.496-.983m-13.066 0 .497.983a2.561 2.561 0 0 0 1.794 1.36" stroke="#000" stroke-width=".5" stroke-miterlimit="10" stroke-linejoin="round"/><path d="M40.126 30.992c.411-.927.46-2.003.081-2.99a.532.532 0 0 0-.763-.27l-5.785 3.34a.532.532 0 0 0-.147.796 3.92 3.92 0 0 0 5.487.587" stroke="#000" stroke-width=".5" stroke-miterlimit="10" stroke-linecap="round" stroke-linejoin="round"/><path d="M23.47 41.626a12.266 12.266 0 0 0 8.03 2.979c6.801 0 12.315-5.514 12.315-12.315 0-6.802-5.514-12.315-12.315-12.315-6.801 0-12.315 5.513-12.315 12.315 0 3.069 1.123 5.875 2.98 8.031" stroke="#000" stroke-width=".5" stroke-miterlimit="10" stroke-linecap="round" stroke-linejoin="round"/></g></g><defs><clipPath id="a"><path fill="#fff" d="M0 0h64v64H0z"/></clipPath><clipPath id="b"><path fill="#fff" transform="translate(18 18)" d="M0 0h27v27H0z"/></clipPath></defs></svg>