<svg width="64" height="64" fill="none" xmlns="http://www.w3.org/2000/svg"><path d="M31.981 63.962c17.663 0 31.981-14.318 31.981-31.98C63.962 14.318 49.645 0 31.982 0 14.318 0 0 14.319 0 31.981c0 17.663 14.319 31.981 31.981 31.981Z" fill="#FFD200"/><path d="M31.981 62.313c16.752 0 30.332-13.58 30.332-30.332 0-16.751-13.58-30.331-30.332-30.331C15.23 1.65 1.65 15.23 1.65 31.98c0 16.752 13.58 30.332 30.331 30.332Z" fill="#FA0"/><path d="M31.981 61.038c16.048 0 29.057-13.01 29.057-29.057 0-16.047-13.01-29.057-29.057-29.057-16.048 0-29.057 13.01-29.057 29.057 0 16.048 13.01 29.057 29.057 29.057Z" fill="#FFF9DD"/><path fill-rule="evenodd" clip-rule="evenodd" d="M19.009 9.523c-.3.15-.675.075-.863-.225a.658.658 0 0 1 .225-.9c1.05-.562 2.1-1.087 3.187-1.574a29.67 29.67 0 0 1 3.375-1.125c5.96-1.612 12.072-1.087 17.471 1.125a27.298 27.298 0 0 1 13.16 11.547c0 .038.038.038.038.038.337.6.637 1.2.937 1.762.3.637.562 1.237.787 1.875.15.3-.037.675-.337.825-.338.112-.713-.038-.825-.375-.263-.6-.487-1.2-.787-1.762a18.426 18.426 0 0 0-.9-1.688v-.037a25.893 25.893 0 0 0-12.56-10.986A25.74 25.74 0 0 0 25.27 6.936c-1.087.3-2.175.638-3.224 1.087-1.05.413-2.063.938-3.037 1.5ZM10.16 17.96c-.187.3-.6.375-.862.188-.3-.188-.412-.6-.225-.863.45-.675.938-1.35 1.425-1.987a18.939 18.939 0 0 1 1.575-1.875c.224-.262.637-.262.9-.037a.646.646 0 0 1 .037.9 21.935 21.935 0 0 0-1.5 1.762c-.487.637-.937 1.237-1.35 1.912Zm43.642 28.157a.613.613 0 0 1 .862-.187c.3.187.375.562.188.862a27.075 27.075 0 0 1-4.087 4.949c-1.537 1.425-3.262 2.737-5.174 3.824a27.182 27.182 0 0 1-20.658 2.737c-6.712-1.8-12.748-6.186-16.535-12.71v-.037a26.71 26.71 0 0 1-3.487-10.76C4.5 30.968 4.95 27.106 6.15 23.47c.112-.337.45-.524.787-.412a.658.658 0 0 1 .412.825A26.231 26.231 0 0 0 6.186 34.68a25.604 25.604 0 0 0 3.3 10.273h.037c3.562 6.224 9.336 10.385 15.747 12.11a25.908 25.908 0 0 0 19.684-2.587h.037a25.17 25.17 0 0 0 4.874-3.674c1.537-1.425 2.812-3 3.937-4.687Zm4.124-12.935c0-.375.3-.637.675-.637.337.037.6.337.6.675a31.657 31.657 0 0 1-.15 1.95c-.075.637-.188 1.274-.3 1.949a.637.637 0 0 1-.75.487.696.696 0 0 1-.525-.75c.113-.6.225-1.2.3-1.837.075-.637.113-1.237.15-1.837Z" fill="#FFE0C7"/><path fill-rule="evenodd" clip-rule="evenodd" d="m45.73 22.814-13.595-4.791a.404.404 0 0 0-.268 0l-13.598 4.791a.404.404 0 0 0 0 .761l5.315 1.873v5.408a.403.403 0 0 0 .198.347c2.866 1.697 5.553 2.543 8.212 2.584h.013c2.659-.041 5.345-.887 8.212-2.584a.404.404 0 0 0 .197-.347v-5.408l1.854-.653v3.857a1.357 1.357 0 0 0-.689 2.091l-.66 1.94a.941.941 0 0 0 .034.68l.002.005c.123.263.351.42.612.42h2.207c.26 0 .49-.157.613-.422a.935.935 0 0 0 .033-.687l-.658-1.936a1.356 1.356 0 0 0-.687-2.09V24.51l2.654-.936a.404.404 0 0 0 0-.76Zm-4.05 10.167c0-.015.002-.029.007-.042l.58-1.705a1.35 1.35 0 0 0 .812 0l.578 1.701a.154.154 0 0 1 .008.046H41.68Zm.993-2.49a.547.547 0 1 1 0-1.095.547.547 0 0 1 0 1.094Zm-10.672 2.49c-2.453-.04-4.945-.811-7.61-2.356v-1.22c2.64 1.464 5.135 2.198 7.604 2.236h.012c2.468-.038 4.961-.771 7.603-2.237v1.22c-2.666 1.546-5.157 2.317-7.61 2.357Zm7.609-4.504c-2.668 1.546-5.159 2.318-7.61 2.358-2.45-.04-4.942-.812-7.61-2.358v-2.745l7.477 2.635a.41.41 0 0 0 .268 0l7.475-2.634v2.744ZM32 27.559l-12.383-4.364L32 18.83l12.383 4.364L32 27.559Zm9.9 7.617a.364.364 0 0 0-.057.004 68.35 68.35 0 0 1-8.403.706 4.51 4.51 0 0 0-.04-.124.403.403 0 0 0-.475-.26 3.18 3.18 0 0 1-1.604-.031.402.402 0 0 0-.507.422 68.426 68.426 0 0 1-8.352-.663 1.595 1.595 0 0 0-.409-.054c-1.407 0-2.51 1.852-2.51 4.216 0 2.365 1.103 4.215 2.51 4.215.136 0 .27-.017.402-.052a67.638 67.638 0 0 1 6.397-.59l-.258.447a.403.403 0 0 0 .396.603l.971-.114.388.897a.403.403 0 0 0 .719.042l.948-1.64c.305-.018.611.01.909.081a.401.401 0 0 0 .23-.014l.909 1.573a.404.404 0 0 0 .72-.042l.386-.897.971.114a.403.403 0 0 0 .396-.603l-.22-.383c1.871.118 3.727.31 5.525.574.02.003.04.004.059.004 1.406 0 2.508-1.851 2.508-4.215 0-2.363-1.102-4.216-2.508-4.216Zm-7.86 4.608a1.518 1.518 0 0 1-.712.928 1.515 1.515 0 0 1-1.158.153 1.516 1.516 0 0 1-.926-.712 1.515 1.515 0 0 1-.152-1.157 1.531 1.531 0 0 1 1.87-1.08c.393.105.722.358.925.71.204.354.258.765.153 1.158Zm-1.301-3.427c.059.219.112.462.157.724a2.319 2.319 0 0 0-.963.065 9.748 9.748 0 0 0-.148-.771c.317.032.637.026.954-.018Zm-9.55.534c.365.661.566 1.55.566 2.501 0 .066-.001.131-.003.196a9.23 9.23 0 0 0-1.162.066c.05-.253.076-.521.076-.796 0-.894-.263-1.722-.686-2.16a1.222 1.222 0 0 0-.655-.362c.224-.222.467-.346.707-.353l.258.037c.325.102.643.406.899.87Zm-2.272 5.002c-.366-.662-.567-1.55-.567-2.5 0-.699.109-1.362.31-1.927.081-.18.23-.31.39-.338.127-.023.245.02.349.129.275.285.46.929.46 1.601 0 .408-.073.808-.206 1.125a.403.403 0 0 0 .435.554 10.02 10.02 0 0 1 1.59-.142 4.631 4.631 0 0 1-.49 1.498c-.255.464-.573.768-.897.87l-.259.037c-.396-.012-.802-.34-1.115-.907Zm2.795.684c.524-.767.85-1.9.85-3.185 0-1.285-.326-2.417-.848-3.184a69.14 69.14 0 0 0 7.319.495c.054.25.1.525.14.82a2.321 2.321 0 0 0-.766 2.75l-1.077 1.865c-1.888.07-3.77.218-5.618.439Zm7.059 1.164-.188-.435a.404.404 0 0 0-.417-.241l-.472.055 1.209-2.093c.288.294.65.507 1.059.617l.018.004-1.21 2.093Zm1.707-1.343.088-.151.098.17a3.852 3.852 0 0 0-.186-.02Zm2.488.667a.404.404 0 0 0-.417.24l-.188.436-1.21-2.092c.41-.107.781-.322 1.077-.623l1.21 2.094-.472-.055Zm8.07-1.172c-.311.564-.714.893-1.11.907a68.703 68.703 0 0 0-6.092-.607l-1.11-1.92a2.317 2.317 0 0 0-.138-2.05 2.32 2.32 0 0 0-.829-.84c-.032-.242-.07-.475-.114-.694a69.191 69.191 0 0 0 8.284-.706c.395.014.798.343 1.11.907.364.662.566 1.55.566 2.502 0 .952-.202 1.84-.567 2.5Zm-9.894-2.349a.596.596 0 1 1-1.153-.309.598.598 0 1 1 1.153.31Z" fill="#000"/><path d="M32.896 37.08a7.9 7.9 0 0 0-.157-.723c-.316.044-.637.05-.954.018.056.238.106.496.148.771a2.32 2.32 0 0 1 .963-.065Z" fill="#E53935"/><path d="m30.903 41.027-1.209 2.093.472-.055a.403.403 0 0 1 .417.24l.188.436 1.21-2.093-.02-.004a2.319 2.319 0 0 1-1.058-.617Z" fill="#E54848"/><path d="M32.478 42.398c.062.005.124.011.186.019l-.098-.17-.088.151Z" fill="#E53935"/><path d="M22.666 38.858c0 .275-.026.543-.076.796a9.21 9.21 0 0 1 1.162-.066c.002-.065.003-.13.003-.196 0-.952-.201-1.84-.566-2.502-.256-.464-.574-.768-.899-.87l-.258-.037c-.24.007-.483.13-.707.353.242.045.47.169.655.361.423.439.686 1.267.686 2.161Z" fill="#C9D6D4"/><path d="M30.313 38.786a2.32 2.32 0 0 1 .86-1.263 9.834 9.834 0 0 0-.14-.82c-2.447-.035-4.89-.2-7.32-.495.523.767.849 1.9.849 3.184 0 1.285-.326 2.418-.85 3.185a69.129 69.129 0 0 1 5.618-.439l1.077-1.865a2.314 2.314 0 0 1-.094-1.487Z" fill="#DCEAE9"/><path d="M34.04 39.785a1.516 1.516 0 0 0-.152-1.158 1.516 1.516 0 0 0-1.319-.763 1.53 1.53 0 0 0-1.477 1.132c-.106.393-.051.804.152 1.157.204.354.533.606.927.712.393.105.804.051 1.157-.153.354-.204.606-.533.712-.928Zm-.898-.24a.596.596 0 1 1-1.153-.309.598.598 0 1 1 1.153.308Z" fill="#EF5350"/><path d="M22.026 40.542a.402.402 0 0 1-.372-.559c.132-.317.205-.717.205-1.125 0-.672-.185-1.316-.46-1.601-.104-.108-.222-.152-.35-.13-.159.029-.307.158-.388.339a5.793 5.793 0 0 0-.31 1.926c0 .951.2 1.84.566 2.5.314.568.719.896 1.115.908l.26-.037c.323-.102.64-.407.897-.87a4.63 4.63 0 0 0 .488-1.498c-.48 0-.96.044-1.59.142a.41.41 0 0 1-.061.005Z" fill="#BCCECC"/><path d="M32 28.39a.403.403 0 0 1-.133-.023l-7.477-2.635v2.745c2.668 1.546 5.16 2.318 7.61 2.358 2.451-.04 4.942-.812 7.61-2.358v-2.744l-7.475 2.634a.403.403 0 0 1-.134.023Z" fill="#3E4754"/><path d="M42.673 31.297a1.34 1.34 0 0 1-.407-.063l-.58 1.705a.132.132 0 0 0-.006.042h1.985a.16.16 0 0 0-.008-.046l-.578-1.7a1.352 1.352 0 0 1-.406.062Z" fill="#FFD54F"/><path d="M41.927 35.983c-2.758.402-5.542.64-8.284.706.046.23.084.462.114.694.34.202.626.488.829.84a2.317 2.317 0 0 1 .138 2.05l1.11 1.92a68.66 68.66 0 0 1 6.093.607c.395-.014.797-.343 1.11-.907.364-.662.566-1.55.566-2.5 0-.952-.202-1.841-.567-2.502-.312-.565-.714-.894-1.11-.908Z" fill="#DCEAE9"/><path d="M32 31.641h-.005c-2.47-.038-4.963-.771-7.605-2.237v1.22c2.666 1.546 5.158 2.317 7.61 2.357 2.453-.04 4.944-.811 7.61-2.356v-1.22c-2.642 1.464-5.135 2.198-7.603 2.236h-.006Zm10.673-2.243a.546.546 0 1 0-.002 1.093.546.546 0 0 0 .002-1.093Z" fill="#FFB74D"/><path d="M33.732 41.41a2.344 2.344 0 0 1-.58.239l1.209 2.092.188-.435a.404.404 0 0 1 .417-.241l.471.055-1.208-2.093c-.148.15-.315.279-.497.384Z" fill="#E54848"/><path d="M19.617 23.195 32 27.559l12.382-4.364L32 18.831l-12.384 4.364Z" fill="#464F5E"/></svg>