<svg width="65" height="59" fill="none" xmlns="http://www.w3.org/2000/svg"><path d="m21.442 17.317-6.362.01-.017-10.722a.543.543 0 0 1 .542-.544l5.276-.008a.543.543 0 0 1 .544.543l.017 10.721Z" fill="#FFB125"/><path d="M21.425 6.596a.543.543 0 0 0-.544-.543l-3.145.005a.542.542 0 0 1 .5.538l.017 10.721-3.172.005v.004l6.362-.009-.018-10.721Z" fill="#FF901D"/><path d="M31.963 5.86 14.921 21.913l.034 24.407a1.166 1.166 0 0 0 1.167 1.164l31.798-.045a1.166 1.166 0 0 0 1.164-1.167l-.034-24.407L31.963 5.86Z" fill="#E1EFFB"/><path d="M49.05 21.866 31.965 5.86l-2.81 2.648 14.26 13.36.035 24.406a1.166 1.166 0 0 1-1.164 1.167h5.636a1.166 1.166 0 0 0 1.164-1.167l-.034-24.407Z" fill="#CCDFED"/><path d="M55.063 27.244a2.336 2.336 0 0 1-1.606-.633L31.964 6.476 10.526 26.671a2.344 2.344 0 1 1-3.214-3.412l23.04-21.704c.9-.849 2.306-.85 3.21-.005l23.1 21.64a2.343 2.343 0 0 1-1.6 4.054Z" fill="#FF4C4C"/><path d="M56.77 23.684a2.337 2.337 0 0 1-1.707.741 2.336 2.336 0 0 1-1.605-.633L31.964 3.657 10.527 23.852a2.344 2.344 0 0 1-3.478-.295 2.342 2.342 0 0 0 3.478 3.114L31.964 6.476l21.494 20.135a2.336 2.336 0 0 0 2.535.44 2.343 2.343 0 0 0 .937-3.558c-.05.066-.103.13-.16.191Z" fill="#F33939"/><path d="m36.372 25.98-8.761.012a.744.744 0 0 0-.743.745l.029 20.733 10.25-.015-.03-20.732a.744.744 0 0 0-.745-.743Z" fill="#2D5871"/><path d="M37.117 26.723a.744.744 0 0 0-.745-.743l-4.95.007a.745.745 0 0 1 .522.71l.029 20.766 5.173-.008-.029-20.732Z" fill="#1D4859"/><path d="m58.727 36.99-12.913 8.643-3.848-.216-.151-1.515a4.917 4.917 0 0 0-4.204-4.382L27.3 38.333a18.484 18.484 0 0 1-6.743-2.347 18.48 18.48 0 0 0-9.331-2.529H3.792v16.97l19.648 7.44a5.33 5.33 0 0 0 2.284.152l.014-.002 19.781-2.852a8.752 8.752 0 0 0 4.153-1.86l12.785-11.498a3.053 3.053 0 0 0-3.73-4.817Z" fill="#FED9A8"/><path d="M63.122 38.089 50.485 48.726c-1.196.975-3.184 1.617-4.707 1.86l-20.04 1.433a5.35 5.35 0 0 1-2.298-.15L3.792 44.43v5.998l19.648 7.44a5.626 5.626 0 0 0 1.423.212c.293.005.586-.016.875-.062l19.781-2.851a8.763 8.763 0 0 0 4.153-1.86l12.785-11.5a3.052 3.052 0 0 0 .665-3.717Z" fill="#F4C892"/><path d="M6.297 56.19H3.356a2.436 2.436 0 0 1-2.437-2.436V31.987a2.437 2.437 0 0 1 2.437-2.437h2.941a2.437 2.437 0 0 1 2.437 2.437v21.767a2.436 2.436 0 0 1-2.437 2.437Z" fill="#2D5871"/><path d="M6.297 29.55H3.356c-.166 0-.327.017-.483.049a2.437 2.437 0 0 1 1.953 2.388v21.767c0 1.18-.839 2.164-1.953 2.389.156.031.317.048.483.048h2.941a2.436 2.436 0 0 0 2.437-2.437V31.987a2.437 2.437 0 0 0-2.437-2.437Z" fill="#1D4859"/><path d="M63.713 37.29a3.98 3.98 0 0 0-5.497-1.063l-8.218 5.5-.024-17.12 2.855 2.675a3.25 3.25 0 0 0 2.23.881h.005a3.274 3.274 0 0 0 2.377-1.032 3.242 3.242 0 0 0 .88-2.337 3.242 3.242 0 0 0-1.03-2.275l-5.414-5.07a.92.92 0 0 0-1.257 1.341l5.413 5.071a1.415 1.415 0 0 1 .45.993 1.414 1.414 0 0 1-.384 1.02 1.41 1.41 0 0 1-1.038.45h-.002c-.363 0-.708-.136-.973-.384l-4.406-4.127L32.592 5.805a.92.92 0 0 0-1.258.002L14.29 21.861l-4.395 4.14a1.417 1.417 0 0 1-1.019.388 1.413 1.413 0 0 1-.994-.448 1.414 1.414 0 0 1-.387-1.019 1.415 1.415 0 0 1 .447-.994l23.04-21.704a1.426 1.426 0 0 1 1.95-.003l13.48 12.628a.92.92 0 0 0 1.547-.701.92.92 0 0 0-.29-.641L34.19.88a3.268 3.268 0 0 0-4.468.006l-7.376 6.948-.002-1.24a1.453 1.453 0 0 0-.43-1.033 1.453 1.453 0 0 0-1.032-.427h-.002l-5.276.008a1.453 1.453 0 0 0-1.033.43 1.453 1.453 0 0 0-.427 1.034l.014 8.941-7.476 7.043a3.241 3.241 0 0 0-1.024 2.278 3.24 3.24 0 0 0 .887 2.334 3.24 3.24 0 0 0 2.377 1.026c.835 0 1.625-.313 2.235-.888l2.849-2.684.01 8.087a19.369 19.369 0 0 0-2.79-.205H9.653v-.551a3.36 3.36 0 0 0-3.356-3.356H3.356A3.36 3.36 0 0 0 0 31.987V46.39a.92.92 0 0 0 1.838 0V31.987c0-.837.681-1.517 1.518-1.517h2.941c.837 0 1.518.68 1.518 1.517v21.767a1.52 1.52 0 0 1-1.518 1.518H3.356a1.52 1.52 0 0 1-1.518-1.518v-1.608a.919.919 0 1 0-1.838 0v1.608a3.36 3.36 0 0 0 3.356 3.356h2.941a3.36 3.36 0 0 0 3.356-3.356v-.125l13.461 5.098c.025.01.05.018.076.025.585.165 1.17.248 1.748.248a5.9 5.9 0 0 0 .93-.073l19.782-2.852.014-.002a9.685 9.685 0 0 0 4.622-2.084l12.78-11.495a3.98 3.98 0 0 0 .647-5.204ZM20.507 6.973l.004 2.59-4.517 4.255-.011-6.839 4.524-.006ZM15.856 33.1l-.014-10.172 16.123-15.19 16.168 15.146.028 20.073-2.603 1.742-2.755-.155-.073-.732a5.82 5.82 0 0 0-4.677-5.147l-.016-11.942a1.666 1.666 0 0 0-1.664-1.661h-.002l-8.761.012a1.65 1.65 0 0 0-1.176.489 1.654 1.654 0 0 0-.486 1.177l.015 10.412a17.47 17.47 0 0 1-4.942-1.958 19.067 19.067 0 0 0-.585-.328c-.077-.042-.155-.08-.232-.121-.12-.063-.24-.126-.36-.186l-.291-.139c-.103-.049-.206-.098-.31-.145a15.352 15.352 0 0 0-.319-.14l-.292-.125a20.747 20.747 0 0 0-1.918-.675 19.655 19.655 0 0 0-.678-.186c-.06-.016-.12-.034-.18-.049Zm11.931-6.188L36.2 26.9l.016 11.535-7.689-.885-.724-.084-.015-10.554Zm34.055 14.212L49.074 52.606a7.843 7.843 0 0 1-3.693 1.651l-19.774 2.85-.012.002-.014.002a4.38 4.38 0 0 1-1.854-.118l-14.074-5.33V34.377h1.573a17.551 17.551 0 0 1 4.584.61l.041.012c.158.043.316.089.473.136l.085.026c.167.052.334.106.5.162l.05.018a17.556 17.556 0 0 1 2.073.868l.055.027c.155.078.309.158.461.24.03.015.058.031.087.047.153.084.307.169.458.258a19.311 19.311 0 0 0 7.102 2.466l10.298 1.186a3.986 3.986 0 0 1 3.407 3.561l.041.411-19.302-1.69a.918.918 0 0 0-.996.835.92.92 0 0 0 .836.995l20.406 1.789h.015l.014.002 3.849.216a.89.89 0 0 0 .051 0l.054-.003c.02-.001.041-.002.062-.005a.891.891 0 0 0 .08-.015c.02-.004.04-.007.058-.013.03-.008.058-.02.087-.031l.046-.018a.92.92 0 0 0 .124-.07l3.267-2.186 9.648-6.456a2.138 2.138 0 0 1 2.953.57 2.14 2.14 0 0 1-.351 2.8Z" fill="#000"/></svg>