<svg width="69" height="79" fill="none" xmlns="http://www.w3.org/2000/svg"><path fill-rule="evenodd" clip-rule="evenodd" d="M62.336 44.162c4.042 17.368-11.607 24.2-13.455 24.94-.08.033-.154.06-.172.068l-.01.002-13.733 3.188-.09.02-.137.024-.151.035a31.46 31.46 0 0 1-3.037.315c-5.335.291-15.339-.327-18.376-8.763-2.544-7.063-.285-11.409 2.483-17.16 2.232-4.637-1.574-9.843-1.606-9.894.092.026 5.97 1.678 7.786 3.84a19.016 19.016 0 0 1 2.373 3.307c-.071-.196-3.256-8.935-.013-16.064 3.28-7.206 3.83-9.316 3.19-12.464a21.478 21.478 0 0 0-3.828-7.172 37.525 37.525 0 0 1 13.91 8.657 24.156 24.156 0 0 1 6.38 11.042 12.648 12.648 0 0 0 1.802-4.912 14.57 14.57 0 0 0-1.009-5.7l4.013 4.225c4.6 5.158 11.755 14.198 13.68 22.466Z" fill="#D75C1E"/><path fill-rule="evenodd" clip-rule="evenodd" d="M62.336 44.162c-1.925-8.268-9.08-17.308-13.684-22.458L44.64 17.48a14.57 14.57 0 0 1 1.009 5.7 12.623 12.623 0 0 1-1.803 4.912 24.149 24.149 0 0 0-6.379-11.042 43.584 43.584 0 0 0-5.064-4.117c.303 2.644-.463 5.03-3.364 11.405-3.245 7.128-.06 15.867.012 16.062a19.13 19.13 0 0 0-2.373-3.307 11.245 11.245 0 0 0-3.923-2.465 27.707 27.707 0 0 0 1.453 9.458 19.016 19.016 0 0 0-2.373-3.307 4.65 4.65 0 0 0-.638-.616 7.185 7.185 0 0 1-.698 2.985c-2.768 5.75-5.028 10.098-2.484 17.16 3.037 8.436 13.04 9.054 18.374 8.745a29.7 29.7 0 0 0 3.415-.376l13.743-3.19.008-.002.168-.067a23.732 23.732 0 0 0 3.167-1.597c4.047-3.931 7.637-10.247 5.447-19.658Z" fill="#F60"/><path fill-rule="evenodd" clip-rule="evenodd" d="M51.78 57.712c1.86 8.037-2.435 11.088-2.9 11.39-.079.033-.153.06-.171.068l-.01.002-13.733 3.188-.09.02-.137.024-.151.035a5.583 5.583 0 0 1-5.067-1.921 17.388 17.388 0 0 1-1.113-1.461 8.077 8.077 0 0 1-.811-1.576c-1.331-3.445.048-7.347 1.165-9.443 2.719-4.74 5.185-7.533 5.104-12.14a20.884 20.884 0 0 0-1.16-5.77 18.436 18.436 0 0 1 6.845 4.26 11.882 11.882 0 0 1 3.139 5.432 6.23 6.23 0 0 0 .885-2.434 7.172 7.172 0 0 0-.497-2.804s7.283 6.995 8.702 13.13Z" fill="#FF8300"/><path fill-rule="evenodd" clip-rule="evenodd" d="M43.074 44.583c.352.892.52 1.845.497 2.803a6.226 6.226 0 0 1-.887 2.417 11.898 11.898 0 0 0-3.139-5.432c-.3-.284-.6-.55-.903-.8-.376 3.83-2.61 6.516-5.05 10.766-1.114 2.1-2.493 6.002-1.163 9.443.032.084.093.216.18.388a7.956 7.956 0 0 0 8.747 4.08l3.092-.653 1.245-.29a8.026 8.026 0 0 0 6.106-9.481l-.027-.115c-1.411-6.132-8.698-13.126-8.698-13.126Z" fill="#FFA511"/><path d="M49.413 20.982 45.4 16.757a1.047 1.047 0 0 0-1.727 1.119c.652 1.657.971 3.428.937 5.209a8.836 8.836 0 0 1-.548 2.221 24.566 24.566 0 0 0-5.874-9.02 38.266 38.266 0 0 0-14.345-8.91 1.055 1.055 0 0 0-1.158.432 1.042 1.042 0 0 0 .058 1.233 20.555 20.555 0 0 1 3.62 6.723c.581 2.861.057 4.85-3.117 11.824a21.307 21.307 0 0 0-1.232 11.895c-2.346-2.02-7.094-3.387-7.68-3.55a1.049 1.049 0 0 0-1.126 1.627c.036.048 3.446 4.797 1.51 8.82l-.221.454c-2.645 5.488-4.93 10.224-2.306 17.512 4.46 12.385 22.214 9.185 22.968 9.044a1.05 1.05 0 0 0 .396-1.895 1.05 1.05 0 0 0-.785-.164c-.168.032-16.755 3.011-20.609-7.696-2.326-6.46-.418-10.417 2.223-15.893l.22-.457a10.128 10.128 0 0 0-.32-8.506 13.134 13.134 0 0 1 4.753 2.67 18.62 18.62 0 0 1 2.234 3.091 1.046 1.046 0 0 0 1.925-.819c-.031-.084-3.1-8.548-.041-15.268 3.224-7.083 3.991-9.512 3.262-13.107a15.841 15.841 0 0 0-2.027-4.705 40.433 40.433 0 0 1 10.361 7.165 23.311 23.311 0 0 1 6.075 10.51 1.049 1.049 0 0 0 1.9.341 13.623 13.623 0 0 0 1.967-5.379 10.13 10.13 0 0 0-.053-2.174l1.235 1.301c4.203 4.701 11.538 13.82 13.441 21.996 2.78 11.94-4.124 18.606-8.893 21.676a13.859 13.859 0 0 0 .38-8.6c-1.472-6.366-8.698-13.355-9-13.65a1.048 1.048 0 0 0-1.698 1.148c.196.51.331 1.04.404 1.581a11.896 11.896 0 0 0-2.242-2.946 19.384 19.384 0 0 0-7.278-4.509 1.046 1.046 0 0 0-1.267 1.367c.615 1.751.984 3.58 1.095 5.432.065 3.357-1.362 5.671-3.331 8.875-.52.846-1.072 1.745-1.652 2.755-.707 1.328-2.881 6-1.215 10.315a9.05 9.05 0 0 0 .916 1.778 1.046 1.046 0 1 0 1.736-1.16c-.284-.43-.52-.89-.705-1.372-1.346-3.486.511-7.448 1.096-8.549a90.763 90.763 0 0 1 1.602-2.666c2.081-3.375 3.713-6.037 3.641-10.008a18.364 18.364 0 0 0-.572-3.93c1.64.85 3.153 1.927 4.492 3.2a10.914 10.914 0 0 1 2.836 4.9 1.047 1.047 0 0 0 1.899.342 7.31 7.31 0 0 0 1.023-2.657c2.193 2.499 5.33 6.574 6.176 10.231 1.75 7.572-2.416 10.216-2.586 10.32a1.047 1.047 0 0 0 .768 1.918c.042-.01.084-.02.125-.036.187-.07 18.742-7.102 14.29-26.23-1.91-8.2-8.623-16.99-13.943-22.944Z" fill="#000"/></svg>