<svg width="18" height="17" fill="none" xmlns="http://www.w3.org/2000/svg"><path d="m5.905 4.939 1.92-3.825a.89.89 0 0 1 1.593.006l1.815 3.69a.982.982 0 0 0 .77.546l3.796.456a.95.95 0 0 1 .825 1.053.951.951 0 0 1-.276.56l-3.003 2.962a.544.544 0 0 0-.16.459l.502 3.995a1.044 1.044 0 0 1-1.527 1.05l-3.171-1.733a.784.784 0 0 0-.738-.01l-3.288 1.687A.937.937 0 0 1 3.7 15.42a.932.932 0 0 1-.093-.56l.261-1.836a2.79 2.79 0 0 1 1.488-2.088l3.648-1.863a.2.2 0 0 0-.117-.375l-4.464.642a2.47 2.47 0 0 1-1.908-.534L1.03 7.594a1.001 1.001 0 0 1-.147-1.401c.162-.198.393-.327.645-.36l3.81-.49a.745.745 0 0 0 .567-.404Z" fill="url(#a)"/><path d="M9.283 1.795a.886.886 0 0 0-.984.471L6.376 6.091a.74.74 0 0 1-.567.405L2 6.988a.992.992 0 0 0-.63.342l1.41 1.152a2.05 2.05 0 0 0 1.587.44l4.461-.638a.616.616 0 0 1 .639.333.621.621 0 0 1-.27.83l-1.164.595 1.326-.192a.197.197 0 0 1 .204.108.198.198 0 0 1-.087.267l-3.648 1.863a2.79 2.79 0 0 0-1.488 2.088l-.17 1.19a.522.522 0 0 0 .605.094l3.282-1.686c.357-.183.78-.177 1.131.015l3.17 1.734a.628.628 0 0 0 .376.072.626.626 0 0 0 .537-.7l-.498-3.998a.967.967 0 0 1 .279-.807l3.003-2.961a.536.536 0 0 0 .117-.177l-3.696-.444a.993.993 0 0 1-.771-.546l-.144-.297a1.41 1.41 0 0 1-.702-.669l-1.575-3.2Z" fill="url(#b)"/><path d="M9.211.343a1.305 1.305 0 0 0-1.758.582L5.53 4.753a.317.317 0 0 1-.246.174l-3.81.492a1.416 1.416 0 0 0-.711 2.499l1.488 1.215c.627.51 1.434.735 2.232.62l3.153-.452-2.472 1.263a3.198 3.198 0 0 0-1.71 2.4L3.19 14.8a1.363 1.363 0 0 0 1.965 1.407L8.44 14.52a.362.362 0 0 1 .345.006l3.17 1.73c.268.148.577.208.88.169A1.466 1.466 0 0 0 14.1 14.79l-.498-4a.13.13 0 0 1 .036-.107l3.003-2.961a1.363 1.363 0 0 0-.792-2.325l-3.798-.456a.572.572 0 0 1-.444-.315L9.796.934a1.327 1.327 0 0 0-.585-.59ZM8.2 1.3a.47.47 0 0 1 .843.006l1.815 3.69c.21.43.62.72 1.095.777l3.798.456a.525.525 0 0 1 .456.585.54.54 0 0 1-.153.315l-3.003 2.96a.968.968 0 0 0-.28.808l.499 3.999a.626.626 0 0 1-.537.699.627.627 0 0 1-.375-.072l-3.171-1.734a1.207 1.207 0 0 0-1.131-.012l-3.285 1.686a.521.521 0 0 1-.75-.546l.261-1.833a2.367 2.367 0 0 1 1.263-1.773l3.648-1.863a.62.62 0 0 0-.366-1.164l-4.464.639a2.042 2.042 0 0 1-1.584-.441L1.294 7.267A.576.576 0 0 1 1.58 6.25l3.81-.492a1.16 1.16 0 0 0 .891-.63L8.2 1.3Z" fill="url(#c)"/><defs><linearGradient id="a" x1="8.647" y1=".622" x2="8.647" y2="16.017" gradientUnits="userSpaceOnUse"><stop stop-color="#FFF0C2"/><stop offset="1" stop-color="#FFEBBA"/></linearGradient><linearGradient id="b" x1="8.77" y1="1.774" x2="12.994" y2="15.598" gradientUnits="userSpaceOnUse"><stop stop-color="#FFD147"/><stop offset="1" stop-color="#FFB526"/></linearGradient><linearGradient id="c" x1="8.647" y1=".202" x2="12.352" y2="16.435" gradientUnits="userSpaceOnUse"><stop stop-color="#E58F0D"/><stop offset="1" stop-color="#EB7814"/></linearGradient></defs></svg>