<svg width="10" height="10" fill="none" xmlns="http://www.w3.org/2000/svg"><g clip-path="url(#a)"><path d="M9.583 9.167V3.958a.208.208 0 0 0-.126-.191L6.54 2.517a.208.208 0 0 0-.29.191v6.459h-.417V.313A.312.312 0 0 0 5.41.02L1.035 1.687a.313.313 0 0 0-.202.292v7.188H.417a.417.417 0 0 0 0 .833h9.166a.417.417 0 0 0 0-.833Zm-1.25-3.854a.313.313 0 0 1 .625 0v.625a.312.312 0 1 1-.625 0v-.625Zm0 2.5a.313.313 0 0 1 .625 0v.625a.312.312 0 1 1-.625 0v-.625Zm-1.458-2.5a.312.312 0 1 1 .625 0v.625a.312.312 0 1 1-.625 0v-.625Zm0 2.5a.312.312 0 1 1 .625 0v.625a.312.312 0 1 1-.625 0v-.625Zm-2.917-5a.313.313 0 0 1 .625 0v.625a.312.312 0 1 1-.625 0v-.625Zm0 2.5a.313.313 0 0 1 .625 0v.625a.312.312 0 1 1-.625 0v-.625Zm0 2.5a.313.313 0 0 1 .625 0v.625a.312.312 0 1 1-.625 0v-.625Zm-1.875-5a.313.313 0 0 1 .625 0v.625a.312.312 0 1 1-.625 0v-.625Zm0 2.5a.313.313 0 0 1 .625 0v.625a.312.312 0 1 1-.625 0v-.625Zm0 2.5a.313.313 0 0 1 .625 0v.625a.312.312 0 1 1-.625 0v-.625Z" fill="#667791"/></g><defs><clipPath id="a"><path fill="#fff" d="M0 0h10v10H0z"/></clipPath></defs></svg>