<svg width="10" height="10" fill="none" xmlns="http://www.w3.org/2000/svg"><g clip-path="url(#a)"><path fill-rule="evenodd" clip-rule="evenodd" d="M1.953 0h6.094A1.957 1.957 0 0 1 10 1.953v6.094A1.957 1.957 0 0 1 8.047 10H1.953A1.957 1.957 0 0 1 0 8.047V1.953A1.957 1.957 0 0 1 1.953 0Zm.117 7.564a.366.366 0 0 0 .367.366h1.916a.366.366 0 1 0 0-.733H3.321l1.363-1.363a.366.366 0 1 0-.518-.518L2.803 6.679V5.647a.366.366 0 0 0-.733 0v1.917Zm5.86-5.127a.366.366 0 0 0-.367-.367H5.647a.366.366 0 1 0 0 .733h1.032L5.316 4.166a.366.366 0 1 0 .518.518l1.363-1.363v1.032a.366.366 0 0 0 .733 0V2.437Z" fill="#667791"/></g><defs><clipPath id="a"><path fill="#fff" d="M0 0h10v10H0z"/></clipPath></defs></svg>