<svg width="44" height="44" fill="none" xmlns="http://www.w3.org/2000/svg"><g clip-path="url(#a)"><path d="M2.75 2.994C-.708 6.585 0 10.4 0 21.99c0 9.625-1.68 19.274 7.11 21.545 2.744.706 27.062.706 29.802-.004 3.66-.944 6.637-3.912 7.044-9.087.057-.723.057-24.173-.002-24.91-.432-5.513-3.826-8.69-8.297-9.333C34.632.053 34.427.009 29.168 0 10.518.01 6.43-.821 2.75 2.994Z" fill="url(#b)"/><path d="M21.996 5.755c-6.656 0-12.978-.592-15.392 5.604-.998 2.56-.853 5.883-.853 10.643 0 4.176-.134 8.101.853 10.64 2.409 6.2 8.781 5.607 15.389 5.607 6.374 0 12.947.663 15.39-5.607 1-2.585.853-5.859.853-10.64 0-6.347.35-10.445-2.728-13.521-3.117-3.117-7.331-2.726-13.519-2.726h.007Zm-1.455 2.928c13.885-.022 15.653-1.566 14.677 19.879-.346 7.584-6.121 6.752-13.22 6.752-12.943 0-13.315-.37-13.315-13.32C8.683 8.895 9.709 8.69 20.54 8.68v.004Zm10.127 2.697a1.949 1.949 0 1 0 0 3.897 1.949 1.949 0 0 0 0-3.897Zm-8.672 2.278A8.341 8.341 0 0 0 16.1 27.901a8.342 8.342 0 1 0 5.897-14.243Zm0 2.928c7.16 0 7.169 10.832 0 10.832-7.157 0-7.168-10.832 0-10.832Z" fill="#fff"/></g><defs><linearGradient id="b" x1="2.834" y1="41.19" x2="43.728" y2="5.797" gradientUnits="userSpaceOnUse"><stop stop-color="#FD5"/><stop offset=".5" stop-color="#FF543E"/><stop offset="1" stop-color="#C837AB"/></linearGradient><clipPath id="a"><path fill="#fff" d="M0 0h44v44H0z"/></clipPath></defs></svg>