<svg width="98" height="98" fill="none" xmlns="http://www.w3.org/2000/svg"><g clip-path="url(#a)"><path fill-rule="evenodd" clip-rule="evenodd" d="M45.78 53.565c-3.265 2.782-3.208 10.527-3.138 19.511l.012 2.548.007.98c.038 8.492.158 15.756 2.163 19.012.665 1.082 1.917 1.872 3.581 2.346.43.013.86.032 1.297.032 4.125 0 8.13-.506 11.958-1.454 1.588-.76 2.733-1.676 3.125-2.63.234-.62.367-1.752.367-3.219 0-5.88-1.746-17.14-2.581-22.565l-.424-2.845-.082-.563-.12-.822c-.71-4.83-1.892-10.015-10.661-11.368-2.442-.386-4.239-.032-5.504 1.037Zm-15.545 36.43c.291 2.27.753 3.996 1.36 5.097.905.366 1.829.708 2.765 1.018.823-.728 1.341-2.757 1.17-7.695-.246-7.088-1.467-16.432-3.365-16.325-2.05.126-2.828 10.786-1.93 17.906ZM71.91 72.464c-2.297 1.138-1.405 14.194.962 18.355.246.417.752.486 1.322.392a45.78 45.78 0 0 0 5.118-3.579c.209-.424.373-.923.493-1.574.443-2.258-4.909-15.035-7.895-13.594ZM0 48.551c0 16.262 8.085 30.646 20.486 39.453.329-.38.575-1.385.784-2.22l.064-.334.265-1.189c1.006-4.717 1.202-9.338.645-14.807-.347-3.535-.892-5.646-1.404-7.486-.519-1.998-.962-3.724-.924-6.405.032-2.422.532-4.097 1.076-5.88.626-2.03 1.328-4.325 1.43-8.308.265-7.726 1.069-9.648 3.39-11.893 2.31-2.232 3.019-3.161 3.019-4.805 0-1.637-2.183-5.38 1.657-9.32 2.474-2.516 4.878-3.433 6.605-3.433.974 0 1.74.291 2.183.753 1.234 1.283.886 3.774-1.575 7.068-2.462 3.313-2.386 4.755-2.24 5.514.152.771.905 1.802 2.347 2.92 1.101.892 2.379 1.904 3.201 3.364 1.557 2.763 2.455 5.406 3.702 9.054l.348 1.037.158.405c1.214 2.89 4.15 3.913 9.211 3.913 5.258 0 10.838-3.414 10.838-6.044 0-2.611-1.088-2.934-1.088-5.178 0-2.245 3.372-8.719 8.458-8.719 2.594 0 3.942 1.872 2.69 4.457-1.228 2.561-3.714 6.216-3.714 7.828 0 2.984 4.466.676 7.269-1.612 2.853-2.295 3.48-2.934 5.44-6.36 1.19-2.119 2.892-2.524 4.018-1.967 1.253.62 2.044 2.46.911 5.09-.885 2.042-3.296 4.634-5.833 7.384-3.404 3.661-7.244 7.821-7.244 10.49 0 13.587 7.7 25.442 8.592 26.744.866 1.29 1.34 1.72 1.6 1.846 7.2-8.409 11.572-19.277 11.622-31.151v-.424l-.012-.904C97.38 21.136 75.68.006 48.994.006 21.934.006 0 21.743 0 48.551Z" fill="#fff"/></g><defs><clipPath id="a"><path fill="#fff" d="M0 0h98v98H0z"/></clipPath></defs></svg>