<svg width="14" height="12" fill="none" xmlns="http://www.w3.org/2000/svg"><path d="M7 11.533a1.75 1.75 0 0 1-.946-.277c-.801-.514-2.341-1.571-3.644-2.861C.81 6.81 0 5.318 0 3.958c0-.944.28-1.81.808-2.503A3.69 3.69 0 0 1 5.225.31C5.904.603 6.51 1.097 7 1.752 7.49 1.095 8.096.602 8.775.31a3.69 3.69 0 0 1 4.417 1.145c.529.693.808 1.559.808 2.503 0 1.36-.81 2.852-2.41 4.436-1.303 1.29-2.842 2.346-3.644 2.861a1.75 1.75 0 0 1-.946.278ZM3.737.803c-.253 0-.505.033-.75.1A2.913 2.913 0 0 0 1.445 1.94C1.024 2.493.8 3.191.8 3.96c0 1.138.73 2.438 2.172 3.866 1.25 1.238 2.738 2.259 3.514 2.755a.952.952 0 0 0 1.025 0c.775-.498 2.263-1.518 3.513-2.755 1.442-1.428 2.173-2.728 2.173-3.866 0-.77-.223-1.466-.644-2.019A2.913 2.913 0 0 0 11.012.902C9.917.605 8.379.916 7.344 2.68a.4.4 0 0 1-.69 0C5.84 1.29 4.713.803 3.736.803Z" fill="#CFD4DC"/></svg>