<svg width="64" height="64" fill="none" xmlns="http://www.w3.org/2000/svg"><path d="M22.154 0H7.384A7.385 7.385 0 0 0 0 7.385v14.769a7.385 7.385 0 0 0 7.385 7.384h14.769a7.385 7.385 0 0 0 7.384-7.384V7.384A7.385 7.385 0 0 0 22.154 0Zm34.461 0H41.846a7.385 7.385 0 0 0-7.385 7.385v14.769a7.385 7.385 0 0 0 7.385 7.384h14.77A7.385 7.385 0 0 0 64 22.154V7.384A7.385 7.385 0 0 0 56.615 0ZM22.154 34.462H7.384A7.385 7.385 0 0 0 0 41.846v14.77A7.385 7.385 0 0 0 7.385 64h14.769a7.385 7.385 0 0 0 7.384-7.385V41.846a7.385 7.385 0 0 0-7.384-7.384ZM49.23 64C57.389 64 64 57.388 64 49.23c0-8.156-6.612-14.768-14.77-14.768-8.156 0-14.769 6.612-14.769 14.769S41.074 64 49.231 64Z" fill="#0049E8"/></svg>