<svg width="54" height="64" fill="none" xmlns="http://www.w3.org/2000/svg"><path d="m1.866 40.54.021.022 22.375 22.404c.178.176.374.333.586.468l.644.352.44.146h.321c.494.09 1 .09 1.494 0h.644l.498-.264c.278-.15.534-.337.762-.556l22.462-22.55a3.836 3.836 0 0 0 .022-5.426l-.022-.022a3.924 3.924 0 0 0-5.418 0L33.311 48.47a1.464 1.464 0 0 1-2.489-1.025V3.837a3.837 3.837 0 0 0-7.673 0v43.607a1.464 1.464 0 0 1-2.49 1.025L7.336 35.114a3.924 3.924 0 0 0-5.448 0 3.836 3.836 0 0 0-.021 5.426Z" fill="#DC3545"/></svg>