<svg width="52" height="52" fill="none" xmlns="http://www.w3.org/2000/svg"><g clip-path="url(#a)" fill-rule="evenodd" clip-rule="evenodd"><path opacity=".961" d="M23.613-.05h4.57c1.675.168 3.333.49 4.977.964.352.218.487.54.406.965-.172.358-.46.527-.863.508-4.67-1.26-9.325-1.21-13.965.152a19.71 19.71 0 0 0-3.148 1.27C8.474 7.32 3.955 12.94 2.03 20.668.803 26.83 1.7 32.653 4.722 38.137a25.681 25.681 0 0 0 3.25 4.367 17.47 17.47 0 0 0 2.843 2.64 21.934 21.934 0 0 0 6.5 3.657c7.81 2.782 15.224 1.953 22.243-2.489 7.577-5.422 11.183-12.819 10.816-22.19a21.69 21.69 0 0 0-1.574-6.806 21.934 21.934 0 0 0-3.657-6.5 17.47 17.47 0 0 0-2.64-2.843 25.681 25.681 0 0 0-4.367-3.25A24.916 24.916 0 0 0 35.09 3.25a1.265 1.265 0 0 1-.305-1.066.983.983 0 0 1 1.016-.356c7.782 3.347 12.877 9.086 15.285 17.215a40.85 40.85 0 0 1 .863 4.57v4.672c-1.063 9.032-5.498 15.854-13.304 20.465a27.555 27.555 0 0 1-10.36 3.2h-4.672C14.61 50.842 7.788 46.407 3.148 38.643A27.554 27.554 0 0 1-.05 28.285v-4.672C1.254 13.37 6.603 6.107 15.996 1.828A29.87 29.87 0 0 1 23.613-.05Z" fill="#010100"/><path d="m33.566 1.879 1.22.305c-.062.408.04.763.304 1.066 1.053.424 2.068.915 3.047 1.473L35.19 7.77c-8.257-3.732-15.874-2.733-22.851 2.996-5.989 5.8-7.97 12.758-5.942 20.87.388 1.216.845 2.4 1.372 3.555l-2.336 2.235c-3.896-7.97-3.778-15.891.355-23.766 2.411-4.154 5.678-7.438 9.8-9.851a19.661 19.661 0 0 1 3.15-1.27c4.64-1.362 9.294-1.412 13.964-.152.403.02.69-.15.863-.508Z" fill="#FDDC4F"/><path d="M15.59 3.809c-4.123 2.413-7.39 5.697-9.8 9.851-4.134 7.875-4.253 15.796-.356 23.766-.204.27-.44.508-.711.71C1.7 32.654.803 26.83 2.03 20.669 3.955 12.941 8.474 7.321 15.59 3.808Z" fill="#EAC802"/><path d="M38.137 4.723a25.681 25.681 0 0 1 4.367 3.25 56.281 56.281 0 0 0-2.844 2.843 26.72 26.72 0 0 0-4.469-3.046l2.946-3.047Z" fill="#FDE892"/><path d="M35.191 7.77a26.72 26.72 0 0 1 4.47 3.046 26.957 26.957 0 0 1 2.64 2.946 23.322 23.322 0 0 1 3.351 6.906c1.771 7.973-.26 14.794-6.093 20.465-5.564 4.649-11.894 6.155-18.993 4.52a24.508 24.508 0 0 1-6.804-3.352 26.978 26.978 0 0 1-2.946-2.64 26.721 26.721 0 0 1-3.046-4.47 32.14 32.14 0 0 1-1.372-3.554c-2.027-8.113-.047-15.07 5.942-20.871 6.977-5.73 14.594-6.728 22.851-2.996Z" fill="#050301"/><path d="M32.348 8.277a21.939 21.939 0 0 1 6.297 4.977 152.983 152.983 0 0 0-3.352 3.3.247.247 0 0 1-.203.052 7.44 7.44 0 0 0-2.59-2.641l-.102-2.945c-.707-1.581-1.909-2.208-3.605-1.88-.409.17-.781.39-1.117.66-.813-.123-1.524.08-2.133.61-.826-1.15-1.943-1.573-3.352-1.27-.408.17-.78.39-1.117.66-2.011-.052-2.892.93-2.64 2.946a2.901 2.901 0 0 0-1.829.813c-2.011-.071-2.84.876-2.488 2.843.535.987 1.365 1.393 2.488 1.22.068 0 .102.033.102.1v16.454c0 .067-.034.101-.102.101-2.227-.008-3.005 1.041-2.335 3.149a6.973 6.973 0 0 1-1.727 1.726C7.846 34.146 6.204 28.255 7.617 21.48c1.936-6.912 6.32-11.465 13.153-13.66a21.4 21.4 0 0 1 9.14-.304c.843.168 1.655.421 2.438.761Z" fill="#FDBC00"/><path d="M42.504 7.973a17.47 17.47 0 0 1 2.64 2.843 29.123 29.123 0 0 1-2.843 2.946 26.968 26.968 0 0 0-2.64-2.946 56.281 56.281 0 0 1 2.843-2.843Z" fill="#FDDC4F"/><path d="M32.348 8.277c3.575 1.29 6.503 3.457 8.785 6.5 4.142 6.084 4.752 12.516 1.828 19.297-2.286 4.47-5.756 7.652-10.41 9.547 8.408-4.969 11.844-12.315 10.308-22.039-.738-3.136-2.143-5.912-4.215-8.328a21.94 21.94 0 0 0-6.296-4.977Z" fill="#F18B00"/><path d="M35.09 16.605c1.348 2.6 1.348 5.207 0 7.82 3.318 3.039 3.978 6.593 1.98 10.665-1.073 1.785-2.596 3.003-4.57 3.656a17.148 17.148 0 0 1-.203 2.336c-.733 1.441-1.9 2-3.504 1.676a4.583 4.583 0 0 1-1.117-.66c-.696-.852-.967-1.833-.813-2.946h-1.015a5.582 5.582 0 0 1-.305 2.336c-.826 1.15-1.943 1.574-3.352 1.27a4.585 4.585 0 0 1-1.117-.66c-.695-.852-.966-1.833-.812-2.946h-1.828a2.894 2.894 0 0 1-1.829-.812c-1.083-1.356-1.083-2.71 0-4.063.068 0 .102-.034.102-.101a2.736 2.736 0 0 1 1.828-.711 6.19 6.19 0 0 1 .05-1.117c.189-.34.476-.475.864-.407a.7.7 0 0 1 .559.407c.068.71.068 1.422 0 2.133a1.17 1.17 0 0 1-.356.456l-1.422.102c-1.061.604-1.197 1.382-.406 2.336l.406.203 3.149.102.355.355c.01.888.077 1.768.203 2.64.544.674 1.204.793 1.981.356.157-.16.275-.346.355-.558l.102-2.336a1.17 1.17 0 0 1 .355-.457 25.99 25.99 0 0 1 3.25 0l.356.355c.009.888.077 1.768.203 2.64.543.674 1.204.793 1.98.356a1.59 1.59 0 0 0 .356-.558c.006-.925.073-1.839.203-2.742a4.02 4.02 0 0 1 1.473-.66c3.077-1.533 4.414-4.021 4.011-7.465a7.16 7.16 0 0 0-1.218-2.743 27.21 27.21 0 0 0-2.032-1.93.94.94 0 0 1 0-.609c1.33-1.832 1.635-3.829.915-5.992a6.446 6.446 0 0 0-2.793-3.2 1.812 1.812 0 0 1-.457-.558l-.102-3.25c-.42-.657-1.012-.877-1.777-.66a1.798 1.798 0 0 0-.66.762l-.102 2.336a1.17 1.17 0 0 1-.355.457 25.99 25.99 0 0 1-3.25 0 1.17 1.17 0 0 1-.356-.457l-.102-2.438c-.419-.657-1.011-.877-1.777-.66a1.8 1.8 0 0 0-.66.762l-.102 2.336c-.08.181-.198.333-.355.457l-3.149.101c-1.061.604-1.197 1.383-.406 2.336l.406.203 1.422.102.356.355c.068 4.165.068 8.329 0 12.493-.121.308-.341.477-.66.507-.373.018-.627-.151-.762-.507-.05-3.792-.068-7.584-.05-11.375a2.736 2.736 0 0 1-1.829-.711c0-.068-.034-.102-.102-.102-1.083-1.355-1.083-2.71 0-4.062a2.901 2.901 0 0 1 1.829-.813h1.828c-.21-1.127.061-2.109.812-2.945.336-.27.709-.49 1.117-.66 1.409-.304 2.526.119 3.352 1.27.267.75.369 1.53.305 2.335h1.015c-.209-1.127.062-2.109.813-2.945.336-.27.708-.49 1.117-.66 1.696-.329 2.898.298 3.605 1.879l.102 2.945a7.439 7.439 0 0 1 2.59 2.64Z" fill="#040301"/><path d="M21.074 9.8c-.75.837-1.021 1.819-.812 2.946h-1.828c-.251-2.016.629-2.998 2.64-2.945Z" fill="#F38D00"/><path d="M27.676 9.8c-.751.837-1.022 1.819-.813 2.946h-1.015a5.582 5.582 0 0 0-.305-2.336c.609-.53 1.32-.733 2.133-.61Z" fill="#ED8900"/><path d="M19.45 31.941a7.04 7.04 0 0 1-.102-1.625c.319-.03.539-.2.66-.507.068-4.165.068-8.329 0-12.493l-.356-.355-1.422-.102-.406-.203c-.79-.953-.655-1.732.406-2.336l3.149-.101a1.17 1.17 0 0 0 .355-.457l.102-2.336a1.8 1.8 0 0 1 .66-.762c.766-.217 1.358.003 1.777.66l.102 2.438c.08.181.198.333.355.457a25.99 25.99 0 0 0 3.25 0 1.17 1.17 0 0 0 .356-.457l.102-2.336c.147-.317.367-.57.66-.762.765-.217 1.358.003 1.777.66l.102 3.25c.113.216.266.402.457.559a6.446 6.446 0 0 1 2.793 3.199c.72 2.163.415 4.16-.914 5.992a.938.938 0 0 0 0 .61 27.21 27.21 0 0 1 2.03 1.93 7.162 7.162 0 0 1 1.22 2.741c.402 3.445-.935 5.933-4.012 7.465a4.02 4.02 0 0 0-1.473.66c-.13.904-.197 1.818-.203 2.743-.08.212-.199.398-.355.558-.777.437-1.438.318-1.981-.355a19.814 19.814 0 0 1-.203-2.64l-.356-.356a25.99 25.99 0 0 0-3.25 0 1.17 1.17 0 0 0-.355.457l-.102 2.336c-.08.212-.199.398-.355.558-.777.437-1.437.318-1.98-.355a19.814 19.814 0 0 1-.204-2.64c-.118-.12-.237-.238-.355-.356l-3.149-.102-.406-.203c-.79-.954-.655-1.732.406-2.336l1.422-.102c.158-.123.276-.275.356-.456.068-.712.068-1.422 0-2.133a.698.698 0 0 0-.559-.407Z" fill="#FCE792"/><path d="M45.145 10.816a21.934 21.934 0 0 1 3.656 6.5 135.42 135.42 0 0 1-3.098 3.149.247.247 0 0 0-.05.203 23.324 23.324 0 0 0-3.352-6.906 29.123 29.123 0 0 0 2.843-2.946Z" fill="#FDE892"/><path d="M38.645 13.254c2.07 2.416 3.476 5.192 4.214 8.328 1.536 9.724-1.9 17.07-10.308 22.04-6.56 2.23-12.62 1.3-18.18-2.794a43.616 43.616 0 0 1-1.828-1.676 6.97 6.97 0 0 0 1.727-1.726c.578.779 1.356 1.083 2.335.914a2.895 2.895 0 0 0 1.829.812c-.25 2.019.631 3 2.64 2.946.336.27.709.49 1.117.66 1.409.304 2.526-.12 3.352-1.27.609.53 1.32.733 2.133.61.336.27.708.49 1.117.66 1.603.324 2.771-.235 3.504-1.676.12-.772.189-1.55.203-2.336 1.974-.653 3.497-1.871 4.57-3.656 1.998-4.072 1.338-7.626-1.98-10.664 1.348-2.614 1.348-5.22 0-7.82a.247.247 0 0 0 .203-.051 153.203 153.203 0 0 1 3.352-3.301Z" fill="#F8A100"/><path d="M16.605 13.559c-1.083 1.352-1.083 2.707 0 4.062-1.123.175-1.953-.232-2.488-1.219-.352-1.967.477-2.915 2.488-2.843Z" fill="#F28C00"/><path d="M23.105 16.91c1.964-.017 3.928 0 5.891.05 2.342.672 3.307 2.212 2.895 4.622-.508 1.49-1.541 2.353-3.098 2.59a79.66 79.66 0 0 1-5.688 0 1.812 1.812 0 0 1-.457-.559 94.376 94.376 0 0 1 0-6.195c.105-.222.257-.392.457-.508Z" fill="#060503"/><path d="M48.8 17.316a21.69 21.69 0 0 1 1.575 6.805c.367 9.372-3.239 16.77-10.816 22.192-7.02 4.44-14.433 5.27-22.243 2.488l3.25-3.149c7.099 1.636 13.43.13 18.993-4.52 5.833-5.67 7.864-12.491 6.093-20.464a.247.247 0 0 1 .051-.203 135.42 135.42 0 0 0 3.098-3.149Z" fill="#FCDB4F"/><path d="M16.707 17.723a2.736 2.736 0 0 0 1.828.71c-.017 3.792 0 7.584.05 11.376.136.356.39.525.763.507a7.034 7.034 0 0 0 .101 1.625c-.387-.068-.675.067-.863.407a6.19 6.19 0 0 0-.05 1.117 2.739 2.739 0 0 0-1.829.71V17.724Z" fill="#F48D00"/><path d="M24.223 18.434h3.554c1.17 1.358 1.204 2.746.102 4.164h-3.656v-4.164Z" fill="#FEBC00"/><path d="M27.777 18.434c1.76-.118 2.658.694 2.692 2.437-.213.975-.805 1.55-1.778 1.727h-.812c1.102-1.418 1.068-2.806-.102-4.164Z" fill="#F18B00"/><path d="M24.223 18.434v4.164h4.468a51.525 51.525 0 0 1-4.57.101c-.033-1.44 0-2.862.102-4.265Z" fill="#825D00"/><path d="M23.105 26.762c2.438-.017 4.876 0 7.313.05 1.859.328 3.06 1.395 3.605 3.2.27 2.528-.797 4.17-3.199 4.925-2.65.1-5.29.066-7.922-.101a2.083 2.083 0 0 0-.254-.355c-.067-2.37-.067-4.74 0-7.11.136-.22.288-.422.457-.61Z" fill="#070502"/><path d="M24.223 28.387c1.828-.017 3.656 0 5.484.05 1.383 1.71 1.35 3.386-.102 5.028h-5.382v-5.078Z" fill="#F9A200"/><path d="M24.223 28.387a61.17 61.17 0 0 1 6.093-.051c1.641.388 2.369 1.42 2.184 3.098-.445 1.408-1.41 2.085-2.895 2.03 1.451-1.641 1.485-3.317.102-5.026-1.828-.051-3.656-.068-5.484-.051Z" fill="#ED8900"/><path d="M16.605 34.277c-1.083 1.353-1.083 2.707 0 4.063-.979.17-1.757-.135-2.335-.914-.67-2.108.108-3.157 2.335-3.149Z" fill="#F28C00"/><path d="M7.77 35.191a26.72 26.72 0 0 0 3.046 4.47 41.361 41.361 0 0 0-2.437 2.437c-.17.101-.305.237-.406.406a25.681 25.681 0 0 1-3.25-4.367c.27-.203.507-.44.71-.711L7.77 35.19Z" fill="#FDE892"/><path d="M18.434 39.152h1.828c-.154 1.113.117 2.094.812 2.946-2.009.055-2.89-.927-2.64-2.946Z" fill="#F38C00"/><path d="M27.676 42.098c-.813.123-1.524-.08-2.133-.61a5.58 5.58 0 0 0 .305-2.336h1.015c-.154 1.113.117 2.094.813 2.946Z" fill="#EC8900"/><path d="M10.816 39.66a26.968 26.968 0 0 0 2.946 2.64 48.534 48.534 0 0 1-2.64 2.641l-2.743-2.843a41.361 41.361 0 0 1 2.437-2.438Z" fill="#FEDD4F"/><path d="m8.379 42.098 2.742 2.843c-.048.143-.15.21-.305.203a17.47 17.47 0 0 1-2.843-2.64c.101-.17.237-.305.406-.406Z" fill="#E9C703"/><path d="M13.762 42.3a24.507 24.507 0 0 0 6.804 3.352l-3.25 3.149a21.934 21.934 0 0 1-6.5-3.657c.155.008.257-.06.305-.203a48.534 48.534 0 0 0 2.64-2.64Z" fill="#FDE892"/></g><defs><clipPath id="a"><path fill="#fff" d="M0 0h52v52H0z"/></clipPath></defs></svg>