<svg width="53" height="52" fill="none" xmlns="http://www.w3.org/2000/svg"><g clip-path="url(#a)" fill-rule="evenodd" clip-rule="evenodd"><path opacity=".99" d="M7.087-.05h4.57c.213.186.348.423.407.71-.043.37-.246.624-.61.762a52.05 52.05 0 0 1-3.25.05v2.946H44.26V1.473h-3.656c-8.362.017-16.724 0-25.086-.051a.96.96 0 0 1-.254-.152c-.086-.215-.17-.418-.254-.61.059-.287.194-.524.406-.71h30.063c.136.153.254.322.355.507a81.28 81.28 0 0 1 .051 4.063c.813-.017 1.626 0 2.438.05a.78.78 0 0 1 .355.559c.05 3.622.068 7.245.05 10.867 1.085-.017 2.168 0 3.25.05.09.107.191.192.306.255v5.89a1.069 1.069 0 0 0-.305.254 51.797 51.797 0 0 1-3.25.051v9.14c1.084-.016 2.167 0 3.25.052.089.106.19.19.305.253v5.891a1.069 1.069 0 0 0-.305.254c-1.083.05-2.166.068-3.25.05v6.602c1.81.12 2.995 1.034 3.555 2.742v1.727c-.407 1.422-1.32 2.336-2.743 2.742H3.025C1.582 51.455.668 50.473.283 49.004v-1.219c.457-1.84 1.642-2.856 3.554-3.047v-6.601c-1.084.017-2.167 0-3.25-.051a1.07 1.07 0 0 0-.304-.254v-5.89a1.07 1.07 0 0 0 .304-.255c1.083-.05 2.166-.067 3.25-.05v-9.14c-1.084.016-2.167 0-3.25-.052a1.07 1.07 0 0 0-.304-.254v-5.89a1.07 1.07 0 0 0 .304-.254 51.949 51.949 0 0 1 3.25-.05c-.017-3.623 0-7.246.051-10.868a.78.78 0 0 1 .356-.559 29.56 29.56 0 0 1 2.437-.05c-.017-1.355 0-2.71.05-4.063a2.82 2.82 0 0 1 .356-.508Z" fill="#000"/><path opacity=".998" d="M12.064.66h2.945c.084.192.168.395.254.61a.96.96 0 0 0 .254.152c8.362.05 16.724.068 25.086.05v2.946H8.204V1.473c1.084.017 2.168 0 3.25-.051.364-.138.567-.392.61-.762Z" fill="#AD7273"/><path d="M40.603 1.473h3.656v2.945h-3.656V1.473Z" fill="#946464"/><path d="M43.447 6.043v4.977a66.56 66.56 0 0 0-6.297.152.708.708 0 0 0-.254.355 269.034 269.034 0 0 0 0 10.461.709.709 0 0 0 .254.356c2.09.15 4.188.2 6.297.152v4.164a66.528 66.528 0 0 0-6.297.152.708.708 0 0 0-.254.356 269.028 269.028 0 0 0 0 10.46.709.709 0 0 0 .254.356c2.09.15 4.188.201 6.297.153v4.062c-1.224.479-1.969 1.36-2.235 2.64-2.434-.104-3.822 1.047-4.164 3.454.022.748.225 1.442.61 2.082a65.84 65.84 0 0 1-3.657.05 34.4 34.4 0 0 0-.05-2.64.87.87 0 0 0-.66-.304v-3.25a.87.87 0 0 0 .66-.305 76.843 76.843 0 0 0 0-5.586.744.744 0 0 0-.458-.356 518.534 518.534 0 0 0-14.523 0 .897.897 0 0 0-.355.356c-.051 4.028-.068 8.057-.051 12.086-1.22.017-2.438 0-3.656-.051a3.17 3.17 0 0 0 .609-2.082c-.044-1.516-.755-2.582-2.133-3.2a9.072 9.072 0 0 0-1.93-.355c-.895-2.259-2.52-3.088-4.875-2.488a3.76 3.76 0 0 0-1.066.762 116.53 116.53 0 0 1-.05-4.875c3.326.05 6.644-.002 9.952-.153a.709.709 0 0 0 .254-.355c.068-3.487.068-6.974 0-10.461a.708.708 0 0 0-.254-.355 164.959 164.959 0 0 0-9.953-.153v-4.164c3.327.05 6.645-.001 9.953-.152a.709.709 0 0 0 .254-.356 269.43 269.43 0 0 0 0-10.46.708.708 0 0 0-.254-.356 164.14 164.14 0 0 0-9.953-.152V6.043h37.985Z" fill="#ECEAEC"/><path d="M43.447 6.043h3.656v4.977h-3.656V6.043Z" fill="#DAD9DB"/><path d="M18.869 11.02c1.794-.017 3.588 0 5.382.05a.708.708 0 0 1 .356.254c.166 1.853.2 3.715.101 5.586a.708.708 0 0 1-.253.356 39.27 39.27 0 0 1-5.586.101.708.708 0 0 1-.356-.254 39.21 39.21 0 0 1-.102-5.586 1.12 1.12 0 0 1 .458-.507Zm9.141 0c1.794-.017 3.588 0 5.382.05a.709.709 0 0 1 .355.254c.167 1.853.2 3.715.102 5.586a.708.708 0 0 1-.254.356 39.27 39.27 0 0 1-5.586.101.709.709 0 0 1-.355-.254 39.21 39.21 0 0 1-.102-5.586c.104-.222.257-.391.457-.507Z" fill="#000"/><path d="M5.462 12.543h8.735v3.453H5.462v-3.453Zm14.422 0h3.352v3.352h-3.352v-3.352Zm9.141 0h3.351v3.352h-3.351v-3.352Z" fill="#9BBEE3"/><path d="M43.447 12.543v3.453h-5.079v-3.453h5.079Z" fill="#9BBDE3"/><path d="M43.447 12.543h3.656v3.453h-3.656v-3.453Z" fill="#8DB5E0"/><path d="M1.806 17.52h12.39v3.453H1.807V17.52Z" fill="#AD7373"/><path d="M47.103 17.52v3.453h-8.735V17.52h8.735Z" fill="#AD7273"/><path d="M47.103 17.52h3.656v3.453h-3.656V17.52Z" fill="#946464"/><path d="M43.447 22.496h3.656v4.164h-3.656v-4.164Z" fill="#DAD9DB"/><path d="M18.869 26.66c1.794-.017 3.588 0 5.382.05a.71.71 0 0 1 .356.255c.166 1.853.2 3.715.101 5.586a.708.708 0 0 1-.253.355 39.27 39.27 0 0 1-5.586.102.708.708 0 0 1-.356-.254 39.209 39.209 0 0 1-.102-5.586c.105-.222.257-.392.458-.508Zm9.141 0c1.794-.017 3.588 0 5.382.05a.71.71 0 0 1 .355.255c.167 1.853.2 3.715.102 5.586a.708.708 0 0 1-.254.355 39.27 39.27 0 0 1-5.586.102.709.709 0 0 1-.355-.254 39.209 39.209 0 0 1-.102-5.586 1.12 1.12 0 0 1 .457-.508Z" fill="#000"/><path d="M5.462 28.184h8.735v3.453H5.462v-3.453Zm14.422 0h3.352v3.351h-3.352v-3.351Zm9.141 0h3.351v3.351h-3.351v-3.351Z" fill="#9BBEE3"/><path d="M43.447 28.184v4.164c.248.02.485-.014.71-.102v.203h-3.351c.046-.398-.123-.652-.508-.761a18.27 18.27 0 0 0-1.93-.051v-3.453h5.079Z" fill="#9CBDE3"/><path d="M43.447 28.184h3.656v3.453a31.81 31.81 0 0 0-2.54.05.698.698 0 0 0-.405.56 1.569 1.569 0 0 1-.711.1v-4.163Z" fill="#8CB4DF"/><path d="M40.806 32.45h3.352c-.006.31.13.53.406.66.846.05 1.692.067 2.539.05v3.453h-8.735V33.16c.645.017 1.288 0 1.93-.05.344-.09.513-.31.508-.66Z" fill="#AD7273"/><path d="M1.806 33.16h12.39v3.453H1.807V33.16Z" fill="#AD7373"/><path d="M47.103 33.16h3.656v3.453h-3.656V33.16Z" fill="#946464"/><path d="M43.447 38.137h3.656c.017 1.591 0 3.182-.05 4.773-1.084-.843-2.286-1.08-3.606-.71v-4.063Z" fill="#DAD8DB"/><path d="M19.986 39.457h5.586v10.969h-5.586V39.457Z" fill="#AA7071"/><path d="M33.29 44.23v3.25a.614.614 0 0 0-.66.305c-.05.88-.067 1.76-.05 2.64h-5.586V39.458h5.586c-.017 1.49 0 2.98.05 4.469a.614.614 0 0 0 .66.304Z" fill="#926263"/><path d="M7.392 43.52c1.828-.017 2.725.897 2.691 2.742l.254.254c.7-.107 1.412-.14 2.133-.102 1.57.618 1.958 1.685 1.168 3.2a1.995 1.995 0 0 1-1.168.761 204.78 204.78 0 0 1-9.14 0c-1.214-.504-1.67-1.401-1.372-2.691a2.334 2.334 0 0 1 1.27-1.27 12.548 12.548 0 0 1 2.336.102l.254-.254c-.1-1.29.424-2.204 1.574-2.742Z" fill="#96C663"/><path d="M46.697 45.855a3.367 3.367 0 0 0-2.54-.101 2.715 2.715 0 0 0-.609-1.828c.96-.607 1.858-.505 2.692.304.396.47.549 1.012.457 1.626Z" fill="#8BB951"/><path d="M43.548 43.926c.423.525.627 1.134.61 1.828a3.367 3.367 0 0 1 2.539.102c.006.362.175.6.508.71.692.333.996.909.913 1.727.04.835-.231 1.546-.812 2.133-2.404.017-4.807 0-7.21-.051-1.494-.654-1.883-1.72-1.169-3.2.275-.365.63-.62 1.066-.76.752-.031 1.497.003 2.235.1.157-.123.276-.275.355-.456a3.635 3.635 0 0 1 .305-1.524c.143-.295.363-.498.66-.61Z" fill="#97C763"/><path d="M47.306 50.426c.58-.587.851-1.298.813-2.133.082-.818-.222-1.394-.914-1.727.491-.056.982-.124 1.472-.203 1.258.073 1.951.733 2.082 1.98-.04 1.03-.548 1.707-1.523 2.032-.643.05-1.286.068-1.93.05Z" fill="#8CB951"/></g><defs><clipPath id="a"><path fill="#fff" transform="translate(.333)" d="M0 0h52v52H0z"/></clipPath></defs></svg>