<svg width="16" height="17" viewBox="0 0 16 17" fill="none" xmlns="http://www.w3.org/2000/svg">
<path opacity="0.982" fill-rule="evenodd" clip-rule="evenodd" d="M14.4221 1.64038C14.767 1.58306 14.9649 1.72368 15.0159 2.06226C15.0017 2.1688 14.9653 2.26776 14.9065 2.35913C12.344 6.48413 9.78148 10.6091 7.21898 14.7341C6.75894 15.3063 6.18082 15.4677 5.4846 15.2185C5.38045 15.156 5.27626 15.0935 5.1721 15.031C3.84398 13.4112 2.51585 11.7914 1.18773 10.1716C0.788648 9.40666 0.908442 8.73479 1.5471 8.15601C1.98582 7.87897 2.45457 7.81647 2.95335 7.96851C3.10936 8.03604 3.25519 8.11938 3.39085 8.21851C4.26585 9.0206 5.14085 9.82266 6.01585 10.6248C6.15244 10.7243 6.28788 10.7243 6.4221 10.6248C9.0431 7.68091 11.6525 4.72779 14.2502 1.76538C14.3132 1.72799 14.3705 1.68632 14.4221 1.64038Z" fill="url(#paint0_linear_677_2144)"/>
<defs>
<linearGradient id="paint0_linear_677_2144" x1="7.98669" y1="1.62793" x2="7.98669" y2="15.3319" gradientUnits="userSpaceOnUse">
<stop stop-color="#3399FF"/>
<stop offset="1" stop-color="#8E88FF"/>
</linearGradient>
</defs>
</svg>
