<svg width="64" height="64" fill="none" xmlns="http://www.w3.org/2000/svg"><path d="M60.27 25.403c0 12.59-10.202 22.806-22.805 22.806-12.591 0-22.807-10.203-22.807-22.806C14.658 12.8 24.874 2.61 37.465 2.61c12.603 0 22.806 10.203 22.806 22.794Z" fill="#AFDEE0"/><path d="M38.019 37.083c0 9.354-7.582 16.936-16.936 16.936S4.148 46.437 4.148 37.083s7.581-16.935 16.935-16.935c9.366 0 16.936 7.581 16.936 16.935Z" fill="#000"/><path d="M21.083 54.634c-9.674 0-17.55-7.877-17.55-17.55 0-9.675 7.876-17.552 17.55-17.552s17.551 7.877 17.551 17.551-7.865 17.55-17.55 17.55Zm0-33.87c-8.997 0-16.32 7.322-16.32 16.32 0 8.996 7.323 16.32 16.32 16.32s16.32-7.324 16.32-16.32c0-8.998-7.31-16.32-16.32-16.32Z" fill="#000"/><path d="M36.923 35.446c0 9.354-7.581 16.936-16.935 16.936S3.052 44.8 3.052 35.446s7.582-16.935 16.936-16.935 16.935 7.581 16.935 16.935Z" fill="#fff"/><path d="M19.988 52.997c-9.674 0-17.551-7.877-17.551-17.55 0-9.675 7.877-17.552 17.55-17.552 9.675 0 17.552 7.877 17.552 17.551s-7.877 17.55-17.551 17.55Zm0-33.87c-8.997 0-16.32 7.322-16.32 16.32 0 8.996 7.323 16.32 16.32 16.32s16.32-7.324 16.32-16.32c0-8.998-7.323-16.32-16.32-16.32Z" fill="#000"/><path d="M19.988 49.218c-7.606 0-13.772-6.166-13.772-13.772s6.166-13.772 13.772-13.772S33.76 27.84 33.76 35.446s-6.166 13.772-13.772 13.772Z" fill="#26C666"/><path d="M9.059 32.308a10.813 10.813 0 0 1 2.153-4.517c.53-.665 1.096-1.33 1.822-1.785.714-.468 1.514-.825 2.363-.948l.037.074c-.665.542-1.305 1.022-1.908 1.539-.603.517-1.255.972-1.821 1.563a11.83 11.83 0 0 0-2.56 4.11l-.086-.036Z" fill="#fff"/><path d="M25.108 38.35c0 .764-.197 1.428-.566 1.995-.37.578-.887 1.033-1.539 1.39-.566.296-1.194.48-1.907.579v1.415a.959.959 0 0 1-.271.677.904.904 0 0 1-.702.296.947.947 0 0 1-.714-.296c-.184-.172-.258-.418-.258-.677V42.4a9.873 9.873 0 0 1-1.945-.32c-.701-.21-1.28-.455-1.747-.726-.247-.148-.407-.32-.48-.53a1.08 1.08 0 0 1-.099-.652.882.882 0 0 1 .246-.566.965.965 0 0 1 .505-.32c.21-.037.455.012.726.172.357.197.837.407 1.428.579.578.197 1.292.295 2.117.295.652 0 1.181-.086 1.587-.246.394-.148.702-.37.874-.628a1.54 1.54 0 0 0 .296-.935c0-.295-.062-.53-.197-.75-.136-.21-.357-.407-.653-.567-.295-.16-.701-.295-1.194-.406l-2.067-.443c-1.17-.259-2.056-.702-2.646-1.317-.579-.603-.874-1.39-.874-2.388 0-.763.197-1.452.566-2.055.37-.603.91-1.083 1.575-1.44.579-.32 1.243-.517 1.994-.603v-1.391a.947.947 0 0 1 .973-.972c.258 0 .504.098.676.295a.905.905 0 0 1 .296.677v1.366c.443.05.923.148 1.427.296a5.463 5.463 0 0 1 1.711.873c.197.16.32.345.394.53.062.209.062.406.012.578a.968.968 0 0 1-.295.492.978.978 0 0 1-.53.222c-.209.012-.455-.05-.725-.21a4.732 4.732 0 0 0-1.268-.528 6.53 6.53 0 0 0-1.674-.21c-.825 0-1.477.197-1.957.566-.468.357-.701.837-.701 1.44 0 .444.135.788.418 1.059.295.27.775.48 1.452.628l2.117.467c1.243.271 2.154.714 2.733 1.293.59.59.886 1.366.886 2.326Zm35.84-9.575c0 9.354-7.582 16.936-16.936 16.936s-16.935-7.582-16.935-16.936c0-9.353 7.581-16.935 16.935-16.935 9.367 0 16.936 7.582 16.936 16.935Z" fill="#000"/><path d="M44.012 46.326c-9.673 0-17.55-7.877-17.55-17.55 0-9.674 7.877-17.551 17.55-17.551 9.674 0 17.551 7.877 17.551 17.55 0 9.674-7.864 17.551-17.55 17.551Zm0-33.87c-8.996 0-16.32 7.323-16.32 16.32 0 8.996 7.324 16.32 16.32 16.32 8.997 0 16.32-7.324 16.32-16.32 0-8.997-7.31-16.32-16.32-16.32Z" fill="#000"/><path d="M59.852 27.139c0 9.353-7.581 16.935-16.935 16.935s-16.935-7.582-16.935-16.935c0-9.354 7.569-16.936 16.935-16.936 9.354 0 16.935 7.582 16.935 16.936Z" fill="#fff"/><path d="M42.917 44.69c-9.674 0-17.55-7.878-17.55-17.551 0-9.674 7.864-17.551 17.55-17.551s17.55 7.877 17.55 17.55c0 9.674-7.876 17.551-17.55 17.551Zm0-33.871c-8.997 0-16.32 7.323-16.32 16.32 0 8.996 7.323 16.32 16.32 16.32s16.32-7.324 16.32-16.32c0-8.997-7.323-16.32-16.32-16.32Z" fill="#000"/><path d="M42.917 40.91c-7.606 0-13.772-6.165-13.772-13.771 0-7.607 6.166-13.773 13.772-13.773S56.69 19.532 56.69 27.14c0 7.606-6.166 13.772-13.772 13.772Z" fill="#26C666"/><path d="M31.988 24a10.813 10.813 0 0 1 2.154-4.517c.529-.665 1.095-1.33 1.821-1.785.714-.467 1.514-.824 2.363-.947l.037.074c-.664.541-1.304 1.021-1.907 1.538-.604.517-1.256.972-1.822 1.563a11.83 11.83 0 0 0-2.56 4.11L31.988 24Z" fill="#fff"/><path d="M44.653 36.874c-4.013 0-7.151-4.283-7.151-9.736 0-5.464 3.138-9.735 7.15-9.735 2.302 0 4.468 1.502 5.785 4.012.32.604.086 1.342-.517 1.662a1.226 1.226 0 0 1-1.661-.517c-.899-1.71-2.216-2.695-3.606-2.695-2.548 0-4.69 3.335-4.69 7.274 0 3.938 2.154 7.273 4.69 7.273 1.39 0 2.707-.984 3.606-2.695a1.226 1.226 0 0 1 1.661-.517c.603.32.837 1.058.517 1.662-1.317 2.51-3.483 4.012-5.784 4.012Z" fill="#000"/><path d="M45.342 25.822H36.48c-.677 0-1.23-.554-1.23-1.231s.553-1.231 1.23-1.231h8.862c.677 0 1.23.554 1.23 1.23 0 .678-.553 1.232-1.23 1.232Zm0 5.095H36.48c-.677 0-1.23-.554-1.23-1.23 0-.678.553-1.232 1.23-1.232h8.862c.677 0 1.23.554 1.23 1.231s-.553 1.23-1.23 1.23ZM31.557 8.763l-.246.21-2.99 2.633a1.53 1.53 0 0 1-1.035.382 1.566 1.566 0 0 1-1.144-.53 1.526 1.526 0 0 1 .147-2.166l.444-.381c-9.367-.025-12.96 7.717-13.01 7.815a1.525 1.525 0 0 1-2.018.776c-.776-.357-1.133-1.268-.776-2.043.05-.111 4.554-9.81 16.05-9.613l-.419-.48a1.526 1.526 0 0 1 .136-2.166 1.552 1.552 0 0 1 2.178.135l2.843 3.25c.542.652.48 1.624-.16 2.178Zm.296 46.35.258-.184 3.225-2.35c.32-.234.701-.32 1.058-.296.419.05.825.27 1.095.628a1.522 1.522 0 0 1-.344 2.141l-.468.345c9.33.874 13.612-6.498 13.674-6.585a1.545 1.545 0 0 1 1.637-.75c.16.037.307.086.455.16.739.43 1.01 1.366.579 2.104-.062.099-5.428 9.354-16.862 8.11l.37.518c.504.677.356 1.65-.333 2.141-.69.505-1.65.345-2.154-.332l-2.535-3.495a1.55 1.55 0 0 1 .345-2.154Z" fill="#000"/></svg>