<svg width="64" height="64" fill="none" xmlns="http://www.w3.org/2000/svg"><path d="M28.517 58.441C.539 57.947 10.505 31.744 13.842 24.402c.467-1.005 1.637-1.444 2.68-1.024 9.572 3.877 8.904-11.538 8.191-18.285-.164-1.573 1.445-2.752 2.88-2.094 6.638 3.054 8.037 12.014 8.33 16.31.1 1.454 1.608 2.433 2.943 1.848a6.386 6.386 0 0 0 1.673-1.08c.942-.813 2.368-.667 3.072.348 21.578 31.077-4.726 38.199-15.094 38.016Z" fill="#F9A41A"/><path d="M28.9 58.907h-.393c-8.42-.146-14.208-2.633-17.216-7.387-5.394-8.54-.301-21.934 2.13-27.291.568-1.216 1.994-1.774 3.265-1.262 2.02.823 3.675.768 4.9-.155 3.804-2.862 3.127-13.303 2.67-17.665a2.503 2.503 0 0 1 1.042-2.313 2.446 2.446 0 0 1 2.478-.247c6.702 3.082 8.256 11.786 8.594 16.695.037.558.348 1.06.823 1.353a1.58 1.58 0 0 0 1.481.11 5.808 5.808 0 0 0 1.564-1.006 2.539 2.539 0 0 1 2.011-.612 2.453 2.453 0 0 1 1.737 1.051c8.128 11.703 10.34 21.193 6.592 28.215-4.47 8.348-15.9 10.514-21.677 10.514ZM15.727 23.68a1.6 1.6 0 0 0-1.463.914c-2.377 5.22-7.342 18.268-2.194 26.423 2.825 4.48 8.365 6.82 16.457 6.967 6.29.128 17.197-2.468 21.239-10.03 3.574-6.692 1.38-15.863-6.538-27.264a1.543 1.543 0 0 0-1.097-.667 1.65 1.65 0 0 0-1.298.402 7.168 7.168 0 0 1-1.792 1.152c-.759.33-1.6.265-2.322-.174a2.63 2.63 0 0 1-1.262-2.066C35.146 14.63 33.673 6.3 27.401 3.41a1.533 1.533 0 0 0-1.563.156 1.607 1.607 0 0 0-.668 1.472c.595 5.604.997 15.451-3.026 18.487-1.5 1.133-3.447 1.216-5.787.274a1.748 1.748 0 0 0-.631-.119Z" fill="#000"/><path d="M31.26 61.184C3.281 60.69 13.247 34.487 16.584 27.145c.466-1.006 1.637-1.444 2.679-1.024 9.573 3.877 8.905-11.538 8.192-18.286-.165-1.572 1.445-2.752 2.88-2.093 6.638 3.053 8.037 12.013 8.329 16.31.1 1.454 1.61 2.433 2.944 1.847a6.383 6.383 0 0 0 1.673-1.078c.942-.814 2.368-.668 3.072.347 21.577 31.077-4.727 38.199-15.095 38.016Z" fill="#FBE063"/><path d="M31.643 61.65h-.393c-8.42-.146-14.208-2.633-17.216-7.387-5.394-8.54-.301-21.934 2.13-27.291.567-1.216 1.994-1.774 3.265-1.262 2.02.823 3.675.768 4.9-.156C28.133 22.693 27.456 12.252 27 7.89a2.503 2.503 0 0 1 1.042-2.313 2.446 2.446 0 0 1 2.478-.247c6.702 3.081 8.256 11.785 8.594 16.695.037.558.348 1.06.823 1.353a1.58 1.58 0 0 0 1.481.11 5.805 5.805 0 0 0 1.564-1.006 2.54 2.54 0 0 1 2.011-.612 2.454 2.454 0 0 1 1.737 1.051c8.128 11.703 10.34 21.193 6.592 28.215-4.47 8.347-15.9 10.514-21.677 10.514ZM18.47 26.423a1.6 1.6 0 0 0-1.463.914c-2.377 5.22-7.342 18.268-2.194 26.423 2.825 4.48 8.365 6.82 16.457 6.967h.402c6.373 0 16.878-2.624 20.837-10.039 3.574-6.693 1.38-15.863-6.538-27.264a1.543 1.543 0 0 0-1.097-.667 1.65 1.65 0 0 0-1.298.402 7.168 7.168 0 0 1-1.792 1.152c-.759.329-1.6.265-2.322-.174a2.63 2.63 0 0 1-1.262-2.066c-.31-4.7-1.783-13.029-8.055-15.918a1.533 1.533 0 0 0-1.563.156 1.608 1.608 0 0 0-.668 1.472c.595 5.604.997 15.451-3.026 18.486-1.5 1.134-3.447 1.216-5.788.275a1.75 1.75 0 0 0-.63-.12Z" fill="#000"/><path d="M33.362 56.512c7.115 0 12.883-5.768 12.883-12.882 0-7.115-5.768-12.883-12.883-12.883-7.114 0-12.882 5.768-12.882 12.883 0 7.114 5.768 12.882 12.882 12.882Z" fill="#54E28E"/><path d="M33.362 56.97c-7.35 0-13.34-5.98-13.34-13.34 0-7.36 5.98-13.34 13.34-13.34 7.36 0 13.34 5.98 13.34 13.34 0 7.36-5.98 13.34-13.34 13.34Zm0-25.765c-6.848 0-12.425 5.577-12.425 12.425 0 6.848 5.577 12.425 12.425 12.425 6.848 0 12.425-5.577 12.425-12.425 0-6.848-5.568-12.425-12.425-12.425Z" fill="#000"/><path d="M33.362 52.114a8.485 8.485 0 1 0 0-16.969 8.485 8.485 0 0 0 0 16.97Z" fill="#26C666"/><path d="M33.362 52.571c-4.928 0-8.941-4.013-8.941-8.941 0-4.928 4.013-8.942 8.941-8.942 4.928 0 8.942 4.014 8.942 8.942s-4.004 8.94-8.942 8.94Zm0-16.969c-4.425 0-8.027 3.603-8.027 8.028 0 4.425 3.602 8.027 8.027 8.027 4.425 0 8.028-3.602 8.028-8.027 0-4.425-3.602-8.028-8.028-8.028Z" fill="#000"/><path d="M33.792 44.142h-2.496a.453.453 0 0 1-.457-.457v-4.042c0-.256.201-.457.457-.457h2.496a2.48 2.48 0 0 1 2.478 2.478c0 .667-.256 1.29-.732 1.755a2.494 2.494 0 0 1-1.746.723Zm-2.039-.915h2.039c.411 0 .805-.164 1.106-.457.302-.292.457-.685.457-1.106 0-.86-.704-1.563-1.563-1.563h-2.039v3.126Z" fill="#000"/><path d="M33.792 48.183h-2.496a.453.453 0 0 1-.457-.457v-4.041c0-.256.201-.458.457-.458h2.496a2.48 2.48 0 0 1 2.478 2.478 2.43 2.43 0 0 1-.732 1.756 2.456 2.456 0 0 1-1.746.722Zm-2.039-.914h2.039c.411 0 .805-.165 1.106-.458.302-.292.457-.685.457-1.106 0-.86-.704-1.563-1.563-1.563h-2.039v3.127Z" fill="#000"/><path d="M31.296 48.183h-.997a.453.453 0 0 1-.457-.457c0-.256.201-.457.457-.457h.997c.256 0 .457.2.457.457a.453.453 0 0 1-.457.457Zm0-8.091h-.997a.453.453 0 0 1-.457-.458c0-.256.201-.457.457-.457h.997c.256 0 .457.201.457.457a.453.453 0 0 1-.457.458Zm1.417-.101a.453.453 0 0 1-.457-.457v-.997c0-.256.201-.457.457-.457s.457.201.457.457v.997c0 .247-.21.457-.457.457Zm.22 9.188a.453.453 0 0 1-.458-.457v-.996c0-.256.202-.457.458-.457s.457.2.457.457v.996a.458.458 0 0 1-.457.457Z" fill="#000"/></svg>