<svg width="53" height="52" fill="none" xmlns="http://www.w3.org/2000/svg"><g clip-path="url(#a)" fill-rule="evenodd" clip-rule="evenodd"><path opacity=".972" d="M16.46-.05h2.742c7.106.892 12.032 4.65 14.777 11.273a18.641 18.641 0 0 1 1.067 6.296c6.438.032 11.431 2.707 14.98 8.024.068.27.068.542 0 .813a.717.717 0 0 1-.254.203 1.085 1.085 0 0 1-.914 0c-2.78-4.27-6.707-6.74-11.781-7.415a28.817 28.817 0 0 0-2.234-.101 23.239 23.239 0 0 1-.508 2.742c4.992-.195 8.953 1.701 11.883 5.688 2.44 3.975 2.795 8.139 1.066 12.492-.305.678-.66 1.322-1.066 1.93-2.993 4.12-7.055 6.033-12.188 5.738-5.15-.784-8.721-3.577-10.715-8.38a13.15 13.15 0 0 1-.762-3.858v-1.727c-.13-.024-.232.01-.304.102-.806.174-1.618.31-2.438.406.053 6.76 3.066 11.687 9.04 14.777a15.306 15.306 0 0 0 8.023 1.371c6.379-.846 10.797-4.23 13.254-10.156 1.332-3.843 1.281-7.669-.153-11.477.008-.182.059-.352.153-.507a.76.76 0 0 0 .355-.305 1 1 0 0 1 .965.406 20.899 20.899 0 0 1 1.168 4.57v3.758c-1.17 7.383-5.3 12.275-12.39 14.676a26.588 26.588 0 0 1-3.454.66H34.03c-7.108-.896-12.034-4.654-14.777-11.273a18.642 18.642 0 0 1-1.067-6.297c-6.916-.104-12.113-3.118-15.59-9.04a19.496 19.496 0 0 1-1.98-6.296v-3.758A18.792 18.792 0 0 1 2.19 9.801c.226-.426.581-.595 1.067-.508.257.193.426.446.507.762-2.081 4.478-2.166 8.998-.253 13.558 2.947 5.838 7.704 8.918 14.269 9.242.511-.008 1.02-.042 1.523-.101a16.119 16.119 0 0 0 7.516-2.793c.398-.116.737-.031 1.016.254a.92.92 0 0 1-.102.965 20.677 20.677 0 0 1-3.605 1.98c-.447 4.844 1.33 8.619 5.332 11.324 4.809 2.584 9.345 2.178 13.61-1.218 3.783-3.804 4.715-8.222 2.792-13.254-2.46-4.727-6.37-6.945-11.73-6.653a1.151 1.151 0 0 0-.356.153 15.756 15.756 0 0 1-4.012 5.84.84.84 0 0 1-.812-.153.95.95 0 0 1-.152-.812c4.505-4.853 5.723-10.44 3.656-16.758-2.182-5.161-5.99-8.428-11.426-9.8a9.313 9.313 0 0 0-1.523-.153C13.528 1.16 8.72 3.277 5.085 8.023a1.361 1.361 0 0 1-1.117.051 1.122 1.122 0 0 1-.153-.914C6.942 2.88 11.156.476 16.46-.05Z" fill="#020201"/><path d="M19.507 1.676c3.867 1.48 6.812 4.036 8.835 7.668a.23.23 0 0 0-.101.152c-3.023-3.814-6.984-5.557-11.883-5.23C10.47 5.245 6.73 8.613 5.135 14.37c-.927 5.64.884 10.16 5.434 13.559 4.433 2.731 8.97 2.9 13.61.508a13.86 13.86 0 0 0 4.265-3.91 9.612 9.612 0 0 1-1.574 2.742 18.444 18.444 0 0 1-7.567 5.484c-.504.059-1.012.093-1.523.102-6.565-.325-11.322-3.405-14.27-9.243-1.912-4.56-1.827-9.08.254-13.558a1.342 1.342 0 0 0-.507-.762 5.46 5.46 0 0 0 .71-1.219c.382.143.755.126 1.118-.05C8.72 3.276 13.529 1.16 19.507 1.675Z" fill="#FCDD7B"/><path d="M19.507 1.676c.511.009 1.019.06 1.523.152 5.435 1.373 9.244 4.64 11.426 9.8 2.067 6.32.849 11.906-3.656 16.759a.95.95 0 0 0 .152.812l-1.117 1.016c-.28-.285-.618-.37-1.016-.254a16.119 16.119 0 0 1-7.515 2.793 18.444 18.444 0 0 0 7.566-5.484 9.612 9.612 0 0 0 1.574-2.743c2.258-3.533 2.817-7.325 1.676-11.375a18.65 18.65 0 0 0-1.879-3.656.23.23 0 0 1 .102-.152c-2.024-3.632-4.969-6.188-8.836-7.668Z" fill="#FBCD62"/><path d="M28.241 9.496a18.644 18.644 0 0 1 1.879 3.656c1.14 4.05.582 7.842-1.676 11.375a13.86 13.86 0 0 1-4.265 3.91c-4.64 2.393-9.177 2.224-13.61-.507-4.55-3.4-6.361-7.92-5.433-13.559C6.729 8.613 10.47 5.245 16.358 4.266c4.9-.327 8.86 1.416 11.883 5.23Z" fill="#050402"/><path opacity=".929" d="M37.178 4.316c1.998-.017 3.995 0 5.993.051.181.08.333.198.457.356l.101 6.906a10.951 10.951 0 0 1 1.98-1.574c.85.037 1.137.46.864 1.27a33.39 33.39 0 0 1-3.402 2.792.66.66 0 0 1-.508 0 62.712 62.712 0 0 1-3.352-2.64c-.4-.728-.214-1.219.559-1.473.228.065.448.15.66.254l1.473 1.27c.05-1.862.067-3.724.05-5.587-1.625.017-3.25 0-4.875-.05-.511-.306-.63-.73-.355-1.27a3.07 3.07 0 0 1 .355-.305Z" fill="#000"/><path d="M16.46 5.738c4.85-.24 8.591 1.655 11.222 5.688 2.087 3.823 2.087 7.648 0 11.476-3.069 4.64-7.351 6.417-12.847 5.332-4.799-1.558-7.592-4.825-8.38-9.8-.3-5.756 2.188-9.768 7.466-12.036a23.72 23.72 0 0 1 2.539-.66Z" fill="#FDDE7C"/><path d="M17.374 9.191c1.06.029 1.433.57 1.117 1.625.862.05 1.59.39 2.184 1.016.23.658.01 1.03-.66 1.117a5.012 5.012 0 0 0-1.524-.61v3.86c1.83.358 2.88 1.458 3.148 3.301-.05 1.557-.727 2.742-2.03 3.555a4.3 4.3 0 0 1-1.118.355c.017.408 0 .814-.05 1.219-.211.471-.567.624-1.067.457a1.172 1.172 0 0 1-.356-.457 6.192 6.192 0 0 1-.05-1.117 4.716 4.716 0 0 1-2.793-1.016c-.339-.674-.152-1.114.558-1.32.468.166.908.386 1.32.66.298.097.603.148.915.152.033-1.626 0-3.251-.102-4.875-2.657-1.148-3.215-2.942-1.676-5.383a3.457 3.457 0 0 1 1.778-.914c-.017-.407 0-.814.05-1.218.14-.123.258-.258.356-.407Z" fill="#040301"/><path d="M16.866 12.34c.134 1 .134 2.015 0 3.047-1.041-.51-1.295-1.289-.762-2.336.205-.296.459-.533.762-.711Z" fill="#F6D879"/><path d="M18.491 17.723c1.753.776 2.075 1.96.965 3.554a4.166 4.166 0 0 1-.914.61 85.265 85.265 0 0 1-.051-4.164Z" fill="#F8DA7A"/><path d="M37.077 19.145c3.354 1.35 6.08 3.517 8.176 6.5.35.598.671 1.208.965 1.828-2.93-3.987-6.89-5.883-11.883-5.688.223-.901.393-1.815.508-2.742.746.005 1.49.039 2.234.102Z" fill="#AFE19C"/><path d="M37.077 19.145c5.074.673 9.001 3.145 11.781 7.414.308.134.613.134.914 0 .213.46.45.9.711 1.32a.76.76 0 0 1-.355.305 1.058 1.058 0 0 0-.153.507c1.434 3.808 1.485 7.634.153 11.477-2.457 5.925-6.875 9.31-13.254 10.156 4.183-1.527 7.315-4.269 9.394-8.226.07-.096.054-.163-.05-.203a13.47 13.47 0 0 0 1.066-1.93c1.73-4.353 1.374-8.517-1.066-12.492a23.63 23.63 0 0 0-.965-1.828c-2.097-2.983-4.822-5.15-8.176-6.5Z" fill="#93D3A2"/><path d="m27.835 30.215 1.117-1.016a.84.84 0 0 0 .812.153 15.756 15.756 0 0 0 4.012-5.84c.108-.07.227-.121.355-.153 5.36-.292 9.27 1.926 11.731 6.653 1.922 5.032.991 9.45-2.793 13.254-4.264 3.396-8.8 3.802-13.61 1.218-4-2.705-5.778-6.48-5.331-11.324a20.677 20.677 0 0 0 3.605-1.98.92.92 0 0 0 .102-.965Z" fill="#B1E39D"/><path d="M33.218 40.574c-.056.006-.09.04-.102.102a51.5 51.5 0 0 0 4.57.101c.847-.017 1.694 0 2.54.051.55.32.65.76.304 1.32l-.305.102c-3.013.044-6.026.01-9.039-.102-.377-.264-.495-.62-.355-1.066.83-.931 1.54-1.947 2.133-3.047a6.744 6.744 0 0 0 .101-2.234 34.309 34.309 0 0 0-2.59-.153c-.566-.52-.532-.993.102-1.421l1.828-.102a6.169 6.169 0 0 1-.863-4.012c.494-1.63 1.595-2.595 3.3-2.894 2.088-.298 3.798.362 5.13 1.98.297.392.483.832.558 1.32-.209.841-.666 1.01-1.371.508-.878-1.987-2.385-2.715-4.52-2.183-1.355.459-1.88 1.39-1.574 2.793a7.842 7.842 0 0 0 1.067 2.437c.98.085 1.962.136 2.945.153.633.423.666.897.102 1.421-.88.051-1.76.068-2.641.051.32 1.838-.12 3.463-1.32 4.875Z" fill="#030403"/><path d="M22.249 33.77c.167.516.268 1.058.305 1.624a13.15 13.15 0 0 0 .761 3.86c1.994 4.802 5.565 7.595 10.715 8.379 5.133.295 9.195-1.618 12.188-5.739.104.04.12.108.05.204-2.08 3.957-5.211 6.7-9.394 8.226a15.306 15.306 0 0 1-8.024-1.37c-5.973-3.091-8.986-8.017-9.039-14.778a25.4 25.4 0 0 0 2.438-.407Z" fill="#B0E29D"/><path d="M22.249 33.77c.072-.092.173-.126.305-.102v1.727a6.648 6.648 0 0 0-.305-1.626Z" fill="#5F7A55"/><path opacity=".929" d="M9.96 37.832c.32-.03.624.021.914.152a60.493 60.493 0 0 1 3.199 2.793c.194.698-.06 1.07-.762 1.117a.884.884 0 0 1-.71-.253l-1.372-1.168c-.05 1.861-.067 3.723-.05 5.586 1.625-.017 3.25 0 4.874.05.512.306.63.73.356 1.27a.708.708 0 0 1-.356.254 88.291 88.291 0 0 1-5.992 0 1.17 1.17 0 0 1-.457-.356l-.101-6.906a18.35 18.35 0 0 1-1.778 1.473c-.965.152-1.32-.238-1.066-1.168 1.09-.972 2.19-1.92 3.3-2.844Z" fill="#000"/><path d="m33.218 40.574 4.468.203c-1.525.034-3.048 0-4.57-.101.013-.062.046-.096.102-.102Z" fill="#789A6B"/></g><defs><clipPath id="a"><path fill="#fff" transform="translate(.667)" d="M0 0h52v52H0z"/></clipPath></defs></svg>