<svg width="64" height="64" fill="none" xmlns="http://www.w3.org/2000/svg"><path fill-rule="evenodd" clip-rule="evenodd" d="M61.79 13.11 32.294 2.716a.875.875 0 0 0-.582 0L2.209 13.11a.875.875 0 0 0 0 1.65l11.53 4.064v11.733a.873.873 0 0 0 .43.753c6.22 3.682 12.048 5.516 17.819 5.607h.028c5.768-.09 11.595-1.925 17.815-5.607a.875.875 0 0 0 .43-.753V18.825l4.021-1.417v8.369a2.942 2.942 0 0 0-2.062 2.804c0 .647.212 1.245.568 1.73l-1.431 4.211a2.048 2.048 0 0 0 .071 1.474l.006.012c.265.57.762.91 1.328.91h4.787c.566 0 1.063-.34 1.33-.914a2.03 2.03 0 0 0 .073-1.49l-1.428-4.202a2.912 2.912 0 0 0 .567-1.731c0-1.315-.867-2.43-2.059-2.804v-8.986l5.759-2.03a.876.876 0 0 0 0-1.65Zm-8.787 22.058a.27.27 0 0 1 .014-.09l1.257-3.7a2.927 2.927 0 0 0 1.764.001l1.254 3.69a.342.342 0 0 1 .017.099h-4.307Zm2.154-5.404a1.187 1.187 0 0 1-1.187-1.183 1.186 1.186 0 1 1 1.187 1.184Zm-23.155 5.404c-5.322-.086-10.729-1.76-16.512-5.112v-2.648c5.73 3.18 11.141 4.77 16.498 4.854h.028c5.354-.084 10.764-1.675 16.494-4.854v2.648c-5.783 3.353-11.188 5.026-16.508 5.112Zm16.508-9.772c-5.787 3.355-11.192 5.03-16.508 5.116-5.319-.086-10.725-1.761-16.512-5.116v-5.955l16.22 5.716a.876.876 0 0 0 .583 0l16.217-5.715v5.954Zm-16.508-1.992-26.87-9.468 26.87-9.468 26.866 9.468-26.866 9.469Zm21.48 16.526a.881.881 0 0 0-.127.01 148.299 148.299 0 0 1-18.23 1.532c-.029-.09-.058-.18-.09-.27a.875.875 0 0 0-1.028-.564 6.896 6.896 0 0 1-3.48-.068.876.876 0 0 0-1.101.917c-6.03-.106-12.115-.59-18.12-1.44a3.451 3.451 0 0 0-.887-.117c-3.053 0-5.446 4.019-5.446 9.149 0 5.13 2.393 9.145 5.446 9.145.294 0 .587-.038.871-.113a146.71 146.71 0 0 1 13.88-1.279l-.56.969a.874.874 0 0 0 .86 1.306l2.107-.246.84 1.946a.876.876 0 0 0 1.56.09l2.057-3.558a6.828 6.828 0 0 1 1.972.177.876.876 0 0 0 .5-.03l1.971 3.412a.876.876 0 0 0 1.562-.091l.84-1.946 2.106.246a.875.875 0 0 0 .86-1.306l-.48-.831c4.061.256 8.087.673 11.99 1.245a.88.88 0 0 0 .126.009c3.052 0 5.443-4.017 5.443-9.145 0-5.128-2.391-9.149-5.443-9.149Zm-17.057 10a3.292 3.292 0 0 1-1.543 2.013 3.287 3.287 0 0 1-2.512.33 3.289 3.289 0 0 1-2.01-1.543 3.288 3.288 0 0 1-.33-2.512 3.323 3.323 0 0 1 4.056-2.344 3.29 3.29 0 0 1 2.009 1.543c.442.766.56 1.658.33 2.512Zm-2.823-7.437c.13.474.244 1.003.342 1.57a5.033 5.033 0 0 0-2.09.143 21.154 21.154 0 0 0-.32-1.674 8.62 8.62 0 0 0 2.068-.04ZM12.883 43.65c.792 1.435 1.229 3.363 1.229 5.428 0 .142-.003.284-.007.425a20 20 0 0 0-2.522.143c.109-.55.165-1.132.165-1.727 0-1.94-.57-3.737-1.488-4.688a2.651 2.651 0 0 0-1.421-.785c.486-.482 1.014-.75 1.535-.765.186.028.373.054.56.08.703.22 1.393.882 1.949 1.889Zm-4.93 10.852c-.793-1.435-1.23-3.361-1.23-5.424 0-1.514.236-2.954.674-4.18.176-.392.498-.672.844-.733.277-.05.532.045.758.28.598.619.999 2.015.999 3.474 0 .885-.159 1.752-.446 2.441a.875.875 0 0 0 .942 1.202c1.364-.213 2.407-.308 3.448-.309-.195 1.222-.554 2.336-1.059 3.25-.556 1.006-1.245 1.667-1.948 1.888-.188.026-.375.052-.562.08-.86-.025-1.74-.738-2.42-1.968Zm6.066 1.485c1.135-1.664 1.843-4.121 1.843-6.91 0-2.787-.707-5.243-1.84-6.908 5.27.639 10.57.997 15.88 1.074.117.543.219 1.139.302 1.778a5.035 5.035 0 0 0-1.864 2.742 5.02 5.02 0 0 0 .204 3.226l-2.337 4.046c-4.097.154-8.18.473-12.188.952Zm15.314 2.527-.408-.946a.876.876 0 0 0-.905-.522l-1.022.12 2.621-4.541a5.03 5.03 0 0 0 2.298 1.337l.04.01-2.624 4.542Zm3.705-2.915.19-.328.212.368a8.345 8.345 0 0 0-.402-.04Zm5.397 1.447a.875.875 0 0 0-.905.522l-.408.946-2.623-4.54a5.085 5.085 0 0 0 2.336-1.35l2.622 4.541-1.022-.12Zm17.51-2.543c-.676 1.225-1.55 1.939-2.407 1.969a148.993 148.993 0 0 0-13.22-1.317l-2.407-4.168a5.027 5.027 0 0 0-.3-4.446 5.033 5.033 0 0 0-1.798-1.822 23.719 23.719 0 0 0-.248-1.507c5.95-.145 11.99-.66 17.973-1.532.856.03 1.73.744 2.407 1.97.792 1.435 1.228 3.362 1.228 5.427 0 2.066-.436 3.99-1.228 5.425Zm-21.467-5.096a1.298 1.298 0 0 1-1.587.918 1.293 1.293 0 0 1-.914-1.587 1.296 1.296 0 0 1 1.587-.918c.691.184 1.102.896.914 1.587Z" fill="#000"/><path d="M33.944 44.064a17.125 17.125 0 0 0-.341-1.571 8.636 8.636 0 0 1-2.07.039c.123.516.23 1.078.322 1.674a5.03 5.03 0 0 1 2.089-.142Z" fill="#E53935"/><path d="m29.62 52.626-2.622 4.54 1.022-.12a.876.876 0 0 1 .905.523l.409.946 2.623-4.542-.04-.01a5.03 5.03 0 0 1-2.297-1.337Z" fill="#E54848"/><path d="M33.038 55.6c.135.01.269.024.403.04l-.213-.368-.19.328Z" fill="#E53935"/><path d="M11.748 47.92a8.92 8.92 0 0 1-.165 1.727 19.98 19.98 0 0 1 2.522-.143c.004-.141.007-.283.007-.425 0-2.065-.437-3.993-1.229-5.428-.556-1.008-1.246-1.668-1.95-1.889-.186-.026-.373-.052-.56-.08-.52.015-1.048.283-1.534.765a2.652 2.652 0 0 1 1.42.784c.918.952 1.489 2.749 1.489 4.69Z" fill="#C9D6D4"/><path d="M28.34 47.764a5.035 5.035 0 0 1 1.864-2.742 21.442 21.442 0 0 0-.303-1.778 149.934 149.934 0 0 1-15.88-1.074c1.134 1.665 1.84 4.122 1.84 6.909s-.707 5.245-1.842 6.91c4.008-.48 8.09-.8 12.188-.953l2.337-4.047a5.02 5.02 0 0 1-.204-3.225Z" fill="#DCEAE9"/><path d="M36.426 49.93a3.288 3.288 0 0 0-.33-2.513 3.29 3.29 0 0 0-2.861-1.654 3.322 3.322 0 0 0-3.205 2.455 3.288 3.288 0 0 0 .33 2.512 3.29 3.29 0 0 0 2.01 1.544 3.287 3.287 0 0 0 2.512-.331 3.292 3.292 0 0 0 1.544-2.013Zm-1.947-.522a1.298 1.298 0 0 1-1.588.918 1.293 1.293 0 0 1-.914-1.587 1.296 1.296 0 0 1 1.588-.918c.69.184 1.102.897.914 1.587Z" fill="#EF5350"/><path d="M10.36 51.573a.875.875 0 0 1-.808-1.212c.288-.69.446-1.556.446-2.44 0-1.46-.401-2.856-.998-3.475-.227-.235-.482-.33-.76-.28-.344.06-.667.341-.842.732-.439 1.227-.674 2.666-.674 4.18 0 2.064.437 3.99 1.23 5.425.68 1.23 1.56 1.944 2.42 1.968l.561-.08c.703-.22 1.392-.881 1.948-1.887.505-.914.865-2.029 1.06-3.25-1.041 0-2.085.096-3.449.309a.877.877 0 0 1-.135.01Z" fill="#BCCECC"/><path d="M32.002 25.207a.876.876 0 0 1-.291-.05L15.49 19.441v5.955c5.787 3.355 11.194 5.03 16.512 5.116 5.316-.086 10.721-1.761 16.508-5.116v-5.954l-16.217 5.716a.875.875 0 0 1-.291.05Z" fill="#3E4754"/><path d="M55.157 31.514c-.3 0-.597-.045-.883-.136l-1.257 3.7a.29.29 0 0 0-.014.09h4.307a.345.345 0 0 0-.018-.099l-1.254-3.69c-.285.09-.582.136-.88.135Z" fill="#FFD54F"/><path d="M53.538 41.681a150.135 150.135 0 0 1-17.972 1.532c.098.5.18 1.002.247 1.508a5.033 5.033 0 0 1 1.798 1.822 5.027 5.027 0 0 1 .3 4.445l2.407 4.168c4.477.248 8.922.69 13.22 1.317.856-.03 1.73-.744 2.407-1.97.792-1.434 1.229-3.36 1.229-5.424 0-2.064-.437-3.993-1.229-5.428-.676-1.226-1.55-1.94-2.407-1.97Z" fill="#DCEAE9"/><path d="M32.002 32.262h-.014c-5.357-.084-10.767-1.675-16.498-4.854v2.648c5.783 3.353 11.19 5.026 16.512 5.112 5.32-.086 10.725-1.76 16.508-5.112v-2.648c-5.73 3.18-11.14 4.77-16.494 4.854h-.014Zm23.156-4.868a1.186 1.186 0 1 0-.003 2.37 1.186 1.186 0 0 0 .003-2.37Z" fill="#FFB74D"/><path d="M35.757 53.458a5.087 5.087 0 0 1-1.258.517l2.623 4.54.409-.946a.876.876 0 0 1 .905-.522l1.022.12-2.623-4.543c-.32.325-.683.606-1.078.834Z" fill="#E54848"/><path d="m5.133 13.936 26.869 9.468 26.866-9.468-26.866-9.468-26.87 9.468Z" fill="#464F5E"/></svg>