<svg width="64" height="64" fill="none" xmlns="http://www.w3.org/2000/svg"><path d="M31.981 63.962c17.663 0 31.981-14.318 31.981-31.98C63.962 14.318 49.645 0 31.982 0 14.318 0 0 14.319 0 31.981c0 17.663 14.319 31.981 31.981 31.981Z" fill="#FFD200"/><path d="M31.981 62.313c16.752 0 30.332-13.58 30.332-30.332 0-16.751-13.58-30.331-30.332-30.331C15.23 1.65 1.65 15.23 1.65 31.98c0 16.752 13.58 30.332 30.331 30.332Z" fill="#FA0"/><path d="M31.981 61.038c16.048 0 29.057-13.01 29.057-29.057 0-16.047-13.01-29.057-29.057-29.057-16.048 0-29.057 13.01-29.057 29.057 0 16.048 13.01 29.057 29.057 29.057Z" fill="#FFF9DD"/><path fill-rule="evenodd" clip-rule="evenodd" d="M19.009 9.523c-.3.15-.675.075-.863-.225a.658.658 0 0 1 .225-.9c1.05-.562 2.1-1.087 3.187-1.574a29.67 29.67 0 0 1 3.375-1.125c5.96-1.612 12.072-1.087 17.471 1.125a27.298 27.298 0 0 1 13.16 11.547c0 .038.038.038.038.038.337.6.637 1.2.937 1.762.3.637.562 1.237.787 1.875.15.3-.037.675-.337.825-.338.112-.713-.038-.825-.375-.263-.6-.487-1.2-.787-1.763a18.426 18.426 0 0 0-.9-1.687v-.037a25.892 25.892 0 0 0-12.56-10.986A25.74 25.74 0 0 0 25.27 6.936c-1.087.3-2.175.637-3.224 1.087-1.05.413-2.063.938-3.037 1.5ZM10.16 17.96c-.187.3-.6.375-.862.187-.3-.187-.412-.6-.225-.862a38.1 38.1 0 0 1 1.425-1.987 18.929 18.929 0 0 1 1.575-1.875c.224-.262.637-.262.9-.037a.646.646 0 0 1 .037.9 21.934 21.934 0 0 0-1.5 1.762c-.487.637-.937 1.237-1.35 1.912Zm43.642 28.157a.613.613 0 0 1 .862-.188c.3.188.375.563.188.863a27.072 27.072 0 0 1-4.087 4.949c-1.537 1.425-3.262 2.737-5.174 3.824a27.182 27.182 0 0 1-20.658 2.737c-6.712-1.8-12.748-6.186-16.535-12.71v-.037a26.71 26.71 0 0 1-3.487-10.76C4.5 30.968 4.95 27.106 6.15 23.47c.112-.337.45-.524.787-.412a.658.658 0 0 1 .412.825A26.231 26.231 0 0 0 6.186 34.68a25.605 25.605 0 0 0 3.3 10.273h.037c3.562 6.224 9.336 10.385 15.747 12.11a25.908 25.908 0 0 0 19.684-2.587h.037c1.8-1.05 3.45-2.287 4.874-3.674 1.537-1.425 2.812-3 3.937-4.687Zm4.124-12.935c0-.375.3-.637.675-.637.337.037.6.337.6.675a31.66 31.66 0 0 1-.15 1.95c-.075.637-.188 1.274-.3 1.949a.637.637 0 0 1-.75.487.696.696 0 0 1-.525-.75c.113-.6.225-1.2.3-1.837.075-.637.113-1.237.15-1.837Z" fill="#FFE0C7"/><path d="M31.5 45.083c7.028 0 12.725-5.697 12.725-12.725S38.528 19.632 31.5 19.632 18.775 25.33 18.775 32.358c0 7.028 5.697 12.725 12.725 12.725Z" fill="#FEE45A"/><path d="M37.345 21.052a13.177 13.177 0 0 1 4.183 9.645c0 7.298-5.916 13.214-13.214 13.214-.915 0-1.827-.094-2.722-.281a12.668 12.668 0 0 0 5.908 1.453c7.028 0 12.725-5.697 12.725-12.725 0-4.921-2.793-9.189-6.88-11.306Z" fill="#FED402"/><path d="m41.893 37.37.868 1.587a.31.31 0 0 0 .123.123l1.588.868a.309.309 0 0 1 0 .542l-1.588.869a.31.31 0 0 0-.123.122l-.868 1.588a.309.309 0 0 1-.542 0l-.868-1.588a.309.309 0 0 0-.123-.122l-1.588-.869a.309.309 0 0 1 0-.542l1.588-.868a.308.308 0 0 0 .123-.123l.868-1.588a.309.309 0 0 1 .542 0ZM20.249 25.944l.595 1.088c.02.035.049.064.084.084l1.088.595a.212.212 0 0 1 0 .372l-1.088.595a.213.213 0 0 0-.084.084l-.595 1.088a.212.212 0 0 1-.371 0l-.596-1.088a.212.212 0 0 0-.084-.084l-1.088-.595a.212.212 0 0 1 0-.372l1.088-.595a.211.211 0 0 0 .084-.084l.596-1.088a.212.212 0 0 1 .37 0Z" fill="#C4E2FF"/><path d="M31.5 18C24.044 18 18 19.833 18 22.094s6.044 4.095 13.5 4.095S45 24.355 45 22.094C45 19.833 38.956 18 31.5 18Zm0 5.892c-5.317 0-10.027-.881-10.027-1.968 0-.847 3.012-1.568 6.678-1.846 1.067-.29 2.19-.446 3.349-.446 1.158 0 2.28.155 3.346.445 3.667.278 6.68 1 6.68 1.847 0 1.087-4.71 1.968-10.026 1.968Z" fill="#8AC9FE"/><path d="M31.996 18.003a13.169 13.169 0 0 1 4.374 2.22c2.942.341 5.157.975 5.157 1.7 0 .475-.897.91-2.35 1.25.443.638.828 1.313 1.152 2.019 2.86-.751 4.67-1.86 4.67-3.098 0-2.21-5.777-4.012-13.003-4.09Z" fill="#60B7FF"/><path d="M26.695 27.77a1.577 1.577 0 0 0-2.101.752m11.711-.752a1.577 1.577 0 0 1 2.1.752m-14.018 3.622a2.411 2.411 0 1 1 4.823 0m4.58 0a2.411 2.411 0 1 1 4.822 0m-2.616 3.539a4.496 4.496 0 0 1-8.992 0" stroke="#000" stroke-width=".5" stroke-miterlimit="10" stroke-linecap="round" stroke-linejoin="round"/><path d="M40.053 22.935a12.678 12.678 0 0 0-8.553-3.303c-3.293 0-6.294 1.25-8.553 3.303" stroke="#000" stroke-width=".5" stroke-miterlimit="10" stroke-linejoin="round"/><path d="M42.578 38.622a12.56 12.56 0 0 0 .98-2.19" stroke="#000" stroke-width=".5" stroke-miterlimit="10" stroke-linecap="round" stroke-linejoin="round"/><path d="M19.287 28.771a12.727 12.727 0 0 0-.512 3.587c0 7.028 5.697 12.725 12.725 12.725 3.482 0 6.637-1.4 8.935-3.666" stroke="#000" stroke-width=".5" stroke-miterlimit="10" stroke-linejoin="round"/><path d="M44.03 34.582c.13-.735.195-1.479.195-2.225 0-2.843-.933-5.468-2.508-7.587m.176 12.6.868 1.587a.31.31 0 0 0 .123.123l1.588.868a.309.309 0 0 1 0 .542l-1.588.869a.31.31 0 0 0-.123.122l-.868 1.588a.309.309 0 0 1-.542 0l-.868-1.588a.308.308 0 0 0-.123-.122l-1.588-.869a.309.309 0 0 1 0-.542l1.588-.868a.309.309 0 0 0 .123-.123l.868-1.588a.309.309 0 0 1 .542 0ZM20.249 25.944l.595 1.088c.02.035.049.065.084.084l1.088.595a.212.212 0 0 1 0 .372l-1.088.595a.212.212 0 0 0-.084.084l-.595 1.088a.212.212 0 0 1-.371 0l-.596-1.088a.211.211 0 0 0-.084-.084l-1.088-.595a.212.212 0 0 1 0-.372l1.088-.595a.211.211 0 0 0 .084-.084l.596-1.088a.212.212 0 0 1 .37 0Z" stroke="#000" stroke-width=".5" stroke-miterlimit="10" stroke-linecap="round" stroke-linejoin="round"/><path d="M20.416 24.432c2.44 1.062 6.494 1.757 11.084 1.757 7.456 0 13.5-1.834 13.5-4.095 0-.724-.621-1.404-1.71-1.995m-1.77-.748C39.05 18.52 35.477 18 31.5 18 24.044 18 18 19.833 18 22.094c0 .48.273.94.774 1.368m16.072-3.384c3.667.277 6.68 1 6.68 1.846 0 1.087-4.71 1.968-10.026 1.968-5.317 0-10.026-.881-10.026-1.968 0-.847 3.012-1.568 6.678-1.846" stroke="#000" stroke-width=".5" stroke-miterlimit="10" stroke-linecap="round" stroke-linejoin="round"/><path d="M21.283 24.77a12.75 12.75 0 0 0-.908 1.406" stroke="#000" stroke-width=".5" stroke-miterlimit="10" stroke-linejoin="round"/></svg>