<svg width="64" height="64" fill="none" xmlns="http://www.w3.org/2000/svg"><path d="M31.981 63.962c17.663 0 31.981-14.318 31.981-31.98C63.962 14.318 49.645 0 31.982 0 14.318 0 0 14.319 0 31.981c0 17.663 14.319 31.981 31.981 31.981Z" fill="#FFD200"/><path d="M31.981 62.313c16.752 0 30.332-13.58 30.332-30.332 0-16.751-13.58-30.331-30.332-30.331C15.23 1.65 1.65 15.23 1.65 31.98c0 16.752 13.58 30.332 30.331 30.332Z" fill="#FA0"/><path d="M31.981 61.038c16.048 0 29.057-13.01 29.057-29.057 0-16.047-13.01-29.057-29.057-29.057-16.048 0-29.057 13.01-29.057 29.057 0 16.048 13.01 29.057 29.057 29.057Z" fill="#FFF9DD"/><path fill-rule="evenodd" clip-rule="evenodd" d="M19.009 9.523c-.3.15-.675.075-.863-.225a.658.658 0 0 1 .225-.9c1.05-.562 2.1-1.087 3.187-1.574a29.67 29.67 0 0 1 3.375-1.125c5.96-1.612 12.072-1.087 17.471 1.125a27.298 27.298 0 0 1 13.16 11.547c0 .038.038.038.038.038.337.6.637 1.2.937 1.762.3.637.562 1.237.787 1.875.15.3-.037.675-.337.825-.338.112-.713-.038-.825-.375-.263-.6-.487-1.2-.787-1.763a18.426 18.426 0 0 0-.9-1.687v-.037a25.892 25.892 0 0 0-12.56-10.986A25.74 25.74 0 0 0 25.27 6.936c-1.087.3-2.175.637-3.224 1.087-1.05.413-2.063.938-3.037 1.5ZM10.16 17.96c-.187.3-.6.375-.862.187-.3-.187-.412-.6-.225-.862a38.1 38.1 0 0 1 1.425-1.987 18.929 18.929 0 0 1 1.575-1.875c.224-.262.637-.262.9-.037a.646.646 0 0 1 .037.9 21.934 21.934 0 0 0-1.5 1.762c-.487.637-.937 1.237-1.35 1.912Zm43.642 28.157a.613.613 0 0 1 .862-.188c.3.188.375.563.188.863a27.072 27.072 0 0 1-4.087 4.949c-1.537 1.425-3.262 2.737-5.174 3.824a27.182 27.182 0 0 1-20.658 2.737c-6.712-1.8-12.748-6.186-16.535-12.71v-.037a26.71 26.71 0 0 1-3.487-10.76C4.5 30.968 4.95 27.106 6.15 23.47c.112-.337.45-.524.787-.412a.658.658 0 0 1 .412.825A26.231 26.231 0 0 0 6.186 34.68a25.605 25.605 0 0 0 3.3 10.273h.037c3.562 6.224 9.336 10.385 15.747 12.11a25.908 25.908 0 0 0 19.684-2.587h.037c1.8-1.05 3.45-2.287 4.874-3.674 1.537-1.425 2.812-3 3.937-4.687Zm4.124-12.935c0-.375.3-.637.675-.637.337.037.6.337.6.675a31.66 31.66 0 0 1-.15 1.95c-.075.637-.188 1.274-.3 1.949a.637.637 0 0 1-.75.487.696.696 0 0 1-.525-.75c.113-.6.225-1.2.3-1.837.075-.637.113-1.237.15-1.837Z" fill="#FFE0C7"/><path d="M21.125 39.509c2.482-3.39 5.691-7.926 7.353-11.469l7.064 7.064c-3.815 1.82-8.367 4.985-11.47 7.353l-2.947-2.948Z" fill="#FFDF40"/><path d="m34.962 34.524.58.58c-3.815 1.82-8.367 4.985-11.469 7.353l-.573-.573.027-.028a64.783 64.783 0 0 1 11.435-7.332Z" fill="#FFBE40"/><path d="M28.478 26.847a.844.844 0 0 1 1.193 0l7.064 7.064a.844.844 0 0 1-1.193 1.193l-7.064-7.064a.844.844 0 0 1 0-1.193Z" fill="#6CF"/><path d="M36.735 35.104a.844.844 0 0 1-1.193 0l-.58-.58 1.193-1.193.58.58a.844.844 0 0 1 0 1.193Z" fill="#4DA6FF"/><path d="m20.501 40.133.624-.624 2.948 2.948-.624.624a2.084 2.084 0 0 1-2.948-2.948Z" fill="#6CF"/><path d="m23.5 41.884.573.573-.624.624a2.085 2.085 0 0 1-2.948 0c.702.262 1.378.198 2.027-.225l.972-.972Z" fill="#4DA6FF"/><path d="M35.549 35.394a1.107 1.107 0 0 0 1.416-1.69l-7.064-7.064a1.106 1.106 0 0 0-1.69 1.417c-1.658 3.475-4.733 7.832-7.243 11.26l-.61.609a2.345 2.345 0 0 0-.655 2.04l-.521.523c-.326.325-.501.704-.507 1.095a1.31 1.31 0 0 0 1.313 1.329c.364 0 .756-.15 1.113-.506l.51-.51a2.365 2.365 0 0 0 1.307-.141c.285-.118.544-.291.762-.51l.61-.61c1.957-1.494 6.907-5.137 11.259-7.242Zm-.411-.386c-4.23 2.078-8.953 5.527-10.997 7.08l-2.626-2.626c2.456-3.359 5.415-7.566 7.084-10.992l6.539 6.538Zm-6.43-7.995a.58.58 0 0 1 .82 0l7.065 7.064a.58.58 0 0 1-.82.82l-7.064-7.064a.58.58 0 0 1 0-.82Zm-7.98 17.021c-.227.227-.48.349-.73.352a.781.781 0 0 1-.565-.23c-.292-.292-.367-.805.121-1.294l.32-.32c.232.522.647.941 1.167 1.179l-.314.313Zm2.579-1.16a1.82 1.82 0 1 1-2.575-2.575l.437-.438 2.575 2.576-.437.437Zm9.201-14.725a.264.264 0 0 1 0-.372c1.301-1.302 2.307-3.973 1.44-6.764a.263.263 0 0 1 .503-.156c.412 1.33.46 2.745.137 4.099-.298 1.257-.905 2.39-1.707 3.194a.264.264 0 0 1-.373 0Zm9.549.974c-2.79-.867-5.462.138-6.763 1.44a.262.262 0 0 1-.29.06.264.264 0 0 1-.083-.434c.803-.802 1.937-1.408 3.194-1.707a7.772 7.772 0 0 1 4.099.137.264.264 0 0 1-.157.504Zm-6.732-5.492c.038.4.24.8.57 1.13a2.79 2.79 0 0 0 1.543.806c-1.32 1.635-3.715 3.315-3.74 3.333a.264.264 0 0 0 .3.433c.116-.081 2.793-1.959 4.093-3.752.631-.068 1.232-.374 1.752-.895 1.324-1.324.51-3.015.502-3.032a.264.264 0 1 0-.472.234c.006.014.657 1.366-.402 2.425-.288.3-.644.525-1.037.659.295-.712.468-1.799-.24-2.508a1.861 1.861 0 0 0-1.009-.51c-.362-.053-.906-.005-1.439.528a1.413 1.413 0 0 0-.421 1.15Zm.794-.776c.26-.26.54-.39.837-.39.05 0 .102.003.152.01.269.046.517.172.712.362.592.592.296 1.697-.02 2.232-.554-.005-1.097-.246-1.531-.68-.244-.244-.393-.53-.42-.808a.882.882 0 0 1 .27-.726ZM23.93 26.982a.264.264 0 0 1 .264-.264h.7v-.699a.264.264 0 0 1 .527 0v.7h.699a.263.263 0 1 1 0 .527h-.7v.7a.264.264 0 0 1-.527 0v-.7h-.7a.264.264 0 0 1-.263-.264Zm19.798 6.082a.264.264 0 0 1-.263.263h-.7v.7a.264.264 0 1 1-.527 0v-.7h-.7a.263.263 0 1 1 0-.527h.7v-.7a.264.264 0 0 1 .527 0v.7h.7a.264.264 0 0 1 .263.264Zm-6.43 5.462a.263.263 0 0 1-.265.263h-.699v.7a.264.264 0 0 1-.527 0v-.7h-.7a.264.264 0 1 1 0-.527h.7v-.7a.264.264 0 0 1 .527 0v.7h.7a.265.265 0 0 1 .263.264Zm7.027-15.42a.264.264 0 0 1-.264.264h-.699v.7a.264.264 0 0 1-.527 0v-.7h-.7a.264.264 0 0 1 0-.527h.7v-.7a.263.263 0 1 1 .527 0v.7h.7a.264.264 0 0 1 .263.264Zm-17.277-2.472a.264.264 0 0 1 .264-.263h.7v-.7a.263.263 0 1 1 .527 0v.7h.699a.264.264 0 0 1 0 .527h-.7v.7a.264.264 0 1 1-.527 0v-.7h-.699a.264.264 0 0 1-.264-.264Zm7.311-1.32a.264.264 0 0 1 .264-.264h.7v-.7a.263.263 0 1 1 .526 0v.7h.7a.264.264 0 0 1 0 .527h-.7v.7a.264.264 0 0 1-.527 0v-.7h-.7a.263.263 0 0 1-.263-.263Z" fill="#000"/></svg>