<svg width="56" height="59" fill="none" xmlns="http://www.w3.org/2000/svg"><path d="M5.349 46.769c5.42-7.4 12.426-17.304 16.053-25.04l15.422 15.423c-8.329 3.972-18.267 10.883-25.039 16.053L5.349 46.77Z" fill="#FFDF40"/><path d="m35.558 35.886 1.266 1.266c-8.329 3.972-18.267 10.883-25.04 16.054l-1.25-1.251.06-.061a141.432 141.432 0 0 1 24.964-16.008Z" fill="#FFBE40"/><path d="M21.402 19.125a1.842 1.842 0 0 1 2.604 0l15.422 15.422a1.842 1.842 0 0 1-2.604 2.605L21.402 21.73a1.842 1.842 0 0 1 0-2.605Z" fill="#6CF"/><path d="M39.428 37.152a1.842 1.842 0 0 1-2.605 0l-1.266-1.267 2.604-2.604 1.267 1.266a1.842 1.842 0 0 1 0 2.605Z" fill="#4DA6FF"/><path d="m3.986 48.131 1.362-1.362 6.436 6.436-1.362 1.362a4.551 4.551 0 0 1-6.436-6.436Z" fill="#6CF"/><path d="m10.533 51.955 1.251 1.25-1.362 1.363a4.551 4.551 0 0 1-6.436 0c1.531.572 3.008.432 4.425-.49l2.122-2.123Z" fill="#4DA6FF"/><path d="M36.84 37.785a2.416 2.416 0 0 0 3.092-3.69L24.51 18.675a2.416 2.416 0 0 0-3.69 3.093c-3.62 7.587-10.334 17.1-15.814 24.582l-1.33 1.33a5.122 5.122 0 0 0-1.431 4.456l-1.14 1.14c-.71.71-1.093 1.538-1.105 2.39a2.866 2.866 0 0 0 2.867 2.902c.793 0 1.65-.326 2.428-1.103l1.113-1.114a5.112 5.112 0 0 0 4.517-1.42l1.335-1.334c4.272-3.26 15.078-11.216 24.58-15.81Zm-.899-.843C26.71 41.48 16.396 49.01 11.932 52.398L6.2 46.666c5.362-7.332 11.822-16.518 15.466-23.998l14.275 14.274ZM21.905 19.488a1.268 1.268 0 0 1 1.791 0L39.118 34.91a1.267 1.267 0 0 1-1.79 1.79L21.904 21.28a1.267 1.267 0 0 1 0-1.791ZM4.48 56.65c-.495.495-1.046.76-1.593.768a1.703 1.703 0 0 1-1.233-.503c-.637-.637-.802-1.758.265-2.826l.699-.699a5.115 5.115 0 0 0 2.546 2.575l-.684.684Zm5.632-2.534a3.977 3.977 0 1 1-5.622-5.622l.955-.955 5.622 5.622-.955.955ZM30.2 21.969a.575.575 0 0 1 0-.815c2.841-2.84 5.037-8.673 3.143-14.765a.576.576 0 0 1 1.1-.342 16.973 16.973 0 0 1 .298 8.949c-.65 2.744-1.974 5.22-3.727 6.973a.576.576 0 0 1-.814 0Zm20.848 2.125c-6.092-1.894-11.925.301-14.766 3.143a.577.577 0 1 1-.814-.814c1.753-1.753 4.229-3.076 6.973-3.728 2.956-.703 6.047-.6 8.95.3a.575.575 0 0 1-.343 1.1ZM36.35 12.104c.084.871.526 1.747 1.247 2.468a6.09 6.09 0 0 0 3.366 1.76c-2.881 3.569-8.11 7.236-8.166 7.276a.575.575 0 0 0 .659.944c.252-.176 6.095-4.276 8.934-8.19 1.378-.15 2.69-.818 3.826-1.954 2.89-2.89 1.113-6.583 1.095-6.62a.575.575 0 1 0-1.032.511c.015.03 1.436 2.982-.877 5.294a5.673 5.673 0 0 1-2.264 1.437c.645-1.554 1.023-3.926-.526-5.474-.6-.59-1.37-.98-2.2-1.114-.79-.116-1.978-.011-3.142 1.153a3.083 3.083 0 0 0-.92 2.51Zm1.734-1.695c.567-.567 1.18-.852 1.828-.852.11 0 .222.008.332.024a2.922 2.922 0 0 1 1.554.79c1.293 1.292.645 3.704-.042 4.872h-.003c-1.207-.01-2.394-.537-3.342-1.485-.532-.532-.857-1.158-.915-1.763a1.926 1.926 0 0 1 .588-1.586Zm-26.611 9.01a.576.576 0 0 1 .575-.575h1.527v-1.527a.575.575 0 1 1 1.152 0v1.527h1.526a.576.576 0 0 1 0 1.151h-1.527v1.527a.576.576 0 0 1-1.15 0v-1.526h-1.528a.576.576 0 0 1-.575-.576Zm43.224 13.279a.576.576 0 0 1-.576.575h-1.526V34.8a.575.575 0 1 1-1.152 0v-1.526h-1.527a.576.576 0 0 1 0-1.152h1.527v-1.527a.576.576 0 1 1 1.152 0v1.527h1.526a.575.575 0 0 1 .576.576Zm-14.04 11.924a.576.576 0 0 1-.576.576h-1.527v1.527a.576.576 0 0 1-1.152 0v-1.527h-1.527a.576.576 0 0 1 0-1.151h1.527V42.52a.576.576 0 1 1 1.151 0v1.526h1.527a.575.575 0 0 1 .576.576ZM56 10.96a.576.576 0 0 1-.576.576h-1.527v1.527a.575.575 0 1 1-1.15 0v-1.527h-1.528a.575.575 0 1 1 0-1.152h1.527V8.857a.576.576 0 0 1 1.151 0v1.527h1.527a.576.576 0 0 1 .576.576ZM18.28 5.561a.576.576 0 0 1 .576-.575h1.527V3.46a.575.575 0 1 1 1.151 0v1.526h1.527a.576.576 0 0 1 0 1.151h-1.527v1.527a.575.575 0 1 1-1.151 0V6.137h-1.527a.576.576 0 0 1-.576-.576Zm15.962-2.883a.575.575 0 0 1 .576-.575h1.526V.576a.576.576 0 0 1 1.152 0v1.527h1.527a.576.576 0 0 1 0 1.15h-1.527v1.528a.575.575 0 1 1-1.152 0V3.254h-1.526a.576.576 0 0 1-.576-.576Z" fill="#000"/></svg>