<svg width="150" height="46" fill="none" xmlns="http://www.w3.org/2000/svg"><path d="M19.49 45.1S0 39.313 0 10.91V0h39.047v10.91C38.98 38.314 19.49 45.1 19.49 45.1Z" fill="#51AF3D"/><path d="M49.823 21.884V6.45h9.445v1.131c0 1.13-.931 2.062-2.062 2.062h-3.592v3.26h4.723v1.13a2.101 2.101 0 0 1-2.129 2.129h-2.527v5.72h-3.858Zm15.366-8.448h1.663c.598 0 1.064-.133 1.463-.466.332-.333.532-.798.532-1.397 0-.865-.333-1.397-.931-1.663-.333-.133-.798-.2-1.397-.2h-1.264v3.726h-.066Zm-3.792 8.448V6.45h5.388c1.33 0 2.328.133 2.993.4a4.273 4.273 0 0 1 2.062 1.662c.532.798.732 1.73.732 2.794 0 .865-.2 1.663-.599 2.461-.399.798-.997 1.33-1.73 1.73v.066c.134.2.334.466.6.931l2.993 5.389h-4.19l-2.728-5.189h-1.796v5.189h-3.725Zm14.168 0V6.45h9.646v3.26h-5.854v2.793h4.656v3.193h-4.656v2.927h6.12v3.26h-9.912Zm12.373 0V6.45h9.645v3.26h-5.92v2.793h4.723v3.193h-4.723v2.927h6.186v3.26h-9.911Zm16.097-3.26h1.53c1.331 0 2.329-.399 3.06-1.13.732-.799 1.131-1.863 1.131-3.327 0-1.463-.399-2.527-1.131-3.326-.731-.731-1.796-1.13-3.06-1.13h-1.53v8.913Zm-3.791 3.26V6.45h5.454c2.462 0 4.391.665 5.788 2.062 1.396 1.33 2.128 3.26 2.128 5.654 0 2.395-.732 4.324-2.128 5.655-1.397 1.396-3.393 2.062-5.788 2.062h-5.454Zm18.958-7.849c0 1.33.399 2.394 1.197 3.326.798.864 1.796 1.33 2.993 1.33 1.198 0 2.196-.465 2.994-1.33s1.197-1.996 1.197-3.326c0-1.264-.399-2.328-1.197-3.127-.798-.864-1.796-1.263-2.994-1.263-1.197 0-2.195.399-2.993 1.263-.798.865-1.197 1.863-1.197 3.127Zm-3.925 0c0-2.262.732-4.124 2.262-5.588 1.53-1.53 3.459-2.261 5.787-2.261s4.257.731 5.787 2.261c1.53 1.53 2.262 3.393 2.262 5.588 0 2.261-.732 4.19-2.262 5.72-1.53 1.53-3.459 2.329-5.787 2.329s-4.257-.799-5.787-2.329c-1.53-1.463-2.262-3.392-2.262-5.72Zm17.894 7.848 1.264-15.365h4.057l2.262 6.518.798 2.528h.067a19.29 19.29 0 0 1 .798-2.528l2.261-6.518h4.058L150 21.883h-3.792l-.465-6.917c0-.333-.067-.732-.067-1.131V12.37h-.066c-.333 1.064-.599 1.93-.865 2.595l-1.596 4.456h-3.193l-1.597-4.457-.865-2.594h-.066c.066.931.066 1.796 0 2.595l-.466 6.917h-3.791Z" fill="#000"/><path d="M30.732 10.975H15.033v9.046h15.699v2.728c0 4.59-1.264 8.248-8.249 8.315h-7.45V42.97c2.595 1.596 4.457 2.128 4.457 2.128s19.49-6.785 19.49-34.19V2.726c0 4.523-1.995 8.181-8.248 8.248Z" fill="#0F5431"/><path d="M49.823 37.252V26.476h3.99c1.132 0 1.996.266 2.662.731.665.466.997 1.198.997 2.062 0 .466-.133.932-.332 1.33-.2.4-.532.732-.931.998.598.2.997.466 1.263.932.266.465.4.931.4 1.463 0 1.065-.4 1.93-1.198 2.395-.798.532-1.73.798-2.927.798l-3.924.067Zm2.66-6.586h1.33c.333 0 .533-.066.732-.266.134-.2.267-.399.267-.731a.854.854 0 0 0-.267-.666c-.133-.2-.399-.266-.731-.266h-1.33v1.93Zm0 4.324h1.597c.333 0 .665-.133.865-.333.2-.2.332-.465.332-.798 0-.332-.066-.599-.266-.798-.2-.2-.466-.333-.865-.333H52.55l-.067 2.262Zm7.118 2.327V26.541h3.791c.932 0 1.663.067 2.13.266.598.266 1.13.665 1.462 1.197.333.533.533 1.198.533 1.996a3.88 3.88 0 0 1-.4 1.73 2.61 2.61 0 0 1-1.197 1.197c.133.133.266.332.4.665l2.061 3.792h-2.926l-1.93-3.659h-1.263v3.659l-2.661-.067Zm2.66-5.92h1.131c.466 0 .799-.133.998-.333.266-.2.333-.532.333-.997 0-.6-.2-.998-.599-1.131-.2-.133-.532-.133-.997-.133h-.865v2.594Zm6.719.466c0-1.597.532-2.86 1.597-3.925 1.064-1.064 2.394-1.596 4.057-1.596 1.663 0 2.993.532 4.058 1.596 1.064 1.065 1.596 2.395 1.596 3.925 0 1.596-.532 2.927-1.596 4.057-1.064 1.065-2.395 1.597-4.058 1.597-1.663 0-2.993-.532-4.057-1.597-1.065-1.13-1.597-2.46-1.597-4.057Zm2.727 0c0 .931.267 1.73.799 2.328a2.728 2.728 0 0 0 2.062.931c.864 0 1.53-.332 2.062-.931.532-.599.798-1.397.798-2.328 0-.865-.266-1.597-.798-2.195-.532-.599-1.264-.865-2.062-.865-.865 0-1.53.266-2.062.865-.532.598-.799 1.33-.799 2.195Zm10.244 5.454V26.541h2.661v4.19h1.064l2.262-4.19h2.86l-2.927 5.122 3.06 5.588h-2.927l-2.261-4.39h-1.064v4.39l-2.728.066Zm10.178.066V26.607h6.785v2.262h-4.125v1.996h3.26v2.261h-3.26v2.062h4.324v2.262l-6.984-.067Zm8.647 0V26.607h3.792c.931 0 1.663.067 2.128.267.599.266 1.131.665 1.464 1.197.332.532.532 1.197.532 1.995 0 .6-.133 1.198-.399 1.73a2.607 2.607 0 0 1-1.198 1.197c.133.133.266.333.4.665l2.062 3.792h-2.927l-1.929-3.659h-1.264v3.659l-2.661-.067Zm2.661-5.853h1.131c.465 0 .798-.133.997-.333.267-.2.333-.532.333-.998 0-.598-.199-.997-.599-1.13-.199-.133-.532-.133-.997-.133h-.865v2.594Z" fill="#000"/></svg>