<svg width="53" height="52" fill="none" xmlns="http://www.w3.org/2000/svg"><g clip-path="url(#a)" fill-rule="evenodd" clip-rule="evenodd"><path opacity=".948" d="M39.994 2.895c.407-.061.763.04 1.066.304.142.53.193 1.07.152 1.625a11.4 11.4 0 0 1 1.524.051c.68.206 1.069.663 1.168 1.371a51.372 51.372 0 0 1 0 4.57c-.131.74-.554 1.232-1.27 1.473-.473.05-.947.068-1.422.05.075 1.223-.416 1.561-1.472 1.016a2.121 2.121 0 0 1-.153-1.015c-.475.017-.949 0-1.422-.05-.65-.143-1.073-.532-1.27-1.169a63.51 63.51 0 0 1 0-5.078 1.83 1.83 0 0 1 1.067-1.168c.54-.05 1.083-.068 1.625-.05-.017-.51 0-1.018.051-1.524a2.03 2.03 0 0 0 .356-.406Z" fill="#000100"/><path d="M38.47 6.45h2.54v4.265h-2.642c-.033-1.44 0-2.862.102-4.266Z" fill="#69E296"/><path d="M38.47 6.45a36.726 36.726 0 0 1 3.86-.102v4.367h-1.32V6.449h-2.54Z" fill="#11D59E"/><path opacity=".948" d="M31.665 7.262c.438-.072.793.064 1.067.406.05.88.068 1.76.05 2.64.476-.016.95 0 1.423.051.65.143 1.073.532 1.269 1.168a63.418 63.418 0 0 1 0 5.079c-.186.592-.575.981-1.168 1.167-.507.051-1.014.068-1.523.051.153.981-.254 1.404-1.22 1.27-.359-.344-.494-.767-.405-1.27-.51.017-1.017 0-1.524-.05-.692-.25-1.081-.741-1.168-1.473a49.189 49.189 0 0 1 0-4.469c.13-.74.553-1.23 1.27-1.473.473-.05.946-.067 1.422-.05-.017-.814 0-1.626.05-2.438a.856.856 0 0 1 .457-.61Z" fill="#000101"/><path opacity=".963" d="M26.384 19.043c-.364-.005-.618-.174-.762-.508a20.538 20.538 0 0 1-.05-2.031H21.61c-.034 2.353 0 4.69.101 7.008 1.269.1 2.555.135 3.86.101-.017-.914 0-1.828.05-2.742.195-.282.449-.451.762-.508.274.044.494.18.66.407a16.386 16.386 0 0 1-.101 3.554 1.543 1.543 0 0 1-.965.762c-.507.05-1.015.068-1.524.05.095 1.177-.396 1.55-1.472 1.118a2.492 2.492 0 0 1-.152-1.117c-.543.017-1.085 0-1.625-.051a2.051 2.051 0 0 1-1.067-1.066 154.29 154.29 0 0 1 0-7.922c.164-.55.52-.905 1.066-1.067a13.04 13.04 0 0 1 1.625-.05c-.016-.881 0-1.762.051-2.641.156-.306.41-.442.762-.406.417-.007.671.196.762.609.05.812.067 1.624.05 2.438.543-.017 1.085 0 1.625.05.457.186.78.508.965.965.068.88.068 1.76 0 2.64-.129.277-.349.413-.66.407Z" fill="#000"/><path d="M32.681 11.934v4.265h-2.64v-4.265h2.64Z" fill="#6AE69A"/><path d="M32.681 11.934h1.32c.017 1.422 0 2.844-.05 4.265a18.913 18.913 0 0 1-3.91 0h2.64v-4.265Z" fill="#0ECC98"/><path opacity=".983" d="M52.283 16.402v17.57a1.26 1.26 0 0 1-.711.407c-.352-.062-.605-.265-.762-.61l-.102-14.218a36.86 36.86 0 0 1-1.37 2.234l-1.677 2.742c-.05 6.737-.067 13.474-.05 20.211 1.03.101 2.08.135 3.148.102-.017-2.878 0-5.756.05-8.633.187-.287.441-.456.763-.508.287.05.524.186.71.407v9.851a.71.71 0 0 1-.406.355l-34.53.102c-2.687 2.288-5.767 3.067-9.243 2.336a10.615 10.615 0 0 1-5.23-3.098 2.081 2.081 0 0 1 0-.914.23.23 0 0 1 .152-.101c.327-.238.665-.255 1.015-.051a11.2 11.2 0 0 0 2.235 1.777c3.163 1.61 6.244 1.457 9.242-.457 3.418-2.752 4.45-6.222 3.098-10.41-.606-1.522-1.57-2.74-2.895-3.656a6.947 6.947 0 0 0-1.93-1.168c-4.44-1.462-8.012-.294-10.714 3.504-1.57 2.795-1.688 5.656-.356 8.582a2.742 2.742 0 0 1-.406.761c-.417.075-.772-.027-1.067-.304a13.157 13.157 0 0 1-.964-3.047v-2.844C1.29 32.406 4.27 29.478 9.22 28.54a10.702 10.702 0 0 1 5.79.914 17.57 17.57 0 0 1 2.792 1.879 66.777 66.777 0 0 1 5.485-2.539c.414.08.803.232 1.168.457a147.9 147.9 0 0 0 3.199 1.777 891.023 891.023 0 0 1 4.62-7.566c.353-.083.691-.05 1.016.102a192.924 192.924 0 0 0 3.961 3.503 659.411 659.411 0 0 1 4.367-6.043c.258-.144.528-.178.813-.101 1.37.77 2.725 1.566 4.063 2.387a360.253 360.253 0 0 0 4.316-6.907c.486-.518.977-.518 1.473 0Z" fill="#010100"/><path d="M24.251 16.504v7.008h-2.539a120.863 120.863 0 0 1-.101-7.008h2.64Z" fill="#6AE397"/><path opacity=".991" d="M24.251 16.504h1.32c-.016.678 0 1.355.051 2.031.144.334.398.503.762.508v1.32a1.145 1.145 0 0 0-.762.508c-.05.914-.067 1.828-.05 2.742-1.305.034-2.591 0-3.86-.101h2.54v-7.008Z" fill="#09D49E"/><path d="M51.572 34.379v1.32a1.084 1.084 0 0 0-.762.508c-.05 2.877-.068 5.755-.05 8.633-1.069.033-2.118 0-3.15-.102h1.829c.034-7.668 0-15.319-.102-22.953a36.86 36.86 0 0 0 1.371-2.234l.102 14.219c.157.344.41.547.762.609Z" fill="#02D7A1"/><path d="M49.337 21.785c.102 7.634.136 15.285.102 22.953H47.61c-.017-6.737 0-13.474.05-20.21l1.676-2.743Zm-6.398 1.32a33.7 33.7 0 0 1 3.047 1.727v19.906h-3.047V23.105Z" fill="#6BE699"/><path d="M41.212 24.223c.006-.055.04-.09.102-.102.135 6.923.135 13.83 0 20.719.034-6.89 0-13.762-.102-20.617Z" fill="#275438"/><path d="M41.212 24.223c.102 6.855.136 13.727.102 20.617h-3.149c-.017-5.417 0-10.834.051-16.25l2.996-4.367Z" fill="#6BE699"/><path d="M42.939 23.105v21.633h3.047V24.832c.101 6.652.135 13.322.101 20.008h-3.25c-.034-7.32 0-14.565.102-21.735Z" fill="#489B67"/><path d="M33.595 25.95a878.684 878.684 0 0 0-.101 18.89 444.371 444.371 0 0 1 0-18.992c.061.012.095.046.101.101Z" fill="#1B3C27"/><path d="M33.595 25.95c1.01.89 2.008 1.803 2.996 2.741.051 5.383.068 10.766.051 16.149h-3.148c-.034-6.314 0-12.611.101-18.89Z" fill="#6BE699"/><path d="M28.822 32.348v12.39h3.047c.033-5.84 0-11.663-.102-17.468a.438.438 0 0 1 .152-.204c.051 5.925.068 11.85.051 17.774h-3.25c-.034-4.182 0-8.346.102-12.492Z" fill="#4BA06B"/><path d="M31.767 27.27c.101 5.805.135 11.628.102 17.468h-3.047v-12.39l2.945-5.078Z" fill="#6BE699"/><path d="M15.72 31.84a9.17 9.17 0 0 1 1.625 4.773c-1.393-3.457-3.966-5.099-7.719-4.925-2.945.542-4.926 2.218-5.941 5.027-.763 3.396.27 6.088 3.098 8.074a7.18 7.18 0 0 0 4.265 1.066c-.6.284-1.243.437-1.93.458-.967.033-1.915.05-2.843.05a11.2 11.2 0 0 1-2.235-1.777c-.35-.204-.688-.187-1.015.05a5.895 5.895 0 0 1-.711-1.117c.174-.23.31-.484.406-.761-1.332-2.926-1.213-5.787.356-8.582 2.702-3.798 6.273-4.966 10.714-3.504a6.947 6.947 0 0 1 1.93 1.168Z" fill="#FAE573"/><path d="M22.322 30.824c.202 4.637.27 9.309.203 14.016-1.253.017-2.506 0-3.758-.05 1.901-2.743 2.426-5.739 1.574-8.99a11.438 11.438 0 0 0-1.574-3.148 87.518 87.518 0 0 0 3.555-1.828Z" fill="#6AE498"/><path d="M24.251 31.027a462.678 462.678 0 0 0-.101 13.711h3.047V32.652c.101 4.046.135 8.108.101 12.188h-3.25c-.034-4.639 0-9.277.102-13.914.061.012.095.046.101.101Z" fill="#4FAA71"/><path d="M24.251 31.027c1 .517 1.981 1.058 2.946 1.625v12.086H24.15c-.034-4.587 0-9.158.101-13.71Z" fill="#6BE699"/><path d="M17.345 36.613c.777 3.514-.307 6.273-3.25 8.278a8.697 8.697 0 0 1-3.047.965 7.18 7.18 0 0 1-4.265-1.067c-2.829-1.986-3.861-4.678-3.098-8.074 1.015-2.81 2.996-4.485 5.941-5.028 3.753-.173 6.326 1.469 7.72 4.926Z" fill="#050402"/><path d="M15.72 31.84c1.324.915 2.29 2.134 2.895 3.656 1.352 4.188.32 7.658-3.098 10.41-2.998 1.914-6.079 2.066-9.242.457.928 0 1.876-.017 2.844-.05a4.812 4.812 0 0 0 1.93-.458 8.696 8.696 0 0 0 3.046-.964c2.943-2.005 4.026-4.764 3.25-8.278a9.171 9.171 0 0 0-1.625-4.773Z" fill="#F9E04A"/><path d="M9.626 33.16c2.888-.173 4.936 1.045 6.145 3.656.78 2.755.018 4.972-2.285 6.653-3.132 1.565-5.722.94-7.77-1.88-1.477-3.114-.817-5.67 1.98-7.667a7.57 7.57 0 0 1 1.93-.762Z" fill="#FBE674"/><path d="M10.134 34.48c.695-.145 1.067.126 1.117.813.428.024.817.16 1.168.406.279.662.076 1.068-.61 1.219a3.834 3.834 0 0 0-1.675-.152c-.185.148-.236.335-.152.558a7.506 7.506 0 0 0 1.777.864c1.183.938 1.335 2.038.457 3.3a4.05 4.05 0 0 1-.914.61c-.1.795-.523 1.066-1.27.812a.721.721 0 0 1-.304-.71 2.97 2.97 0 0 1-1.371-.712c-.078-1.088.38-1.376 1.37-.863.373.068.746.068 1.118 0 .368-.224.487-.546.355-.965a53.026 53.026 0 0 1-1.98-.965c-1.045-.978-1.079-1.994-.101-3.047l.558-.355c.025-.356.177-.627.457-.813Z" fill="#050502"/></g><defs><clipPath id="a"><path fill="#fff" transform="translate(.333)" d="M0 0h52v52H0z"/></clipPath></defs></svg>