<svg width="53" height="52" fill="none" xmlns="http://www.w3.org/2000/svg"><g clip-path="url(#a)" fill-rule="evenodd" clip-rule="evenodd"><path opacity=".916" d="M26.413 6.348c.463-.014.785.189.965.609a51.371 51.371 0 0 1 0 4.57c-.314.488-.737.607-1.27.356a.708.708 0 0 1-.254-.356 53.678 53.678 0 0 1 0-4.672.832.832 0 0 1 .559-.507Z" fill="#000"/><path opacity=".906" d="M15.546 10.816c.286-.025.557.026.812.153l3.098 3.097c.134 1.017-.29 1.373-1.27 1.067l-2.996-2.996c-.236-.542-.117-.982.356-1.32Z" fill="#000"/><path opacity=".912" d="M37.077 10.816c.996.067 1.283.541.863 1.422l-2.894 2.895c-.975.312-1.399-.044-1.27-1.067 1.09-1.106 2.19-2.19 3.301-3.25Z" fill="#000"/><path opacity=".966" d="M52.616 44.23v.915c-.164.18-.367.298-.61.355a66.075 66.075 0 0 1-5.18 0 1.001 1.001 0 0 1-.608-.762c.061-.35.264-.605.609-.761 1.32-.051 2.64-.068 3.96-.051a8.218 8.218 0 0 0-.608-1.93v-.102a351.216 351.216 0 0 0-1.372-4.57 1.122 1.122 0 0 0-.558-.558 229.207 229.207 0 0 0-9.649 0c-.181.08-.333.198-.457.355-.473 1.52-.93 3.044-1.37 4.57-.093.072-.126.174-.102.305-.223.6-.426 1.21-.61 1.828 2.708.085 5.416.136 8.125.153.362.132.565.386.61.761.002.42-.202.674-.61.762-11.815.068-23.63.068-35.445 0-.396-.108-.633-.362-.711-.762a1.21 1.21 0 0 1 .61-.761c2.844-.017 5.688-.068 8.53-.153a28.959 28.959 0 0 0-.609-1.828c.024-.131-.01-.233-.101-.305-.441-1.526-.898-3.05-1.371-4.57l-.254-.254a64.673 64.673 0 0 0-5.078-.152l-4.875.05a1.789 1.789 0 0 0-.457.56c-.435 1.42-.858 2.842-1.27 4.265a.468.468 0 0 0-.102.406 8.216 8.216 0 0 0-.609 1.93c.88-.017 1.761 0 2.64.05.345.157.548.411.61.762.003.416-.2.67-.61.762a36.694 36.694 0 0 1-3.859 0 1.168 1.168 0 0 1-.609-.355v-.915c.836-2.592 1.665-5.198 2.488-7.82a2.54 2.54 0 0 1 1.473-1.168l4.57-.101 2.489-7.668a2.518 2.518 0 0 1 1.675-.965l4.266-.102c.277-.751.53-1.513.762-2.285a1.13 1.13 0 0 1 .863-.406c.188.155.374.325.558.508a.5.5 0 0 1 .051.304c-.211.668-.38 1.345-.508 2.032 4.91.017 9.818 0 14.727-.051-.23-.706-.467-1.4-.71-2.082-.442-1.526-.899-3.05-1.372-4.57a.763.763 0 0 0-.457-.458c-3.25-.067-6.5-.067-9.75 0a.763.763 0 0 0-.457.457 42.763 42.763 0 0 1-.711 2.235 1.1 1.1 0 0 1-.965.305.89.89 0 0 1-.508-.762l.762-2.488a2.294 2.294 0 0 1 1.473-1.27c3.52-.068 7.041-.068 10.562 0 .679.204 1.17.628 1.473 1.27a577.411 577.411 0 0 0 2.234 7.21 93.51 93.51 0 0 0 4.317.153 2.517 2.517 0 0 1 1.675.965c.833 2.53 1.645 5.07 2.438 7.617 1.533.084 3.073.134 4.621.152a2.49 2.49 0 0 1 1.371.965c.877 2.68 1.74 5.355 2.59 8.023ZM25.093 28.082h3.046a70.322 70.322 0 0 1-1.523 4.977 70.27 70.27 0 0 1-1.523-4.977Zm-8.43 8.734h3.047c-.46 1.666-.95 3.325-1.473 4.977a84.955 84.955 0 0 1-1.574-4.977Zm16.86 0h3.046a85.03 85.03 0 0 1-1.574 4.977 139.043 139.043 0 0 1-1.473-4.977Z" fill="#010000"/><path opacity=".999" d="M33.32 24.426c-4.486.101-8.989.135-13.509.101a.5.5 0 0 0-.05-.304 8.233 8.233 0 0 0-.56-.508 6.25 6.25 0 0 0 .407-1.32 1.1 1.1 0 0 0 .965-.305c.258-.739.494-1.483.71-2.235a.763.763 0 0 1 .458-.457c3.25-.067 6.5-.067 9.75 0 .22.085.372.237.457.457.473 1.521.93 3.045 1.371 4.57Z" fill="#FDCE38"/><path opacity=".919" d="M11.077 21.582c1.591-.017 3.183 0 4.773.05.492.446.526.92.102 1.423l-.305.101c-1.49.068-2.979.068-4.469 0-.48-.247-.632-.636-.457-1.168a.71.71 0 0 1 .356-.406Z" fill="#000"/><path opacity=".918" d="M37.382 21.582c1.591-.017 3.182 0 4.773.05.377.256.495.611.355 1.067a.655.655 0 0 1-.558.457 46.91 46.91 0 0 1-4.367 0c-.423-.1-.627-.37-.61-.812-.007-.342.129-.596.407-.762Z" fill="#000"/><path d="M33.32 24.426c.243.682.48 1.376.71 2.082-4.909.05-9.818.068-14.727.05.128-.686.297-1.363.508-2.03 4.52.033 9.023 0 13.508-.102Z" fill="#FCAC46"/><path d="M24.89 33.059c-2.2.135-4.434.203-6.704.203-2.251 0-4.486-.034-6.703-.102.446-1.524.903-3.048 1.371-4.57a1.17 1.17 0 0 1 .356-.457c3.355-.084 6.707-.067 10.054.05l.254.305c.473 1.521.93 3.044 1.371 4.57Zm16.859.101a219.63 219.63 0 0 1-6.703.102c-2.27 0-4.504-.068-6.703-.203.378-1.322.767-2.642 1.168-3.961.066-.352.218-.657.457-.914a166.81 166.81 0 0 1 10.054-.051c.157.123.276.276.356.457a350.75 350.75 0 0 1 1.37 4.57Z" fill="#FDCF38"/><path d="M24.89 33.059c.26.649.464 1.326.609 2.03-4.858.102-9.733.136-14.625.102a11.79 11.79 0 0 1 .61-2.03c2.216.067 4.45.1 6.702.1 2.27 0 4.504-.067 6.703-.202Zm3.453 0c2.199.135 4.433.203 6.703.203 2.251 0 4.486-.034 6.703-.102.261.65.464 1.327.61 2.031-4.893.034-9.768 0-14.626-.101a11.8 11.8 0 0 1 .61-2.031Z" fill="#FEAD46"/><path d="M25.499 35.09c.055.006.089.04.101.101-4.925.136-9.834.136-14.726 0 4.892.034 9.767 0 14.625-.101Zm2.234 0c4.858.101 9.733.135 14.625.101-4.892.136-9.8.136-14.726 0 .012-.061.046-.095.101-.101Z" fill="#765020"/><path d="M16.46 41.691c-4.4.203-8.835.27-13.305.203v-.304a305.28 305.28 0 0 1 1.27-4.266c.113-.215.266-.402.457-.558l4.875-.051a64.673 64.673 0 0 1 5.078.152l.254.254c.473 1.52.93 3.044 1.37 4.57Z" fill="#FBCD38"/><path d="M33.32 41.793c-2.2.135-4.435.203-6.704.203-2.27 0-4.504-.068-6.703-.203.412-1.423.835-2.845 1.27-4.266.052-.257.17-.477.355-.66a64.676 64.676 0 0 1 5.078-.152 64.675 64.675 0 0 1 5.078.152c.185.183.303.403.356.66.434 1.421.857 2.843 1.27 4.266Z" fill="#FBCC38"/><path d="M50.178 41.895c-4.503.067-8.972-.001-13.406-.204.441-1.526.898-3.05 1.371-4.57.124-.157.276-.276.457-.355a228.22 228.22 0 0 1 9.649 0c.254.118.44.304.558.558.468 1.523.925 3.046 1.371 4.57Z" fill="#FBCD38"/><path d="M3.155 41.59v.304c4.47.068 8.905 0 13.305-.203.092.072.125.174.101.305H3.054a.468.468 0 0 1 .101-.406Z" fill="#FABD3D"/><path d="M36.772 41.691a221.3 221.3 0 0 0 13.406.203v.102H36.671c-.024-.131.01-.233.101-.305Z" fill="#FCBE3E"/><path d="M3.053 41.996h13.508c.223.6.426 1.21.61 1.828-2.843.085-5.687.136-8.532.153a1.21 1.21 0 0 0-.609.761H5.694c-.062-.35-.265-.605-.61-.761-.879-.051-1.759-.068-2.64-.051.127-.677.33-1.32.61-1.93Z" fill="#FDAD46"/><path d="M19.913 41.793c2.2.135 4.434.203 6.703.203 2.27 0 4.504-.068 6.703-.203.261.65.464 1.326.61 2.031-4.876.136-9.75.136-14.626 0a11.8 11.8 0 0 1 .61-2.031Z" fill="#FEAD46"/><path d="M36.67 41.996h13.508c.28.61.483 1.253.61 1.93-1.32-.017-2.641 0-3.961.05-.345.157-.548.411-.61.762h-1.421c-.045-.375-.248-.629-.61-.761a325.579 325.579 0 0 1-8.125-.153c.184-.618.387-1.228.61-1.828Z" fill="#FDAD46"/><path d="M19.303 43.824c4.875.136 9.75.136 14.625 0 .056.006.09.04.102.102-4.943.135-9.885.135-14.828 0 .012-.062.046-.096.101-.102Z" fill="#221709"/></g><defs><clipPath id="a"><path fill="#fff" transform="translate(.667)" d="M0 0h52v52H0z"/></clipPath></defs></svg>