<svg width="41" height="41" fill="none" xmlns="http://www.w3.org/2000/svg"><g clip-path="url(#a)"><path d="M35.41 0H5.59A5.59 5.59 0 0 0 0 5.59v29.82A5.59 5.59 0 0 0 5.59 41h29.82A5.59 5.59 0 0 0 41 35.41V5.59A5.59 5.59 0 0 0 35.41 0Z" fill="#29A71A"/><path d="M29.539 11.461A12.713 12.713 0 0 0 9.174 26.168l-1.35 6.548a.485.485 0 0 0 .078.38.491.491 0 0 0 .522.203l6.418-1.522a12.71 12.71 0 0 0 14.697-20.316Zm-2.002 15.972a9.956 9.956 0 0 1-11.465 1.863l-.895-.442-3.935.932.012-.05.815-3.96-.438-.864a9.952 9.952 0 1 1 15.907 2.52Z" fill="#fff"/><path d="M27.188 24.528c-.482.76-1.244 1.689-2.201 1.92-1.678.405-4.252.013-7.455-2.973l-.04-.035c-2.816-2.612-3.548-4.785-3.37-6.509.097-.978.913-1.864 1.6-2.441a.914.914 0 0 1 1.433.328l1.036 2.33a.911.911 0 0 1-.114.932l-.524.68a.901.901 0 0 0-.082 1.006c.294.515.997 1.272 1.778 1.973.876.792 1.847 1.517 2.462 1.764a.89.89 0 0 0 .976-.205l.608-.613a.931.931 0 0 1 .909-.233l2.462.699a.932.932 0 0 1 .522 1.377Z" fill="#fff"/></g><defs><clipPath id="a"><path fill="#fff" d="M0 0h41v41H0z"/></clipPath></defs></svg>