<svg width="15" height="22" fill="none" xmlns="http://www.w3.org/2000/svg"><path d="M5.625 18.87V8.25a.927.927 0 0 0-.938-.917.927.927 0 0 0-.937.917v10.62L1.6 16.768a.953.953 0 0 0-1.325 0 .902.902 0 0 0 0 1.297l3.75 3.667a.932.932 0 0 0 .068.06l.034.025.04.029.04.024.039.022.042.02.04.018.043.015.044.016.043.01.046.011.05.008.041.006a.97.97 0 0 0 .185 0l.041-.006.05-.008.046-.01c.014-.004.029-.007.043-.012.015-.004.03-.01.044-.015l.042-.015c.014-.005.027-.012.04-.018l.043-.02.038-.022.041-.024.04-.03a.915.915 0 0 0 .102-.085l3.75-3.666a.902.902 0 0 0 0-1.297.953.953 0 0 0-1.325 0l-2.15 2.102ZM10.907.208c-.011-.01-.023-.017-.034-.025l-.04-.029-.041-.024-.038-.022-.042-.02-.04-.018-.043-.015-.044-.016-.043-.01-.046-.011-.05-.008-.041-.006a.964.964 0 0 0-.185 0l-.041.006c-.017.003-.033.004-.05.008l-.046.01-.043.011-.044.016-.042.015c-.014.005-.027.012-.04.018l-.043.02-.038.022-.041.024-.04.03a.932.932 0 0 0-.101.084H9.65L5.9 3.935a.902.902 0 0 0 0 1.296.953.953 0 0 0 1.325 0l2.15-2.101v10.62c0 .506.42.917.938.917.517 0 .937-.41.937-.917V3.13l2.15 2.1a.953.953 0 0 0 1.325 0 .902.902 0 0 0 0-1.296L10.975.268a.945.945 0 0 0-.068-.06Z" fill="#CFD4DC"/></svg>