<svg width="21" height="22" fill="none" xmlns="http://www.w3.org/2000/svg"><path d="m5.344 1.836-3.63.231c-.57.037-1.004.53-.967 1.1l.9 14.126c.037.57.53 1.005 1.1.968l3.63-.231L5.344 1.836Z" fill="#003ED3"/><path d="M2.317 18.281a.094.094 0 0 1-.03-.005 1.124 1.124 0 0 1-.723-.976L.96 7.83a.084.084 0 0 1 .167-.01l.604 9.47a.955.955 0 0 0 .614.83.084.084 0 0 1 .049.11.082.082 0 0 1-.077.051ZM.889 5.482a.084.084 0 0 1-.084-.079L.663 3.174a1.116 1.116 0 0 1 .869-1.164.084.084 0 0 1 .037.165.95.95 0 0 0-.74.99l.144 2.228a.083.083 0 0 1-.079.09H.89Z" fill="#000"/><path d="m15.345 2.237.901 14.125a1.037 1.037 0 0 1-.968 1.1l-11.358.725a1.037 1.037 0 0 1-1.1-.968l-.9-14.125a1.037 1.037 0 0 1 .967-1.1l11.358-.725a1.037 1.037 0 0 1 1.1.968Z" fill="#158ED8"/><path d="m15.345 2.237.901 14.125a1.037 1.037 0 0 1-.968 1.1l-11.358.725a1.032 1.032 0 0 1-.68-.2l11.656-16.54a1.037 1.037 0 0 1 .45.79Z" fill="#015ED4"/><path d="M3.853 18.273a1.11 1.11 0 0 1-.738-.28 1.111 1.111 0 0 1-.377-.77L1.837 3.097a1.115 1.115 0 0 1 1.047-1.19l11.358-.724A1.12 1.12 0 0 1 15.43 2.23l.9 14.126a1.122 1.122 0 0 1-1.046 1.189l-11.358.724c-.027.004-.05.004-.074.004Zm10.46-16.924c-.02 0-.041 0-.063.002l-11.358.725a.953.953 0 0 0-.89 1.011l.9 14.126a.953.953 0 0 0 1.011.89l11.359-.724a.953.953 0 0 0 .89-1.012l-.9-14.125a.953.953 0 0 0-.95-.893Z" fill="#000"/><path d="m14.34 2.272.91 14.186-11.419.732-.91-14.186 11.42-.732Z" fill="#fff"/><path d="m2.921 2.999.604-.039.91 14.186-.604.039-.91-14.186Zm10.783-.693.604-.039.91 14.186-.604.039-.91-14.186Z" fill="#FADFCB"/><path d="M3.826 17.27a.083.083 0 0 1-.084-.077L2.837 3.007a.088.088 0 0 1 .02-.06.085.085 0 0 1 .057-.03l11.418-.727a.083.083 0 0 1 .09.079l.905 14.186a.088.088 0 0 1-.02.06.085.085 0 0 1-.057.029l-11.419.728c-.002-.002-.003-.002-.005-.002ZM3.01 3.077l.894 14.019 11.251-.718-.894-14.019-11.25.718Z" fill="#000"/><path d="m11.099 3.079-4.777.305a.468.468 0 0 1-.492-.549l.207-1.152a.47.47 0 0 1 .43-.386l.688-.043a.463.463 0 0 0 .401-.282c.128-.322.508-.569.973-.599.465-.03.872.168 1.042.47a.46.46 0 0 0 .432.23l.688-.044a.47.47 0 0 1 .476.327l.35 1.115a.47.47 0 0 1-.418.608Z" fill="#FFC378"/><path d="M6.248 2.809a.469.469 0 0 0 .491.548l-.417.027a.468.468 0 0 1-.492-.549l.207-1.152a.467.467 0 0 1 .43-.386l.417-.026a.467.467 0 0 0-.43.385L6.248 2.81ZM8.737.375c-.366.079-.656.298-.763.57a.461.461 0 0 1-.403.284l-.417.026a.461.461 0 0 0 .402-.283c.128-.32.508-.569.971-.599.072-.005.141-.005.21.002Z" fill="#FFAB41"/><path d="M6.29 3.47a.55.55 0 0 1-.543-.65l.206-1.152a.551.551 0 0 1 .508-.454l.688-.044a.378.378 0 0 0 .328-.23C7.62.581 8.04.32 8.522.29c.482-.033.933.175 1.12.513a.38.38 0 0 0 .355.186l.687-.044a.55.55 0 0 1 .562.386l.35 1.115a.554.554 0 0 1-.493.716l-.915.06a.086.086 0 0 1-.089-.08.083.083 0 0 1 .079-.089l.916-.058a.382.382 0 0 0 .344-.498l-.351-1.116a.382.382 0 0 0-.391-.268l-.688.043a.546.546 0 0 1-.511-.271C9.34.603 8.955.43 8.534.457c-.42.027-.781.247-.9.547a.546.546 0 0 1-.474.335l-.687.044a.385.385 0 0 0-.354.317l-.206 1.152a.383.383 0 0 0 .404.45l2.826-.18a.085.085 0 0 1 .089.079.083.083 0 0 1-.079.089l-2.826.18c-.012-.002-.025 0-.037 0Z" fill="#000"/><path d="M7.368 2.211a.084.084 0 0 1-.083-.078.083.083 0 0 1 .078-.09l2.588-.164a.084.084 0 0 1 .01.168l-2.588.164h-.005Zm.71 2.937a.084.084 0 0 1-.084-.079.083.083 0 0 1 .079-.088l5.11-.327a.084.084 0 0 1 .09.078.083.083 0 0 1-.08.09l-5.108.325-.007.001Zm.057.893a.084.084 0 0 1-.084-.08.083.083 0 0 1 .079-.088l5.11-.325a.082.082 0 0 1 .09.078.083.083 0 0 1-.08.09l-5.108.325h-.007Zm.057.892a.084.084 0 0 1-.084-.079.083.083 0 0 1 .079-.089l3.158-.201a.082.082 0 0 1 .09.079.083.083 0 0 1-.08.089l-3.158.2h-.005Zm.13 2.031a.084.084 0 0 1-.083-.079.083.083 0 0 1 .079-.089l4.148-.265c.05-.003.085.032.088.08a.083.083 0 0 1-.078.088l-4.148.265h-.005Zm.058.892a.084.084 0 0 1-.084-.079.083.083 0 0 1 .079-.088l4.148-.265c.05-.004.085.031.088.078a.083.083 0 0 1-.078.09l-4.148.264H8.38Zm.057.894a.084.084 0 0 1-.084-.079.083.083 0 0 1 .079-.088l3.158-.202a.082.082 0 0 1 .089.08.083.083 0 0 1-.079.088l-3.158.201h-.005Zm.129 2.03a.084.084 0 0 1-.084-.08.083.083 0 0 1 .079-.088l5.11-.325a.082.082 0 0 1 .09.078.083.083 0 0 1-.08.09l-5.11.325h-.005Zm.057.894a.084.084 0 0 1-.084-.08.083.083 0 0 1 .079-.088l5.11-.325a.082.082 0 0 1 .09.078.083.083 0 0 1-.08.09l-5.11.325h-.005Zm.057.892a.084.084 0 0 1-.084-.079.083.083 0 0 1 .079-.089l3.158-.201a.083.083 0 0 1 .09.079.083.083 0 0 1-.08.089l-3.158.201H8.68Z" fill="#000"/><path d="M6.859 6.037a1.216 1.216 0 1 1-1.292-1.134c.336-.021.646.096.879.3a1.202 1.202 0 0 1 .413.834Z" fill="#FF7D83"/><path d="M6.859 6.037a1.216 1.216 0 0 1-1.964 1.034l1.39-1.988a1.21 1.21 0 0 1 .574.954Z" fill="#FF5671"/><path d="M5.643 7.416A1.294 1.294 0 0 1 4.348 6.2a1.305 1.305 0 0 1 .723-1.251 1.299 1.299 0 0 1 1.55 2.027 1.29 1.29 0 0 1-.893.438l-.085.002Zm.003-2.432a1.082 1.082 0 0 0-.501.114 1.13 1.13 0 0 0-.631 1.088 1.128 1.128 0 0 0 1.977.678 1.128 1.128 0 0 0-.1-1.598 1.11 1.11 0 0 0-.745-.282Z" fill="#000"/><path d="M5.482 6.532a.083.083 0 0 1-.056-.02l-.29-.255a.083.083 0 0 1-.007-.119.083.083 0 0 1 .12-.007l.226.2.545-.619a.085.085 0 0 1 .119-.008c.035.03.039.083.008.119l-.6.682a.085.085 0 0 1-.057.029l-.008-.002Z" fill="#000"/><path d="M7.102 9.855A1.216 1.216 0 1 1 5.81 8.72c.336-.022.646.095.88.3a1.198 1.198 0 0 1 .412.834Z" fill="#FF7D83"/><path d="M7.102 9.853a1.216 1.216 0 0 1-1.964 1.033L6.528 8.9a1.207 1.207 0 0 1 .574.954Z" fill="#FF5671"/><path d="M5.886 11.232a1.294 1.294 0 0 1-1.295-1.216 1.305 1.305 0 0 1 .723-1.251A1.296 1.296 0 0 1 7.185 9.85a1.297 1.297 0 0 1-1.214 1.378 1.209 1.209 0 0 1-.085.004ZM5.889 8.8l-.074.001a1.13 1.13 0 0 0-.677 1.98 1.119 1.119 0 0 0 .82.28 1.12 1.12 0 0 0 .776-.381 1.127 1.127 0 0 0-.1-1.598 1.119 1.119 0 0 0-.745-.282Z" fill="#000"/><path d="M5.725 10.348a.083.083 0 0 1-.056-.02l-.29-.255a.083.083 0 0 1-.006-.12.083.083 0 0 1 .119-.006l.226.2.545-.62a.085.085 0 0 1 .12-.008c.034.03.038.084.008.12l-.6.682a.085.085 0 0 1-.058.028l-.008-.001Z" fill="#000"/><path d="M7.345 13.67a1.216 1.216 0 1 1-1.292-1.133c.336-.022.646.095.88.3a1.195 1.195 0 0 1 .412.834Z" fill="#FF7D83"/><path d="M7.345 13.67a1.216 1.216 0 0 1-1.964 1.034l1.39-1.988a1.204 1.204 0 0 1 .574.955Z" fill="#FF5671"/><path d="M6.13 15.047a1.302 1.302 0 0 1-.572-2.468 1.296 1.296 0 0 1 1.871 1.085 1.297 1.297 0 0 1-1.215 1.38c-.028.003-.055.003-.083.003Zm.004-2.431-.074.001a1.129 1.129 0 0 0-1.058 1.201c.04.622.58 1.099 1.202 1.058a1.12 1.12 0 0 0 .777-.38 1.127 1.127 0 0 0-.1-1.599 1.129 1.129 0 0 0-.747-.281Z" fill="#000"/><path d="M5.968 14.165a.083.083 0 0 1-.055-.02l-.29-.255a.082.082 0 0 1-.03-.058.083.083 0 0 1 .023-.061.083.083 0 0 1 .119-.007l.226.2.545-.62a.085.085 0 0 1 .127.11l-.6.684a.086.086 0 0 1-.057.029l-.008-.002Z" fill="#000"/><path d="m13.77 8.094 2.985-5.312 2.448 1.376-2.985 5.311-2.448-1.375Z" fill="#FF7D83"/><path d="m13.769 8.094 2.985-5.312.42.236-2.985 5.312-.42-.236Zm2.031 1.14 2.985-5.31.42.235L16.22 9.47l-.42-.236Z" fill="#FF5671"/><path d="m20.177 2.433-.51.905-2.45-1.377.51-.905a.863.863 0 0 1 1.172-.329l.951.535a.86.86 0 0 1 .327 1.17Z" fill="#158ED8"/><path d="M18.537.622a.858.858 0 0 0-.808.434l-.51.906.43.241.888-1.581Zm1.59.894a.862.862 0 0 1 .05.917l-.51.906-.429-.242.89-1.581Z" fill="#015ED4"/><path d="m16.75 2.783.466-.828 2.453 1.378-.465.828-2.453-1.378Z" fill="#FADFCB"/><path d="m17.17 3.018.464-.828 1.615.907-.465.828-1.615-.907Z" fill="#fff"/><path d="m16.218 9.475-2.619 1.788.17-3.166 2.449 1.378Z" fill="#FFC378"/><path d="m13.953 11.023-.354.24.17-3.166.329.184-.145 2.742Z" fill="#FFAB41"/><path d="M16.216 9.56a.096.096 0 0 1-.042-.01l-2.447-1.376a.081.081 0 0 1-.04-.05.078.078 0 0 1 .008-.064l2.985-5.31a.083.083 0 0 1 .114-.032l2.447 1.375c.04.024.056.074.032.114l-.878 1.565a.083.083 0 0 1-.114.032.083.083 0 0 1-.032-.114l.838-1.49-2.301-1.294-2.903 5.16 2.3 1.296 1.494-2.655a.083.083 0 0 1 .114-.032c.04.023.055.074.032.114L16.29 9.516a.085.085 0 0 1-.074.044Zm3.451-6.137a.096.096 0 0 1-.041-.01l-2.45-1.378a.086.086 0 0 1-.04-.05.078.078 0 0 1 .009-.064l.51-.905a.948.948 0 0 1 1.286-.36l.951.532a.944.944 0 0 1 .36 1.285l-.509.906a.088.088 0 0 1-.075.044ZM17.334 1.93l2.303 1.295.468-.834a.776.776 0 0 0-.297-1.057l-.951-.533a.765.765 0 0 0-.59-.07.77.77 0 0 0-.469.367l-.464.832Z" fill="#000"/><path d="M19.205 4.251a.096.096 0 0 1-.042-.01L16.71 2.863a.086.086 0 0 1-.04-.05.078.078 0 0 1 .008-.065l.464-.826a.081.081 0 0 1 .05-.04.078.078 0 0 1 .064.008l2.452 1.378c.04.024.056.074.032.114l-.464.827a.08.08 0 0 1-.05.04l-.022.002Zm-2.338-1.494 2.306 1.296.382-.68-2.306-1.297-.382.68Zm-3.268 8.59a.081.081 0 0 1-.08-.053.08.08 0 0 1-.004-.034l.168-3.166a.084.084 0 0 1 .044-.069.089.089 0 0 1 .082 0l2.45 1.377a.08.08 0 0 1 .042.069.082.082 0 0 1-.037.072l-2.618 1.791a.09.09 0 0 1-.047.014Zm.245-3.11-.152 2.862 2.366-1.616-2.214-1.247Z" fill="#000"/><path d="M14.993 8.87a.096.096 0 0 1-.042-.01.083.083 0 0 1-.032-.114l2.986-5.31a.083.083 0 0 1 .114-.032c.04.024.055.074.032.114l-2.986 5.31a.083.083 0 0 1-.072.042Zm-1.312.84-.082 1.554 1.285-.877-1.203-.676Z" fill="#000"/><path d="M13.6 11.348a.081.081 0 0 1-.085-.088l.083-1.553a.085.085 0 0 1 .043-.069.089.089 0 0 1 .082 0l1.201.676a.08.08 0 0 1 .042.07.082.082 0 0 1-.037.071l-1.284.877a.07.07 0 0 1-.046.016Zm.159-1.498-.067 1.25 1.033-.707-.966-.543Z" fill="#000"/><path d="m17.52 13.437.486-1.328.8.293-.485 1.327-.8-.292Z" fill="#fff"/><path d="M18.33 13.811a.08.08 0 0 1-.03-.005l-.8-.292a.086.086 0 0 1-.05-.107l.485-1.329a.084.084 0 0 1 .107-.05l.8.292a.086.086 0 0 1 .05.107l-.484 1.329a.083.083 0 0 1-.079.055Zm-.693-.426.642.235.427-1.17-.642-.236-.427 1.171Z" fill="#000"/><path d="M16.74 20.862a4.025 4.025 0 1 0 0-8.05 4.025 4.025 0 0 0 0 8.05Z" fill="#FFC378"/><path d="M19.408 17.813a2.841 2.841 0 1 1-5.337-1.953 2.841 2.841 0 0 1 5.337 1.953Z" fill="#fff"/><path d="M20.52 18.219a4.026 4.026 0 0 1-7.367.444l7.189-3.623c.475.958.572 2.099.178 3.179Z" fill="#FFAB41"/><path d="M16.734 20.946a4.104 4.104 0 0 1-3.918-5.332.085.085 0 0 1 .106-.055c.043.013.069.06.055.106a3.935 3.935 0 0 0 2.41 4.874c.99.362 2.06.315 3.014-.128a3.922 3.922 0 0 0 2.041-2.222 3.92 3.92 0 0 0-.127-3.014 3.924 3.924 0 0 0-2.222-2.041 3.954 3.954 0 0 0-4.55 1.395.085.085 0 0 1-.118.018.083.083 0 0 1-.019-.117 4.125 4.125 0 0 1 4.745-1.456 4.082 4.082 0 0 1 2.317 2.129c.462.996.51 2.111.132 3.141a4.12 4.12 0 0 1-3.866 2.702Z" fill="#000"/><path d="M19.408 17.813a2.841 2.841 0 0 1-5.197.319l5.074-2.556a2.83 2.83 0 0 1 .123 2.237Z" fill="#FADFCB"/><path d="M16.74 19.764a2.95 2.95 0 0 1-1.005-.18 2.905 2.905 0 0 1-1.65-1.514 2.905 2.905 0 0 1-.093-2.236 2.915 2.915 0 0 1 1.514-1.649 2.904 2.904 0 0 1 2.236-.094c.735.269 1.32.807 1.649 1.515.329.708.362 1.502.094 2.235a2.903 2.903 0 0 1-1.515 1.65 2.947 2.947 0 0 1-1.23.273Zm-.003-5.686a2.765 2.765 0 0 0-2.587 1.811 2.737 2.737 0 0 0 .088 2.108c.31.668.863 1.175 1.553 1.428a2.737 2.737 0 0 0 2.109-.09 2.742 2.742 0 0 0 1.427-1.552 2.737 2.737 0 0 0-.089-2.109 2.769 2.769 0 0 0-2.5-1.597Z" fill="#000"/><path d="M17.601 14.56a.084.084 0 0 1-.079-.112l.113-.308a.084.084 0 0 1 .151-.004c.01.019.012.04.006.06l-.112.31a.082.082 0 0 1-.079.055Zm-1.836 5.03a.084.084 0 0 1-.08-.113l.113-.309a.084.084 0 0 1 .158.057l-.112.309a.087.087 0 0 1-.08.055Zm-1.386-3.531a.078.078 0 0 1-.028-.005l-.309-.113a.084.084 0 0 1 .057-.157l.309.112a.084.084 0 0 1 .053.093.084.084 0 0 1-.082.07Zm5.029 1.836a.08.08 0 0 1-.029-.005l-.309-.112a.084.084 0 0 1 .058-.158l.308.113a.084.084 0 0 1-.028.162Zm-3.727-3.252a.083.083 0 0 1-.076-.049l-.139-.298a.083.083 0 0 1 .014-.092.082.082 0 0 1 .026-.019.083.083 0 0 1 .092.014.082.082 0 0 1 .019.026l.14.299a.082.082 0 0 1-.041.11.09.09 0 0 1-.035.01Zm2.256 4.854a.083.083 0 0 1-.076-.049l-.139-.298a.082.082 0 0 1 .04-.11.084.084 0 0 1 .11.04l.14.298a.082.082 0 0 1-.04.11.068.068 0 0 1-.035.009Zm-3.774-1.379a.083.083 0 0 1-.076-.048.082.082 0 0 1 .04-.111l.3-.14a.084.084 0 0 1 .11.041.082.082 0 0 1-.04.11l-.299.14a.09.09 0 0 1-.035.008Zm4.854-2.256a.083.083 0 0 1-.076-.048.083.083 0 0 1 .014-.092.082.082 0 0 1 .027-.019l.298-.14a.084.084 0 0 1 .11.041.082.082 0 0 1-.04.11l-.298.14a.089.089 0 0 1-.035.008Z" fill="#000"/><path d="M19.362 12.486v.002a.387.387 0 0 1-.496.23l-1.097-.401a.383.383 0 0 1-.231-.495v-.002a.389.389 0 0 1 .498-.231l1.096.4a.387.387 0 0 1 .23.497Z" fill="#FF7D83"/><path d="m18.148 12.456-.38-.139a.386.386 0 0 1-.23-.495v-.001a.389.389 0 0 1 .498-.233l.379.139a.39.39 0 0 0-.5.231v.002a.387.387 0 0 0 .233.496Z" fill="#FF5671"/><path d="M19 12.827a.49.49 0 0 1-.163-.029l-1.097-.4a.471.471 0 1 1 .324-.886l1.097.4c.245.09.37.361.282.606v.002a.462.462 0 0 1-.443.307Zm-1.099-1.178a.303.303 0 0 0-.104.589l1.097.4a.303.303 0 0 0 .39-.177v-.002a.304.304 0 0 0-.182-.389l-1.097-.4a.28.28 0 0 0-.104-.02Zm-.452 6.8a.083.083 0 0 1-.076-.049l-.71-1.528a.084.084 0 0 1-.003-.064l.65-1.777a.084.084 0 0 1 .157.057l-.637 1.744.696 1.496a.082.082 0 0 1-.04.11.062.062 0 0 1-.037.01Z" fill="#000"/><path d="M16.74 17.213a.376.376 0 1 0 0-.752.376.376 0 0 0 0 .752Z" fill="#000"/><path d="M14.431 17.127a.085.085 0 0 1-.084-.077.084.084 0 0 1 .076-.09l2.308-.207a.084.084 0 0 1 .09.076.084.084 0 0 1-.075.09l-2.308.206c-.002.002-.003.002-.007.002Zm4.333-7.534a.409.409 0 0 1-.378-.436.408.408 0 0 1 .814.059.408.408 0 0 1-.436.377Zm.045-.624a.218.218 0 0 0-.235.201.22.22 0 0 0 .438.032.22.22 0 0 0-.203-.233Zm2.19 1.443a.234.234 0 0 1-.25.216.235.235 0 0 1-.216-.25.234.234 0 0 1 .466.034Zm-.182 2.755a.234.234 0 0 1-.25.217.235.235 0 0 1-.217-.25.236.236 0 0 1 .25-.215.23.23 0 0 1 .216.248Zm-.819-5.862a.409.409 0 0 1-.377-.436.409.409 0 1 1 .771.213.408.408 0 0 1-.394.223Zm.045-.624a.218.218 0 0 0-.235.202.22.22 0 0 0 .438.032.22.22 0 0 0-.203-.234Zm.307-2.266a.234.234 0 0 1-.25.217.235.235 0 0 1-.216-.25.236.236 0 0 1 .25-.215.235.235 0 0 1 .216.248ZM.25 18.994a.408.408 0 0 1-.017-.577.408.408 0 1 1 .017.577Zm.43-.456a.22.22 0 0 0-.309.008.221.221 0 0 0 .008.31.22.22 0 0 0 .3-.319Zm1.358 2.46a.233.233 0 1 1-.34-.32.233.233 0 0 1 .328-.009.231.231 0 0 1 .012.33ZM2.504.046a.408.408 0 1 1 .378.724.408.408 0 0 1-.378-.724Zm.29.555a.218.218 0 1 0-.2-.385.217.217 0 1 0 .201.386Zm-2.767.48a.233.233 0 1 1 .41-.218.233.233 0 0 1-.41.218Z" fill="#000"/></svg>