<svg width="1058" height="261" fill="none" xmlns="http://www.w3.org/2000/svg"><mask id="a" style="mask-type:luminance" maskUnits="userSpaceOnUse" x="0" y="0" width="1058" height="261"><path d="M0 0h1057.87v260.267H0V0Z" fill="#fff"/></mask><g mask="url(#a)"><path d="M207.467 137.733h86.4c-3.334-21.466-17.467-37.333-41.334-37.333-24.933.133-40 16.933-45.066 37.333Zm122.4 30.667h-122.4c5.066 19.867 19.866 34.933 47.066 34.933 15.2 0 26.267-5.066 32.267-14.8h41.333c-9.066 29.2-38.666 49.067-74.933 49.067-50.8 0-84.8-37.333-84.8-84.4 0-47.467 34.667-83.467 83.067-83.467 46.4 0 79.333 32.934 79.333 80.667.133 6.133-.133 12-.933 18Zm152.666 62.667c-17.466 5.333-25.866 6.666-39.733 6.666-37.6 0-61.6-25.2-61.6-66.266V109.2h-38.933V73.6h39.066V24.133H420V73.6h56.133v35.6H420v62.267c0 21.2 11.467 30.266 30.667 30.266 8.933-.133 18-1.466 26.533-4l5.333 33.334Z" fill="#5FD380"/><path d="M686.267 173.2c-5.334 37.733-35.467 63.467-78.534 63.467-50.933 0-88-35.467-88-83.334 0-47.866 35.734-82.933 84.934-82.933 17.866 0 33.066 5.333 44.533 14.8V73.333h36.133v59.734H647.6c-4.4-16.8-19.867-28-39.733-28-28 0-49.2 21.2-49.2 48.266 0 26.934 21.2 48.267 49.2 48.267 19.6 0 34.4-11.067 38.8-28.267h39.6v-.133Zm152.4 11.067v-62.4c-13.867-13.467-28-18.534-43.2-18.534-27.334 0-47.2 23.334-47.2 49.867 0 26.267 19.866 49.6 47.2 49.6 15.2 0 29.333-5.067 43.2-18.533Zm38.8 12.8h25.6V232.8h-64.4v-11.067c-13.2 9.467-29.734 14.8-48.934 14.8-44.533 0-80.266-37.066-80.266-83.333 0-46.533 35.733-83.6 80.266-83.6 19.2 0 35.734 5.333 48.934 14.8V73.333h64.4v35.734h-25.6v88ZM1057.87 110.4c-28.67 1.067-50.27 6.133-65.47 11.467v75.2h39.73V232.8H928.267v-35.733H953.6v-88h-25.333V73.333H992.4v17.2c15.87-11.466 37.73-19.866 65.47-19.866V110.4Z" fill="#000"/><path d="M116.8 70c-.133 16.133-.267 32.267-.267 48.4H148V70h-31.2Zm-92.4 48.4c13.067.133 23.867-10.4 24-23.467v-.666c0-14-10.4-24.4-24-24.4-13.333 0-24.267 10.8-24.267 24.266C.133 107.6 11.067 118.4 24.4 118.4Zm92.133 16v19.867C116.267 182.133 93.867 204.8 66.4 204.8c-16.8 0-32.534-8.533-41.6-22.667l-1.067-1.333-23.2 16.133C21.733 234.8 69.6 248.4 107.6 227.2c23.333-13.067 38.533-37.067 40.133-63.867v-.4c.134-2.533.267-5.066.267-7.733v-20.933l-31.467.133Z" fill="#5FD380"/></g></svg>