<svg width="10" height="10" fill="none" xmlns="http://www.w3.org/2000/svg"><g clip-path="url(#a)"><path fill-rule="evenodd" clip-rule="evenodd" d="M5.323 1.146a2.5 2.5 0 0 1 3.535 3.535l-.005.005-1.25 1.25a2.5 2.5 0 0 1-3.77-.27.417.417 0 1 1 .667-.499 1.667 1.667 0 0 0 2.514.18L8.26 4.1a1.667 1.667 0 0 0-2.357-2.356l-.714.71a.417.417 0 1 1-.588-.591l.717-.713.004-.004ZM3.291 3.49a2.5 2.5 0 0 1 2.876.845.417.417 0 0 1-.667.499 1.667 1.667 0 0 0-2.514-.18L1.74 5.9a1.667 1.667 0 0 0 2.357 2.357l.71-.71a.417.417 0 0 1 .589.59l-.713.712-.005.005a2.5 2.5 0 0 1-3.535-3.535l.005-.005 1.25-1.25a2.5 2.5 0 0 1 .894-.575Z" fill="#0A58CA"/></g><defs><clipPath id="a"><path fill="#fff" d="M0 0h10v10H0z"/></clipPath></defs></svg>