<svg width="64" height="56" fill="none" xmlns="http://www.w3.org/2000/svg"><path d="M17.637 43.68H6.052a2.086 2.086 0 0 1-2.048-2.469l1.49-8.082a2.079 2.079 0 0 1 2.049-1.71h8.612a2.09 2.09 0 0 1 2.057 1.71l1.49 8.082a2.105 2.105 0 0 1-2.066 2.469Z" fill="#F9A41A"/><path d="M17.637 44.137H6.053c-.76 0-1.463-.329-1.948-.914a2.549 2.549 0 0 1-.548-2.094l1.49-8.082a2.538 2.538 0 0 1 2.496-2.085h8.612c1.235 0 2.286.878 2.506 2.085l1.49 8.082a2.549 2.549 0 0 1-.549 2.094 2.59 2.59 0 0 1-1.965.914ZM7.534 31.877c-.787 0-1.454.557-1.6 1.334l-1.49 8.083c-.092.484.036.969.347 1.344a1.6 1.6 0 0 0 1.243.585h11.584c.485 0 .942-.21 1.253-.585.31-.375.439-.86.347-1.344l-1.49-8.083a1.619 1.619 0 0 0-1.6-1.334H7.534Z" fill="#000100"/><path d="M20.571 43.68H8.987a2.086 2.086 0 0 1-2.048-2.469l1.49-8.082a2.079 2.079 0 0 1 2.049-1.71h8.612a2.09 2.09 0 0 1 2.057 1.71l1.49 8.082a2.098 2.098 0 0 1-2.066 2.469Z" fill="#FBE063"/><path d="M20.571 44.137H8.987a2.51 2.51 0 0 1-1.947-.914 2.549 2.549 0 0 1-.549-2.094l1.49-8.082a2.532 2.532 0 0 1 2.497-2.085h8.612a2.54 2.54 0 0 1 2.505 2.085l1.49 8.082a2.549 2.549 0 0 1-.548 2.094 2.59 2.59 0 0 1-1.966.914Zm-10.093-12.26c-.787 0-1.454.557-1.6 1.334l-1.49 8.083c-.092.484.036.969.347 1.344a1.6 1.6 0 0 0 1.243.585h11.593c.485 0 .942-.21 1.253-.585.31-.375.439-.86.347-1.344l-1.49-8.083a1.619 1.619 0 0 0-1.6-1.334h-8.603Z" fill="#000100"/><path d="M36.334 43.68H24.75a2.086 2.086 0 0 1-2.048-2.469l1.49-8.082a2.08 2.08 0 0 1 2.048-1.71h8.613a2.09 2.09 0 0 1 2.057 1.71l1.49 8.082a2.102 2.102 0 0 1-2.066 2.469Z" fill="#F9A41A"/><path d="M36.334 44.137H24.75c-.76 0-1.463-.329-1.948-.914a2.549 2.549 0 0 1-.548-2.094l1.49-8.082a2.532 2.532 0 0 1 2.496-2.085h8.612a2.54 2.54 0 0 1 2.506 2.085l1.49 8.082a2.549 2.549 0 0 1-.549 2.094 2.59 2.59 0 0 1-1.965.914ZM26.23 31.877c-.787 0-1.454.557-1.6 1.334l-1.49 8.083c-.092.484.036.969.347 1.344a1.6 1.6 0 0 0 1.243.585h11.584c.485 0 .942-.21 1.253-.585.31-.375.439-.86.347-1.344l-1.49-8.083a1.618 1.618 0 0 0-1.6-1.334H26.23Z" fill="#000100"/><path d="M39.269 43.68H27.685a2.086 2.086 0 0 1-2.048-2.469l1.49-8.082a2.08 2.08 0 0 1 2.048-1.71h8.612a2.09 2.09 0 0 1 2.058 1.71l1.49 8.082a2.098 2.098 0 0 1-2.066 2.469Z" fill="#FBE063"/><path d="M39.268 44.137H27.684a2.51 2.51 0 0 1-1.947-.914 2.549 2.549 0 0 1-.549-2.094l1.49-8.082a2.538 2.538 0 0 1 2.497-2.085h8.612a2.54 2.54 0 0 1 2.505 2.085l1.49 8.082a2.549 2.549 0 0 1-.548 2.094 2.59 2.59 0 0 1-1.966.914Zm-10.093-12.26c-.787 0-1.454.557-1.6 1.334l-1.49 8.083c-.092.484.036.969.347 1.344a1.6 1.6 0 0 0 1.243.585H39.26c.485 0 .942-.21 1.253-.585.31-.375.439-.86.347-1.344l-1.49-8.083a1.619 1.619 0 0 0-1.6-1.334h-8.594Z" fill="#000100"/><path d="M55.03 43.68H43.448a2.086 2.086 0 0 1-2.048-2.469l1.49-8.082a2.08 2.08 0 0 1 2.048-1.71h8.613a2.09 2.09 0 0 1 2.057 1.71l1.49 8.082a2.102 2.102 0 0 1-2.066 2.469Z" fill="#F9A41A"/><path d="M55.03 44.137H43.439c-.76 0-1.463-.329-1.948-.914a2.548 2.548 0 0 1-.548-2.094l1.49-8.082a2.537 2.537 0 0 1 2.496-2.085h8.612a2.54 2.54 0 0 1 2.506 2.085l1.49 8.082a2.549 2.549 0 0 1-.549 2.094 2.557 2.557 0 0 1-1.956.914Zm-10.102-12.26c-.786 0-1.454.557-1.6 1.334l-1.49 8.083c-.092.484.036.969.347 1.344a1.6 1.6 0 0 0 1.243.585h11.584c.485 0 .942-.21 1.253-.585.31-.375.439-.86.347-1.344l-1.49-8.083a1.619 1.619 0 0 0-1.6-1.334h-8.594Z" fill="#000100"/><path d="M57.966 43.68H46.382a2.086 2.086 0 0 1-2.048-2.469l1.49-8.082a2.079 2.079 0 0 1 2.048-1.71h8.612a2.09 2.09 0 0 1 2.058 1.71l1.49 8.082a2.098 2.098 0 0 1-2.066 2.469Z" fill="#FBE063"/><path d="M57.966 44.137H46.382c-.76 0-1.463-.329-1.948-.914a2.549 2.549 0 0 1-.548-2.094l1.49-8.082a2.537 2.537 0 0 1 2.496-2.085h8.612c1.235 0 2.286.878 2.506 2.085l1.49 8.082a2.549 2.549 0 0 1-.549 2.094 2.59 2.59 0 0 1-1.965.914Zm-10.094-12.26c-.786 0-1.454.557-1.6 1.334l-1.49 8.083c-.092.484.036.969.347 1.344.311.375.759.585 1.244.585h11.593c.484 0 .941-.21 1.252-.585.311-.375.44-.86.348-1.344l-1.49-8.083a1.619 1.619 0 0 0-1.6-1.334h-8.604Z" fill="#000100"/><path d="M26.057 31.42H14.464a2.086 2.086 0 0 1-2.048-2.47l1.49-8.081a2.08 2.08 0 0 1 2.048-1.71h8.613a2.09 2.09 0 0 1 2.057 1.71l1.49 8.082a2.096 2.096 0 0 1-2.057 2.468Z" fill="#F9A41A"/><path d="M26.057 31.877H14.464c-.759 0-1.463-.33-1.947-.915a2.549 2.549 0 0 1-.55-2.093l1.491-8.083a2.538 2.538 0 0 1 2.496-2.084h8.613a2.54 2.54 0 0 1 2.505 2.084l1.49 8.083a2.549 2.549 0 0 1-.548 2.093 2.557 2.557 0 0 1-1.957.915Zm-10.103-12.26c-.786 0-1.454.557-1.6 1.334l-1.49 8.082c-.091.485.036.97.347 1.344a1.6 1.6 0 0 0 1.244.585h11.602c.485 0 .942-.21 1.253-.585.31-.375.439-.86.347-1.344l-1.49-8.082a1.619 1.619 0 0 0-1.6-1.335h-8.613Z" fill="#000100"/><path d="M28.992 31.42H17.399a2.086 2.086 0 0 1-2.048-2.47l1.49-8.081a2.079 2.079 0 0 1 2.048-1.71h8.613a2.09 2.09 0 0 1 2.057 1.71l1.49 8.082a2.096 2.096 0 0 1-2.057 2.468Z" fill="#FBE063"/><path d="M28.992 31.877H17.399a2.51 2.51 0 0 1-1.948-.915 2.549 2.549 0 0 1-.548-2.093l1.49-8.083a2.532 2.532 0 0 1 2.496-2.084h8.613a2.54 2.54 0 0 1 2.505 2.084l1.49 8.083a2.549 2.549 0 0 1-.549 2.093 2.557 2.557 0 0 1-1.956.915Zm-10.103-12.26c-.786 0-1.454.557-1.6 1.334l-1.49 8.082c-.092.485.036.97.347 1.344a1.6 1.6 0 0 0 1.244.585h11.584c.484 0 .941-.21 1.252-.585a1.62 1.62 0 0 0 .348-1.344l-1.49-8.082a1.618 1.618 0 0 0-1.6-1.335h-8.595Z" fill="#000100"/><path d="M44.754 31.42H33.161a2.086 2.086 0 0 1-2.048-2.47l1.49-8.081a2.079 2.079 0 0 1 2.048-1.71h8.613a2.09 2.09 0 0 1 2.057 1.71l1.49 8.082a2.096 2.096 0 0 1-2.057 2.468Z" fill="#F9A41A"/><path d="M44.754 31.877H33.161c-.759 0-1.463-.33-1.947-.915a2.549 2.549 0 0 1-.549-2.093l1.49-8.083a2.532 2.532 0 0 1 2.496-2.084h8.613a2.54 2.54 0 0 1 2.505 2.084l1.49 8.083a2.549 2.549 0 0 1-.548 2.093 2.556 2.556 0 0 1-1.957.915Zm-10.102-12.26c-.787 0-1.454.557-1.6 1.334l-1.49 8.082c-.092.485.036.97.347 1.344.31.375.758.585 1.243.585h11.584c.485 0 .942-.21 1.253-.585.31-.375.439-.86.347-1.344l-1.49-8.082a1.619 1.619 0 0 0-1.6-1.335H34.65Z" fill="#000100"/><path d="M47.69 31.42H36.095a2.086 2.086 0 0 1-2.048-2.47l1.49-8.081a2.079 2.079 0 0 1 2.048-1.71H46.2a2.09 2.09 0 0 1 2.057 1.71l1.49 8.082a2.096 2.096 0 0 1-2.057 2.468Z" fill="#FBE063"/><path d="M47.69 31.877H36.095c-.759 0-1.463-.33-1.947-.915a2.549 2.549 0 0 1-.549-2.093l1.49-8.083a2.538 2.538 0 0 1 2.496-2.084H46.2a2.54 2.54 0 0 1 2.505 2.084l1.49 8.083a2.548 2.548 0 0 1-.548 2.093 2.556 2.556 0 0 1-1.957.915Zm-10.104-12.26c-.786 0-1.453.557-1.6 1.334l-1.49 8.082c-.091.485.037.97.347 1.344a1.6 1.6 0 0 0 1.244.585H47.67c.485 0 .942-.21 1.252-.585.311-.375.44-.86.348-1.344l-1.49-8.082a1.622 1.622 0 0 0-1.61-1.335h-8.585Z" fill="#000100"/><path d="M35.236 19.159H23.643a2.086 2.086 0 0 1-2.048-2.469l1.49-8.082a2.079 2.079 0 0 1 2.049-1.71h8.612a2.09 2.09 0 0 1 2.057 1.71l1.49 8.082a2.096 2.096 0 0 1-2.057 2.469Z" fill="#F9A41A"/><path d="M35.236 19.616H23.643a2.51 2.51 0 0 1-1.947-.914 2.548 2.548 0 0 1-.549-2.094l1.49-8.082a2.538 2.538 0 0 1 2.497-2.085h8.612a2.54 2.54 0 0 1 2.505 2.085l1.49 8.082a2.549 2.549 0 0 1-.548 2.094 2.557 2.557 0 0 1-1.956.914ZM25.134 7.356c-.787 0-1.454.557-1.6 1.334l-1.49 8.083c-.092.484.036.969.347 1.344.31.374.759.585 1.243.585h11.584c.485 0 .942-.21 1.253-.585.31-.375.439-.86.347-1.344l-1.49-8.083a1.622 1.622 0 0 0-1.61-1.335h-8.584Z" fill="#000100"/><path d="M38.172 19.159H26.578a2.086 2.086 0 0 1-2.048-2.469l1.49-8.082a2.08 2.08 0 0 1 2.049-1.71h8.612a2.09 2.09 0 0 1 2.057 1.71l1.49 8.082a2.096 2.096 0 0 1-2.056 2.469Z" fill="#FBE063"/><path d="M38.171 19.616H26.578a2.51 2.51 0 0 1-1.947-.914 2.548 2.548 0 0 1-.549-2.094l1.49-8.082A2.538 2.538 0 0 1 28.07 6.44h8.612a2.54 2.54 0 0 1 2.505 2.085l1.49 8.082a2.549 2.549 0 0 1-.548 2.094 2.557 2.557 0 0 1-1.957.914ZM28.07 7.356c-.787 0-1.454.557-1.6 1.334l-1.49 8.083c-.092.484.036.969.347 1.344.31.374.758.585 1.243.585h11.584a1.624 1.624 0 0 0 1.6-1.929l-1.49-8.083a1.619 1.619 0 0 0-1.6-1.335H28.07ZM12.507 17.448a.43.43 0 0 1-.32-.137l-3.776-3.785a.453.453 0 0 1 0-.65.453.453 0 0 1 .65 0l3.775 3.795a.47.47 0 0 1 0 .65.497.497 0 0 1-.329.127Zm-1.828 2.002a.396.396 0 0 1-.174-.036l-3.502-1.472a.457.457 0 0 1-.247-.594.457.457 0 0 1 .595-.247l3.501 1.472a.457.457 0 0 1-.173.877Zm3.758-3.437a.45.45 0 0 1-.43-.311L12.79 12.11a.45.45 0 0 1 .283-.576c.238-.073.503.045.576.283l1.216 3.593a.45.45 0 0 1-.283.576.379.379 0 0 1-.146.028Zm34.99 2.505a.443.443 0 0 1-.32-.137.453.453 0 0 1 0-.65l3.775-3.794a.453.453 0 0 1 .65 0 .453.453 0 0 1 0 .65l-3.777 3.794a.497.497 0 0 1-.329.137Zm1.828 1.993a.456.456 0 0 1-.42-.283.447.447 0 0 1 .246-.595l3.502-1.472c.238-.1.503.01.594.247.1.229-.01.503-.247.594l-3.502 1.472a.395.395 0 0 1-.173.037Zm-3.767-3.429a.418.418 0 0 1-.146-.027.452.452 0 0 1-.284-.576l1.216-3.593a.452.452 0 0 1 .73-.195.455.455 0 0 1 .13.487l-1.216 3.594a.453.453 0 0 1-.43.31Z" fill="#000100"/><path d="M61.422 46.386c0 .75-.302 1.427-.796 1.92a2.702 2.702 0 0 1-1.92.796H5.285a2.715 2.715 0 1 1 0-5.431h53.421a2.715 2.715 0 0 1 2.716 2.715Z" fill="#8F90FB"/><path d="M58.706 49.559H5.294a3.18 3.18 0 0 1-3.173-3.173c0-.85.33-1.645.933-2.24a3.148 3.148 0 0 1 2.24-.932h53.421a3.18 3.18 0 0 1 3.173 3.172c0 .85-.33 1.646-.933 2.24a3.154 3.154 0 0 1-2.249.933ZM5.294 44.128a2.28 2.28 0 0 0-1.6.658 2.263 2.263 0 0 0 1.6 3.859h53.421c.604 0 1.17-.238 1.6-.659a2.263 2.263 0 0 0-1.6-3.858H5.294Z" fill="#000100"/></svg>