<svg width="15" height="15" fill="none" xmlns="http://www.w3.org/2000/svg"><g clip-path="url(#a)"><mask id="b" style="mask-type:alpha" maskUnits="userSpaceOnUse" x="0" y="0" width="15" height="16"><path d="M7.5 15a7.5 7.5 0 1 0 0-15 7.5 7.5 0 0 0 0 15Z" fill="#fff"/></mask><g mask="url(#b)"><path d="M15 .001H0v15h15v-15Z" fill="url(#c)"/><path d="M0 9.375h4.688V15H0V9.375Z" fill="url(#d)"/><path d="M4.688 7.688c0-1.05 0-1.576.204-1.977.18-.353.466-.64.82-.82.4-.204.925-.204 1.976-.204h2.625V15H4.686V7.687Z" fill="url(#e)"/><path d="M10.313 0H15v15h-4.688V0Z" fill="url(#f)"/></g></g><defs><linearGradient id="c" x1="10.75" y1="10.875" x2="-1.625" y2="-6.375" gradientUnits="userSpaceOnUse"><stop stop-color="#4643B9"/><stop offset="1" stop-color="#1E8AFF"/></linearGradient><linearGradient id="d" x1="4.996" y1="13.054" x2="-8.825" y2="10.546" gradientUnits="userSpaceOnUse"><stop stop-color="#FF002E"/><stop offset="1" stop-color="#FFADA1"/></linearGradient><linearGradient id="e" x1="39.281" y1="37.63" x2="42.753" y2="9.752" gradientUnits="userSpaceOnUse"><stop stop-color="#3C3BA0"/><stop offset=".49" stop-color="#1E8AFF"/><stop offset="1" stop-color="#00B2FF"/></linearGradient><linearGradient id="f" x1="10.313" y1=".771" x2="23.491" y2="7.688" gradientUnits="userSpaceOnUse"><stop stop-color="#FFEA1A"/><stop offset="1" stop-color="#FFB800"/></linearGradient><clipPath id="a"><path fill="#fff" d="M0 0h15v15H0z"/></clipPath></defs></svg>