<svg width="52" height="52" fill="none" xmlns="http://www.w3.org/2000/svg"><g clip-path="url(#a)" fill-rule="evenodd" clip-rule="evenodd"><path opacity=".987" d="M13.152-.05h3.657c.22.186.355.423.406.71-.055.33-.224.584-.508.762-.778.05-1.557.068-2.336.05-.101 12.78-.135 25.577-.101 38.391 7.888-.017 15.776 0 23.664.051.907.41 1.263 1.104 1.066 2.082a14.659 14.659 0 0 0-.305 6.703c.169.573.321 1.149.457 1.727 1.83.23 3.454-.227 4.875-1.371.15-.18.285-.367.407-.559a4.543 4.543 0 0 0 1.168-2.539l.101-9.75c.174-.294.428-.43.762-.406.31-.006.53.13.66.406a248.91 248.91 0 0 1 0 10.055c-.587 3.074-2.398 4.97-5.434 5.687H18.738a1.303 1.303 0 0 1-.406-.71c.056-.314.226-.568.508-.762 6.229-.051 12.458-.068 18.687-.051a18.34 18.34 0 0 1-.457-7.008c.074-.489.193-.963.356-1.422.013-.174.047-.343.101-.508-5.078-.068-10.173-.101-15.285-.101-5.13 0-10.224.068-15.285.203a.702.702 0 0 0-.102.406c-.543 1.674-.73 3.4-.558 5.18.15 1.1.37 2.183.66 3.25 2.98-.017 5.959 0 8.938.05.402.115.639.369.71.762a1.3 1.3 0 0 1-.406.711H6.45a1.772 1.772 0 0 1-.965-1.117 16.814 16.814 0 0 1-.304-8.836 7.593 7.593 0 0 1 .609-1.625 7.02 7.02 0 0 1 .66-.457c2.099-.05 4.198-.068 6.297-.05-.017-13.17 0-26.34.05-39.509a.71.71 0 0 1 .356-.406Z" fill="#000"/><path opacity=".989" d="M19.45-.05h27.32a.71.71 0 0 1 .355.405c.068 11.037.068 22.073 0 33.11-.13.276-.35.412-.66.406-.334.024-.588-.112-.762-.406a5017.13 5017.13 0 0 1-.05-31.992c-8.701.017-17.402 0-26.102-.051a1.069 1.069 0 0 1-.508-.762 1.17 1.17 0 0 1 .406-.71Z" fill="#000"/><path d="M17.215.66h1.828c.055.33.224.584.508.762 8.7.05 17.4.068 26.101.05-.017 10.665 0 21.329.051 31.993.174.294.428.43.762.406v1.93c-.334-.024-.588.112-.762.406l-.101 9.75a4.544 4.544 0 0 1-1.168 2.54c-1.44 1.065-3.065 1.54-4.875 1.421a16.224 16.224 0 0 1-.051-7.82c.31-1.19-.079-2.053-1.168-2.59a951.058 951.058 0 0 0-23.969-.153V1.474c.78.017 1.558 0 2.336-.051.284-.178.453-.432.508-.762Z" fill="#DDEEFD"/><path d="M28.895 5.535c2.974-.22 4.82 1.1 5.535 3.961.105 2.907-1.266 4.65-4.114 5.23-2.579.063-4.254-1.14-5.027-3.605-.278-2.83.923-4.693 3.605-5.586Z" fill="#B4C7DB"/><path d="M28.793 6.145c2.542-.297 4.218.753 5.027 3.148.284 2.465-.749 4.073-3.097 4.824-1.658.294-3.029-.197-4.114-1.473-1.356-2.191-1.068-4.138.864-5.84a11.13 11.13 0 0 1 1.32-.66Z" fill="#020304"/><path d="M29.3 7.566c2.131-.02 3.13 1.03 2.997 3.149-.602 1.68-1.77 2.273-3.504 1.777-1.529-.941-1.884-2.21-1.066-3.808.419-.538.944-.91 1.574-1.118Z" fill="#006BEF"/><path d="M19.855 9.395c.829-.07 1.184.303 1.067 1.117-.416.469-.856.503-1.32.101-.259-.485-.174-.891.253-1.218Z" fill="#0B0C0D"/><path d="M22.496 9.395c.778-.085 1.134.253 1.067 1.015-.309.498-.715.6-1.22.305-.36-.49-.308-.93.153-1.32Z" fill="#090A0B"/><path d="M36.715 9.395c.942-.042 1.247.364.914 1.218-.466.438-.89.404-1.27-.101-.135-.47-.017-.843.356-1.117Z" fill="#0B0C0C"/><path d="M39.355 9.395c1.067-.002 1.338.455.813 1.37-.87.282-1.26-.04-1.168-.964.14-.123.258-.258.355-.406Z" fill="#0B0B0C"/><path d="M24.629 18.23c3.555-.017 7.11 0 10.664.051.565.148.75.504.559 1.067l-.356.355c-3.69.068-7.38.068-11.07 0-.59-.599-.522-1.09.203-1.473Z" fill="#040405"/><path d="M19.145 21.074c7.21-.017 14.421 0 21.632.051.616.195.768.584.457 1.168a.716.716 0 0 1-.457.254c-7.21.068-14.422.068-21.633 0-.49-.182-.677-.538-.558-1.067.152-.2.338-.335.559-.406Z" fill="#000"/><path d="M18.941 23.918c4.774-.017 9.547 0 14.32.05.378.265.496.62.356 1.067a.78.78 0 0 1-.558.356c-4.672.067-9.344.067-14.016 0-.616-.454-.65-.945-.102-1.473Z" fill="#040405"/><path d="M34.988 23.918c1.964-.017 3.928 0 5.89.05.527.256.645.646.356 1.169a2.08 2.08 0 0 0-.355.254c-1.93.067-3.86.067-5.79 0-.617-.463-.651-.954-.1-1.473Z" fill="#050606"/><path d="M36.41 28.387c.845-.035 1.184.372 1.016 1.218a2.9 2.9 0 0 1 1.218.153c.342.307.393.663.153 1.066a.715.715 0 0 1-.457.254l-2.438.102c-.45.465-.383.838.203 1.117l1.727.101c1.492.65 1.881 1.716 1.168 3.2-.347.47-.804.774-1.371.914-.002.83-.408 1.22-1.219 1.168-.352-.31-.487-.699-.406-1.168a2.896 2.896 0 0 1-1.219-.153c-.319-.508-.251-.948.203-1.32l2.54-.102c.419-.408.385-.78-.102-1.117l-1.828-.101c-1.249-.525-1.706-1.456-1.371-2.793.339-.72.897-1.16 1.675-1.32.008-.486.177-.893.508-1.22Z" fill="#030404"/><path d="M18.941 29.402c2.81-.017 5.62 0 8.43.051.542.44.542.88 0 1.32-2.81.068-5.62.068-8.43 0-.536-.456-.536-.913 0-1.37Z" fill="#010101"/><path d="M19.043 32.145c2.675-.017 5.35 0 8.023.05.81.323.912.797.305 1.422-2.81.068-5.62.068-8.43 0-.551-.532-.517-1.023.102-1.472Z" fill="#070808"/><path d="M19.043 34.988c2.742-.017 5.485 0 8.227.051.437.234.59.59.457 1.066a.78.78 0 0 1-.56.356c-2.741.068-5.483.068-8.226 0-.551-.532-.517-1.023.102-1.473Z" fill="#040404"/><path d="M14.371 1.473v37.883c7.995-.05 15.985 0 23.969.152 1.09.537 1.479 1.4 1.168 2.59a16.227 16.227 0 0 0 .05 7.82c1.81.118 3.436-.356 4.876-1.422a5.556 5.556 0 0 1-.407.559c-1.42 1.144-3.046 1.601-4.875 1.37a32.526 32.526 0 0 0-.457-1.726A14.659 14.659 0 0 1 39 41.996c.197-.978-.159-1.672-1.066-2.082-7.888-.05-15.776-.068-23.664-.05-.034-12.815 0-25.611.101-38.391Z" fill="#B6C9DB"/><path d="M37.527 41.488c-10.197-.033-20.387 0-30.57.102 5.06-.136 10.156-.203 15.285-.203 5.112 0 10.207.033 15.285.101Z" fill="#5FA2DF"/><path d="M37.527 41.488a2.098 2.098 0 0 0-.101.508H6.856a.702.702 0 0 1 .101-.406c10.183-.102 20.373-.135 30.57-.102Z" fill="#66B2F6"/><path d="M6.855 41.996h30.57a7.64 7.64 0 0 0-.355 1.422 18.34 18.34 0 0 0 .457 7.008c-6.229-.017-12.458 0-18.687.05a1.146 1.146 0 0 0-.508.762h-1.727c-.071-.393-.308-.647-.71-.761-2.98-.051-5.959-.068-8.938-.051a25.41 25.41 0 0 1-.66-3.25 12.675 12.675 0 0 1 .558-5.18Z" fill="#349AF6"/></g><defs><clipPath id="a"><path fill="#fff" d="M0 0h52v52H0z"/></clipPath></defs></svg>