<svg width="64" height="64" fill="none" xmlns="http://www.w3.org/2000/svg"><g clip-path="url(#a)"><path d="m54.844 29.639-1.133-3.575a9.34 9.34 0 0 0 6.54-8.939V7.75h-5.626V5.875C54.625 4.84 55.465 4 56.5 4H64v13.125c0 2.844-.895 5.55-2.588 7.827a13.058 13.058 0 0 1-6.568 4.687Z" fill="#FDBF00"/><path d="M9.156 29.639a13.059 13.059 0 0 1-6.568-4.687A13.02 13.02 0 0 1 0 17.125V4h7.5c1.036 0 1.875.84 1.875 1.875V7.75H3.75v9.375a9.34 9.34 0 0 0 6.54 8.939l-1.134 3.575Z" fill="#FFDA2D"/><path d="m47 4-1.875 20.625v23.132l5.611-5.494 5.639 5.639V4H47Z" fill="#FF641A"/><path d="M17 4H7.625v43.757l5.611-5.494 5.639 5.639V24.625L17 4Z" fill="#FF9100"/><path d="M48.875 24.625V0h-33.75v24.625c0 7.21 4.558 13.557 11.25 15.915v12.21h-5.183a6.075 6.075 0 0 0-6.067 6.068V64h33.75v-5.182a6.075 6.075 0 0 0-6.068-6.068h-5.182V40.54a16.869 16.869 0 0 0 11.25-15.915Z" fill="#FFDA2D"/><path d="M37.625 40.54v12.21h5.182a6.075 6.075 0 0 1 6.068 6.068V64H32V0h16.875v24.625a16.869 16.869 0 0 1-11.25 15.915Z" fill="#FDBF00"/><path d="M43.599 14.791 35.55 13.65 32 6.627l-3.55 7.023-8.049 1.141 5.828 5.546-1.364 7.765L32 24.44l7.135 3.662-1.364-7.765 5.828-5.546Z" fill="#FDBF00"/><path d="m37.771 20.337 1.364 7.765L32 24.44V6.627l3.55 7.023 8.049 1.141-5.828 5.546Z" fill="#FF9100"/></g><defs><clipPath id="a"><path fill="#fff" d="M0 0h64v64H0z"/></clipPath></defs></svg>