<svg width="16" height="16" viewBox="0 0 16 16" fill="none" xmlns="http://www.w3.org/2000/svg">
<path opacity="0.97" fill-rule="evenodd" clip-rule="evenodd" d="M13.1093 3.57817C13.6164 3.5242 13.9081 3.74817 13.9843 4.25005C13.9637 4.41592 13.9064 4.56695 13.8124 4.70317C11.4322 7.33339 9.05198 9.96358 6.67176 12.5938C6.38398 12.7463 6.10273 12.7359 5.82801 12.5625C4.42841 11.2557 3.03779 9.93795 1.65613 8.60942C1.43976 8.15452 1.54913 7.80555 1.98426 7.56255C2.17548 7.49714 2.36298 7.50755 2.54676 7.5938C3.63941 8.55095 4.72273 9.5197 5.79676 10.5C6.13795 10.7792 6.46607 10.7636 6.78113 10.4532C8.80604 8.18864 10.8425 5.93342 12.8905 3.68755C12.9663 3.64964 13.0392 3.6132 13.1093 3.57817Z" fill="white"/>
</svg>
