<svg width="24" height="22" fill="none" xmlns="http://www.w3.org/2000/svg"><path opacity=".963" fill-rule="evenodd" clip-rule="evenodd" d="M.074 13.131a71.054 71.054 0 0 1 .07-4.406c.23-.268.519-.354.868-.258l1.312.563c.054.035.1.027.141-.024C3.333 5.021 5.661 2.28 9.45.78c3.43-1.104 6.665-.697 9.704 1.218 3.388 2.441 4.958 5.762 4.71 9.961-.413 3.55-2.108 6.293-5.085 8.227-3.084 1.783-6.303 2.064-9.657.844-3.594-1.556-5.813-4.251-6.656-8.086l-.07-.047a8.209 8.209 0 0 1-1.664.61.932.932 0 0 1-.375-.071 2.527 2.527 0 0 1-.282-.305Zm1.313-1.312c-.016-.564 0-1.126.047-1.688.66.272 1.317.554 1.969.844-.665.3-1.337.581-2.016.844Zm2.39.75a.426.426 0 0 1 .047-.258l1.782-.75c.286-.267.356-.588.21-.961l-.21-.21A64.01 64.01 0 0 1 3.8 9.615c-.01-.173.005-.345.047-.516.091-.359.177-.718.258-1.078 1.93.762 3.853 1.551 5.765 2.367-.062.39-.062.781 0 1.172a228.93 228.93 0 0 1-5.765 2.367c-.104-.46-.213-.913-.328-1.36Zm.891 2.718c.004-.058.035-.097.094-.117l5.578-2.32c.281.313.578.61.89.89a623.38 623.38 0 0 1-2.39 5.673 9.504 9.504 0 0 1-4.172-4.126Zm0-8.53c.917-1.871 2.308-3.277 4.172-4.22a624.092 624.092 0 0 1 2.39 5.672c-.312.282-.609.578-.89.891-1.884-.8-3.775-1.581-5.672-2.344Zm5.485 13.218a228.895 228.895 0 0 1 2.367-5.766c.39.063.781.063 1.172 0 .81 1.901 1.591 3.807 2.343 5.72a8.127 8.127 0 0 1-2.953.468 9.632 9.632 0 0 1-2.93-.422Zm0-17.86v-.14a10.347 10.347 0 0 1 5.578-.07.636.636 0 0 1 .328.164c-.79 1.89-1.578 3.781-2.367 5.672a3.687 3.687 0 0 0-1.172 0 463.718 463.718 0 0 0-2.367-5.625Zm.984 8.907c.174-1.417.971-2.065 2.39-1.945 1.125.365 1.618 1.139 1.477 2.32-.366 1.125-1.14 1.617-2.32 1.476-.937-.272-1.452-.889-1.547-1.851Zm3.844 2.765.89-.937c1.89.79 3.782 1.578 5.672 2.367a9.715 9.715 0 0 1-4.195 4.196 464.783 464.783 0 0 0-2.367-5.626Zm0-5.53c.784-1.908 1.573-3.814 2.367-5.72a9.715 9.715 0 0 1 4.195 4.196L15.848 9.1a4.435 4.435 0 0 0-.867-.844Zm1.36 3.327a3.876 3.876 0 0 0 0-1.195l5.67-2.367a.17.17 0 0 1 .071.047c.654 1.948.647 3.894-.023 5.836a430.404 430.404 0 0 1-5.719-2.32Z" fill="#39F"/></svg>