<svg width="64" height="64" fill="none" xmlns="http://www.w3.org/2000/svg"><path d="M2.781 25.834c0 12.59 10.204 22.806 22.807 22.806 12.59 0 22.806-10.203 22.806-22.806 0-12.603-10.216-22.794-22.819-22.794-12.59 0-22.794 10.203-22.794 22.794Z" fill="#AFDEE0"/><path d="M18.51 39.606v19.47c0 .702.567 1.268 1.268 1.268h7.028c.714 0 1.28-.566 1.28-1.267v-19.47c0-.703-.566-1.269-1.28-1.269H19.78c-.702 0-1.268.566-1.268 1.268Z" fill="#000"/><path d="M19.779 60.96h7.027c1.046 0 1.896-.85 1.896-1.883v-19.47c0-1.035-.85-1.884-1.896-1.884H19.78c-1.034 0-1.884.85-1.884 1.883v19.47c0 1.047.85 1.884 1.884 1.884Zm7.027-22.006c.37 0 .665.283.665.652v19.47c0 .37-.296.653-.665.653H19.78a.657.657 0 0 1-.653-.652v-19.47c0-.358.296-.653.653-.653h7.027Z" fill="#000"/><path d="M20.973 39.606v19.47c0 .702.566 1.268 1.267 1.268h7.028c.714 0 1.28-.566 1.28-1.267v-19.47c0-.703-.566-1.269-1.28-1.269H22.24c-.701 0-1.267.566-1.267 1.268Z" fill="#00AAE8"/><path d="M22.24 60.96h7.028c1.046 0 1.895-.85 1.895-1.883v-19.47c0-1.035-.85-1.884-1.895-1.884H22.24c-1.034 0-1.883.85-1.883 1.883v19.47c0 1.047.85 1.884 1.883 1.884Zm7.028-22.006c.369 0 .664.283.664.652v19.47c0 .37-.295.653-.664.653H22.24a.657.657 0 0 1-.652-.652v-19.47c0-.358.295-.653.652-.653h7.028ZM48.566 25.34v33.736c0 .702.566 1.268 1.268 1.268h7.04c.701 0 1.268-.566 1.268-1.268V25.342c0-.702-.567-1.28-1.268-1.28h-7.04c-.702 0-1.268.578-1.268 1.28Z" fill="#000"/><path d="M49.834 60.96h7.04c1.034 0 1.883-.85 1.883-1.883V25.342c0-1.047-.85-1.896-1.883-1.896h-7.04c-1.034 0-1.883.85-1.883 1.896v33.735c0 1.046.85 1.883 1.883 1.883Zm7.04-36.283a.66.66 0 0 1 .652.665v33.735a.657.657 0 0 1-.652.652h-7.04a.657.657 0 0 1-.652-.652V25.342a.66.66 0 0 1 .652-.665h7.04Z" fill="#000"/><path d="M51.028 25.341v33.736c0 .701.566 1.268 1.267 1.268h7.04c.702 0 1.268-.567 1.268-1.268V25.342c0-.702-.566-1.28-1.268-1.28h-7.04c-.701 0-1.267.578-1.267 1.28Z" fill="#00AAE8"/><path d="M52.295 60.96h7.04c1.034 0 1.883-.85 1.883-1.883V25.342a1.893 1.893 0 0 0-1.883-1.896h-7.04c-1.033 0-1.883.85-1.883 1.896v33.735c0 1.046.85 1.883 1.883 1.883Zm7.04-36.283a.66.66 0 0 1 .653.665v33.735a.657.657 0 0 1-.653.652h-7.04a.657.657 0 0 1-.652-.652V25.342a.66.66 0 0 1 .652-.665h7.04Z" fill="#000"/><path d="M57.502 30.252c-.173 1.92-.32 3.84-.431 5.76-.05.96-.21 1.92-.123 2.88.086.96.209 1.92.554 2.88.012.037.049.05.086.037.024-.012.037-.024.037-.037.344-.96.467-1.92.554-2.88.086-.96-.074-1.92-.123-2.88-.111-1.92-.259-3.84-.431-5.76 0-.037-.037-.061-.062-.061a.148.148 0 0 0-.061.061Z" fill="#fff"/><path d="M3.483 46.585v12.492c0 .701.566 1.268 1.268 1.268h7.028c.701 0 1.28-.567 1.28-1.268V46.585c0-.702-.579-1.268-1.28-1.268H4.75c-.702 0-1.268.566-1.268 1.268Z" fill="#000"/><path d="M4.75 60.96h7.028c1.047 0 1.896-.85 1.896-1.883V46.585c0-1.034-.85-1.883-1.896-1.883H4.751a1.89 1.89 0 0 0-1.883 1.883v12.492c0 1.046.849 1.883 1.883 1.883Zm7.028-15.028a.66.66 0 0 1 .665.653v12.492a.66.66 0 0 1-.665.652H4.751a.657.657 0 0 1-.653-.652V46.585c0-.357.296-.653.653-.653h7.027Z" fill="#000"/><path d="M5.945 46.585v12.492c0 .701.566 1.268 1.267 1.268h7.028c.702 0 1.28-.567 1.28-1.268V46.585c0-.702-.578-1.268-1.28-1.268H7.212c-.701 0-1.267.566-1.267 1.268Z" fill="#fff"/><path d="M7.212 60.96h7.028c1.046 0 1.895-.85 1.895-1.883V46.585a1.893 1.893 0 0 0-1.895-1.883H7.212a1.89 1.89 0 0 0-1.883 1.883v12.492c0 1.046.85 1.883 1.883 1.883Zm7.028-15.028a.66.66 0 0 1 .665.653v12.492a.66.66 0 0 1-.665.652H7.212a.657.657 0 0 1-.652-.652V46.585c0-.357.295-.653.652-.653h7.028Zm19.298-12.086v25.231c0 .702.579 1.268 1.28 1.268h7.028c.702 0 1.268-.566 1.268-1.268v-25.23c0-.702-.566-1.269-1.268-1.269h-7.028c-.701 0-1.28.567-1.28 1.268Z" fill="#000"/><path d="M34.819 60.96h7.027a1.89 1.89 0 0 0 1.883-1.883v-25.23a1.89 1.89 0 0 0-1.883-1.884H34.82c-1.047 0-1.896.85-1.896 1.883v25.23c0 1.047.862 1.884 1.895 1.884Zm7.027-27.766c.357 0 .653.295.653.652v25.23a.657.657 0 0 1-.653.653H34.82a.66.66 0 0 1-.665-.652v-25.23a.66.66 0 0 1 .664-.653h7.028Z" fill="#000"/><path d="M36 33.846v25.231c0 .702.578 1.268 1.28 1.268h7.028c.701 0 1.267-.566 1.267-1.268v-25.23c0-.702-.566-1.269-1.267-1.269H37.28c-.702 0-1.28.567-1.28 1.268Z" fill="#fff"/><path d="M37.28 60.96h7.028c1.034 0 1.883-.85 1.883-1.883v-25.23c0-1.035-.85-1.884-1.883-1.884H37.28c-1.046 0-1.895.85-1.895 1.883v25.23c0 1.047.861 1.884 1.895 1.884Zm7.028-27.766c.357 0 .652.295.652.652v25.23a.657.657 0 0 1-.652.653H37.28a.66.66 0 0 1-.665-.652v-25.23a.66.66 0 0 1 .665-.653h7.028Zm7.982-25.12c.073-1.28-1.256-2.166-2.4-1.6l-4.764 2.35a1.667 1.667 0 0 0-.184 2.88l1.107.739c-4 5.686-11.852 15.914-16.184 17.366-1.662.566-4.899-.443-7.754-1.341-2.819-.874-5.465-1.711-7.495-1.477-3.791.418-12.21 7.138-13.157 7.901a1.234 1.234 0 1 0 1.55 1.92c3.36-2.72 9.551-7.126 11.877-7.384 1.514-.16 4.05.627 6.486 1.39 3.373 1.059 6.856 2.142 9.28 1.33 5.49-1.859 14.056-13.49 17.44-18.339l1.268.837c1.059.714 2.499 0 2.585-1.28l.344-5.292Z" fill="#000"/></svg>