<svg width="64" height="64" fill="none" xmlns="http://www.w3.org/2000/svg"><path d="M31.981 63.962c17.663 0 31.981-14.318 31.981-31.98C63.962 14.318 49.645 0 31.982 0 14.318 0 0 14.319 0 31.981c0 17.663 14.319 31.981 31.981 31.981Z" fill="#FFD200"/><path d="M31.981 62.313c16.752 0 30.332-13.58 30.332-30.332 0-16.751-13.58-30.331-30.332-30.331C15.23 1.65 1.65 15.23 1.65 31.98c0 16.752 13.58 30.332 30.331 30.332Z" fill="#FA0"/><path d="M31.981 61.038c16.048 0 29.057-13.01 29.057-29.057 0-16.047-13.01-29.057-29.057-29.057-16.048 0-29.057 13.01-29.057 29.057 0 16.048 13.01 29.057 29.057 29.057Z" fill="#FFF9DD"/><path fill-rule="evenodd" clip-rule="evenodd" d="M19.009 9.523c-.3.15-.675.075-.863-.225a.658.658 0 0 1 .225-.9c1.05-.562 2.1-1.087 3.187-1.574a29.67 29.67 0 0 1 3.375-1.125c5.96-1.612 12.072-1.087 17.471 1.125a27.298 27.298 0 0 1 13.16 11.547c0 .038.038.038.038.038.337.6.637 1.2.937 1.762.3.637.562 1.237.787 1.875.15.3-.037.675-.337.825-.338.112-.713-.038-.825-.375-.263-.6-.487-1.2-.787-1.762a18.426 18.426 0 0 0-.9-1.688v-.037a25.893 25.893 0 0 0-12.56-10.986A25.74 25.74 0 0 0 25.27 6.936c-1.087.3-2.175.638-3.224 1.087-1.05.413-2.063.938-3.037 1.5ZM10.16 17.96c-.187.3-.6.375-.862.188-.3-.188-.412-.6-.225-.863.45-.675.938-1.35 1.425-1.987a18.939 18.939 0 0 1 1.575-1.875c.224-.262.637-.262.9-.037a.646.646 0 0 1 .037.9 21.935 21.935 0 0 0-1.5 1.762c-.487.637-.937 1.237-1.35 1.912Zm43.642 28.157a.613.613 0 0 1 .862-.187c.3.187.375.562.188.862a27.075 27.075 0 0 1-4.087 4.949c-1.537 1.425-3.262 2.737-5.174 3.824a27.182 27.182 0 0 1-20.658 2.737c-6.712-1.8-12.748-6.186-16.535-12.71v-.037a26.71 26.71 0 0 1-3.487-10.76C4.5 30.968 4.95 27.106 6.15 23.47c.112-.337.45-.524.787-.412a.658.658 0 0 1 .412.825A26.231 26.231 0 0 0 6.186 34.68a25.604 25.604 0 0 0 3.3 10.273h.037c3.562 6.224 9.336 10.385 15.747 12.11a25.908 25.908 0 0 0 19.684-2.587h.037a25.17 25.17 0 0 0 4.874-3.674c1.537-1.425 2.812-3 3.937-4.687Zm4.124-12.935c0-.375.3-.637.675-.637.337.037.6.337.6.675a31.657 31.657 0 0 1-.15 1.95c-.075.637-.188 1.274-.3 1.949a.637.637 0 0 1-.75.487.696.696 0 0 1-.525-.75c.113-.6.225-1.2.3-1.837.075-.637.113-1.237.15-1.837Z" fill="#FFE0C7"/><path fill-rule="evenodd" clip-rule="evenodd" d="M18.297 39.067a3.938 3.938 0 0 1 0-5.623 3.938 3.938 0 0 1 5.623 0l1.613 1.574 14.51-14.547a4.051 4.051 0 0 1 5.66 0c1.575 1.575 1.575 4.124 0 5.661l-17.359 17.36a3.983 3.983 0 0 1-5.66 0l-4.387-4.425Z" fill="#00CB9F"/></svg>