<svg width="25" height="25" fill="none" xmlns="http://www.w3.org/2000/svg"><path d="M11.418 23.59c5.554 0 10.056-4.456 10.056-9.953 0-5.497-4.502-9.952-10.056-9.952-5.554 0-10.056 4.455-10.056 9.952s4.502 9.953 10.056 9.953Z" fill="#C63734"/><path d="M11.418 21.393c4.328 0 7.836-3.472 7.836-7.756 0-4.283-3.508-7.755-7.836-7.755s-7.836 3.472-7.836 7.755c0 4.284 3.508 7.756 7.836 7.756Z" fill="#FAE7AC"/><path d="M11.418 18.508c2.718 0 4.921-2.18 4.921-4.87s-2.203-4.871-4.92-4.871c-2.719 0-4.922 2.18-4.922 4.87s2.203 4.87 4.921 4.87Z" fill="#C63734"/><path d="M11.418 15.86c1.241 0 2.247-.995 2.247-2.223 0-1.228-1.006-2.223-2.247-2.223-1.24 0-2.247.995-2.247 2.223 0 1.228 1.006 2.223 2.247 2.223Z" fill="#F9DF88"/><path d="M11.419 23.746c-5.632 0-10.213-4.535-10.213-10.109S5.787 3.528 11.42 3.528c5.631 0 10.212 4.535 10.212 10.11 0 5.573-4.582 10.108-10.213 10.108Zm0-19.905c-5.459 0-9.9 4.394-9.9 9.796 0 5.402 4.441 9.796 9.9 9.796 5.459 0 9.9-4.394 9.9-9.796 0-5.402-4.442-9.796-9.9-9.796Z" fill="#2B2C2D"/><path d="M11.419 21.55c-4.408 0-7.994-3.55-7.994-7.913 0-4.362 3.586-7.911 7.994-7.911 4.407 0 7.992 3.549 7.992 7.911 0 4.363-3.585 7.912-7.992 7.912Zm0-15.512c-4.235 0-7.68 3.41-7.68 7.6 0 4.19 3.445 7.599 7.68 7.599 4.234 0 7.68-3.41 7.68-7.6 0-4.19-3.446-7.599-7.68-7.599Z" fill="#2B2C2D"/><path d="M11.419 18.664c-2.8 0-5.078-2.255-5.078-5.026 0-2.772 2.278-5.027 5.077-5.027 2.8 0 5.078 2.255 5.078 5.027 0 2.772-2.278 5.026-5.078 5.026Zm0-9.74c-2.628 0-4.766 2.114-4.766 4.714 0 2.599 2.138 4.713 4.765 4.713 2.628 0 4.765-2.114 4.765-4.713 0-2.6-2.137-4.714-4.765-4.714Z" fill="#2B2C2D"/><path d="M17.434 6.933c1.293-1.687 2.473-3.504 3.675-5.249.025-.036.06-.077.103-.069.047.01.062.067.069.115.073.613.07 1.24.226 1.837.157.6 1.492.211 1.905.183.467-.03-.678.885-.801.967-.607.402-3.498 2.153-4.349 2.607" fill="#444935"/><path d="M11.419 16.017c-1.325 0-2.403-1.067-2.403-2.38 0-1.312 1.077-2.38 2.402-2.38 1.325 0 2.403 1.068 2.403 2.38 0 1.313-1.078 2.38-2.403 2.38Zm0-4.447c-1.153 0-2.09.927-2.09 2.067 0 1.14.937 2.068 2.09 2.068 1.152 0 2.09-.928 2.09-2.068 0-1.14-.938-2.067-2.09-2.067Zm6.843-4.09a.156.156 0 0 1-.073-.294c.995-.531 4.528-2.574 5.22-3.217a.533.533 0 0 0 .031-.032c-.1-.01-.2-.008-.298.008l-.164.025c-.37.06-.752.12-1.142.038a.893.893 0 0 1-.311-.122c-.495-.33-.405-1.063-.333-1.652a3.89 3.89 0 0 0 .042-.517V1.7l-.034.049a4.196 4.196 0 0 1-.098.138 80.948 80.948 0 0 0-1.759 2.418 58.425 58.425 0 0 0-1.776 2.71.155.155 0 0 1-.26.01.156.156 0 0 1-.006-.174 59.037 59.037 0 0 1 1.785-2.724A81.414 81.414 0 0 1 20.852 1.7c.03-.04.06-.085.09-.128.133-.193.246-.358.416-.31.162.048.183.255.189.445.004.16-.02.357-.045.565-.061.504-.138 1.131.197 1.355a.57.57 0 0 0 .202.075c.334.072.67.017 1.028-.04l.167-.026c.168-.025.569-.061.675.158.058.12.008.256-.15.403-.76.707-4.461 2.825-5.285 3.265a.155.155 0 0 1-.073.018Z" fill="#2B2C2D"/><path d="m18.124 7.528-6.526 6.08c-.049.046-.118.036-.156-.021a.15.15 0 0 1 .013-.18l.005-.004 6.184-6.52.014-.015c.15-.159.38-.142.513.035a.488.488 0 0 1-.047.625Z" fill="#FAE7AC"/><path d="M11.53 13.793a.264.264 0 0 1-.218-.12.307.307 0 0 1 .034-.378l4.148-4.535c.321-.352.642-.703.965-1.053.063-.07.13-.15.2-.234.262-.312.557-.666.923-.786a.67.67 0 0 1 .757.268c.135.212.102.467-.085.663l-.024.024-6.526 6.081a.258.258 0 0 1-.175.07Zm6.251-6.825a.337.337 0 0 0-.102.016c-.281.092-.546.41-.78.69-.075.088-.145.172-.212.244l-.962 1.052-3.582 3.918 5.872-5.473.004-.004c.098-.103.114-.197.055-.289a.358.358 0 0 0-.293-.154Z" fill="#2B2C2D"/></svg>