<svg width="64" height="64" fill="none" xmlns="http://www.w3.org/2000/svg"><path d="M31.981 63.962c17.663 0 31.981-14.318 31.981-31.98C63.962 14.318 49.645 0 31.982 0 14.318 0 0 14.319 0 31.981c0 17.663 14.319 31.981 31.981 31.981Z" fill="#FFD200"/><path d="M31.981 62.313c16.752 0 30.332-13.58 30.332-30.332 0-16.751-13.58-30.331-30.332-30.331C15.23 1.65 1.65 15.23 1.65 31.98c0 16.752 13.58 30.332 30.331 30.332Z" fill="#FA0"/><path d="M31.981 61.038c16.048 0 29.057-13.01 29.057-29.057 0-16.047-13.01-29.057-29.057-29.057-16.048 0-29.057 13.01-29.057 29.057 0 16.048 13.01 29.057 29.057 29.057Z" fill="#FFF9DD"/><path fill-rule="evenodd" clip-rule="evenodd" d="M19.009 9.523c-.3.15-.675.075-.863-.225a.658.658 0 0 1 .225-.9c1.05-.562 2.1-1.087 3.187-1.574a29.67 29.67 0 0 1 3.375-1.125c5.96-1.612 12.072-1.087 17.471 1.125a27.298 27.298 0 0 1 13.16 11.547c0 .038.038.038.038.038.337.6.637 1.2.937 1.762.3.637.562 1.237.787 1.875.15.3-.037.675-.337.825-.338.112-.713-.038-.825-.375-.263-.6-.487-1.2-.787-1.763a18.426 18.426 0 0 0-.9-1.687v-.037a25.892 25.892 0 0 0-12.56-10.986A25.74 25.74 0 0 0 25.27 6.936c-1.087.3-2.175.637-3.224 1.087-1.05.413-2.063.938-3.037 1.5ZM10.16 17.96c-.187.3-.6.375-.862.187-.3-.187-.412-.6-.225-.862a38.1 38.1 0 0 1 1.425-1.987 18.929 18.929 0 0 1 1.575-1.875c.224-.262.637-.262.9-.037a.646.646 0 0 1 .037.9 21.934 21.934 0 0 0-1.5 1.762c-.487.637-.937 1.237-1.35 1.912Zm43.642 28.157a.613.613 0 0 1 .862-.188c.3.188.375.563.188.863a27.072 27.072 0 0 1-4.087 4.949c-1.537 1.425-3.262 2.737-5.174 3.824a27.182 27.182 0 0 1-20.658 2.737c-6.712-1.8-12.748-6.186-16.535-12.71v-.037a26.71 26.71 0 0 1-3.487-10.76C4.5 30.968 4.95 27.106 6.15 23.47c.112-.337.45-.524.787-.412a.658.658 0 0 1 .412.825A26.231 26.231 0 0 0 6.186 34.68a25.605 25.605 0 0 0 3.3 10.273h.037c3.562 6.224 9.336 10.385 15.747 12.11a25.908 25.908 0 0 0 19.684-2.587h.037c1.8-1.05 3.45-2.287 4.874-3.674 1.537-1.425 2.812-3 3.937-4.687Zm4.124-12.935c0-.375.3-.637.675-.637.337.037.6.337.6.675a31.66 31.66 0 0 1-.15 1.95c-.075.637-.188 1.274-.3 1.949a.637.637 0 0 1-.75.487.696.696 0 0 1-.525-.75c.113-.6.225-1.2.3-1.837.075-.637.113-1.237.15-1.837Z" fill="#FFE0C7"/><path d="M43.989 30.088H42.23c-.1 0-.19-.078-.207-.18a10.13 10.13 0 0 0-1.574-3.796.218.218 0 0 1 .017-.274l1.249-1.25a.78.78 0 0 0 0-1.091l-1.45-1.45a.78.78 0 0 0-1.092 0l-1.244 1.248a.198.198 0 0 1-.268.017 10.275 10.275 0 0 0-3.803-1.568c-.106-.022-.179-.106-.179-.202v-1.77a.774.774 0 0 0-.773-.772h-2.044a.774.774 0 0 0-.773.773v1.77c0 .095-.072.179-.179.201a10.193 10.193 0 0 0-3.802 1.574.212.212 0 0 1-.269-.023l-1.243-1.249a.788.788 0 0 0-1.098 0l-1.439 1.445a.774.774 0 0 0 0 1.103l1.243 1.244a.219.219 0 0 1 .017.268 10.287 10.287 0 0 0-1.574 3.803c-.022.1-.106.179-.201.179h-1.77a.774.774 0 0 0-.773.773v2.044c0 .425.348.773.773.773h1.77c.095 0 .179.072.201.179a10.105 10.105 0 0 0 1.042 2.917l-2.918 2.918a2.964 2.964 0 0 0 0 4.194c1.11 1.16 3.097 1.154 4.2 0l2.918-2.912c.918.499 1.904.846 2.923 1.042.101.022.18.112.18.213v1.758c0 .426.347.773.772.773h2.044a.774.774 0 0 0 .773-.773V42.23c0-.107.078-.19.18-.213a10.088 10.088 0 0 0 3.796-1.568.218.218 0 0 1 .274.017l1.244 1.249a.78.78 0 0 0 1.092 0l1.45-1.45a.78.78 0 0 0 0-1.093l-1.243-1.243a.206.206 0 0 1-.023-.269 10.088 10.088 0 0 0 1.568-3.797c.023-.106.112-.184.213-.184h1.759a.774.774 0 0 0 .772-.773V30.86a.774.774 0 0 0-.772-.773ZM26.74 40.426l-3.07 3.068c-.89.936-2.508.936-3.404 0-.94-.94-.94-2.47 0-3.404 1.982-1.983 4.866-4.861 6.832-6.827a.293.293 0 0 0 .073-.269 4.82 4.82 0 0 1 1.288-4.541c1.271-1.277 3.242-1.753 4.961-1.215l-2.923 2.923a.544.544 0 0 0 .006.739l2.357 2.352c.196.213.56.213.75.006l2.88-2.879a4.826 4.826 0 0 1-1.182 4.928 4.825 4.825 0 0 1-4.542 1.288.297.297 0 0 0-.269.079c-.896.896-2.845 2.844-3.757 3.752ZM37 30.138c-.112-.358-.61-.464-.868-.196l-2.867 2.918-2.364-2.313 2.918-2.917c.28-.264.151-.762-.213-.874a5.45 5.45 0 0 0-5.538 1.3 5.363 5.363 0 0 0-1.473 4.916l-1.165 1.165a6.838 6.838 0 0 1 6.451-9.089c3.77 0 6.838 3.063 6.838 6.832 0 3.769-3.069 6.838-6.838 6.838a6.87 6.87 0 0 1-2.256-.381l1.164-1.165a5.384 5.384 0 0 0 4.917-1.467A5.39 5.39 0 0 0 37 30.138Zm7.201 2.767a.213.213 0 0 1-.212.213H42.23a.777.777 0 0 0-.761.632 9.646 9.646 0 0 1-1.484 3.596.764.764 0 0 0 .09.974l1.242 1.249a.211.211 0 0 1 0 .297l-1.444 1.45a.213.213 0 0 1-.303 0l-1.243-1.243a.764.764 0 0 0-.98-.09 9.66 9.66 0 0 1-3.59 1.484.774.774 0 0 0-.638.762v1.758a.21.21 0 0 1-.213.213h-2.044a.213.213 0 0 1-.213-.213V42.23a.784.784 0 0 0-.632-.762 9.6 9.6 0 0 1-2.616-.907l1.792-1.792c.857.336 1.759.51 2.688.51 4.077 0 7.398-3.321 7.398-7.398s-3.32-7.392-7.398-7.392c-4.076 0-7.392 3.315-7.392 7.392 0 .93.174 1.831.504 2.688l-1.792 1.792a9.659 9.659 0 0 1-.907-2.604.772.772 0 0 0-.75-.638h-1.77a.213.213 0 0 1-.213-.213V30.86c0-.118.096-.213.213-.213h1.77a.777.777 0 0 0 .75-.633 9.615 9.615 0 0 1 1.484-3.59.772.772 0 0 0-.084-.985l-1.243-1.243a.213.213 0 0 1 0-.303l1.44-1.444c.089-.084.229-.09.307-.006l1.243 1.243a.758.758 0 0 0 .986.09 9.653 9.653 0 0 1 3.59-1.484.777.777 0 0 0 .632-.75v-1.77c0-.112.096-.213.213-.213h2.044c.118 0 .213.1.213.213v1.77c0 .363.269.683.633.75a9.613 9.613 0 0 1 3.59 1.484.765.765 0 0 0 .985-.09l1.243-1.243a.213.213 0 0 1 .303 0l1.444 1.45a.213.213 0 0 1 0 .303l-1.243 1.243a.785.785 0 0 0-.09.986 9.521 9.521 0 0 1 1.49 3.595.777.777 0 0 0 .756.627h1.759c.117 0 .212.095.212.213v2.044Z" fill="#000"/><path d="M44.201 30.86v2.045a.213.213 0 0 1-.212.213H42.23a.777.777 0 0 0-.761.633 9.646 9.646 0 0 1-1.485 3.595.764.764 0 0 0 .09.974l1.243 1.249a.211.211 0 0 1 0 .297l-1.444 1.45a.214.214 0 0 1-.303 0l-1.243-1.243a.764.764 0 0 0-.98-.09 9.66 9.66 0 0 1-3.59 1.484.774.774 0 0 0-.638.762v1.758a.21.21 0 0 1-.213.213h-2.044a.213.213 0 0 1-.213-.213V42.23a.784.784 0 0 0-.633-.762 9.6 9.6 0 0 1-2.615-.907l1.792-1.792c.857.336 1.759.51 2.688.51 4.077 0 7.398-3.321 7.398-7.398s-3.32-7.392-7.398-7.392c-4.076 0-7.392 3.315-7.392 7.392 0 .93.174 1.831.504 2.688l-1.792 1.792a9.659 9.659 0 0 1-.907-2.604.772.772 0 0 0-.75-.638h-1.77a.213.213 0 0 1-.213-.213V30.86c0-.118.096-.213.213-.213h1.77a.777.777 0 0 0 .75-.633 9.615 9.615 0 0 1 1.484-3.59.772.772 0 0 0-.084-.985l-1.243-1.243a.213.213 0 0 1 0-.302l1.44-1.445c.089-.084.229-.09.307-.006l1.243 1.243a.758.758 0 0 0 .986.09 9.653 9.653 0 0 1 3.59-1.484.777.777 0 0 0 .632-.75v-1.77c0-.112.095-.213.213-.213h2.044c.118 0 .213.1.213.213v1.77c0 .364.269.683.633.75a9.62 9.62 0 0 1 3.59 1.484c.313.213.716.18.985-.09l1.243-1.243a.212.212 0 0 1 .303 0l1.444 1.45a.213.213 0 0 1 0 .303l-1.243 1.243a.785.785 0 0 0-.09.986 9.521 9.521 0 0 1 1.49 3.595.777.777 0 0 0 .756.627h1.759c.117 0 .212.095.212.213Z" fill="#E0E0E0"/><path d="m36.49 30.38-2.878 2.878a.526.526 0 0 1-.75-.006L30.503 30.9a.544.544 0 0 1-.006-.74l2.923-2.922c-1.719-.538-3.69-.062-4.961 1.215a4.82 4.82 0 0 0-1.288 4.542.293.293 0 0 1-.073.268c-1.966 1.966-4.85 4.844-6.832 6.827a2.407 2.407 0 0 0 0 3.404c.896.936 2.514.936 3.405 0l3.069-3.068c.912-.908 2.861-2.856 3.757-3.752a.296.296 0 0 1 .269-.079 4.825 4.825 0 0 0 4.542-1.288 4.826 4.826 0 0 0 1.181-4.928ZM21.98 43.387a1.606 1.606 0 0 1-1.607-1.602 1.61 1.61 0 0 1 1.607-1.607 1.61 1.61 0 0 1 1.608 1.607c0 .885-.723 1.602-1.608 1.602Z" fill="#B0BEC5"/><path d="M21.98 40.18a1.61 1.61 0 0 0-1.607 1.606 1.607 1.607 0 0 0 3.215 0 1.61 1.61 0 0 0-1.608-1.607Zm0 2.648a1.044 1.044 0 1 1 0-2.089 1.044 1.044 0 1 1 0 2.089Z" fill="#000"/></svg>