<svg width="15" height="15" fill="none" xmlns="http://www.w3.org/2000/svg"><g clip-path="url(#a)" fill-rule="evenodd" clip-rule="evenodd"><path opacity=".993" d="M6.812-.016h1.347c1.49.15 2.817.687 3.985 1.612-3.11.029-6.226.039-9.346.029a7.471 7.471 0 0 1 4.014-1.64Z" fill="#29AAEE"/><path opacity=".998" d="M12.144 1.598a7.577 7.577 0 0 1 2.08 2.548c-4.488.01-8.97 0-13.448-.029a7.217 7.217 0 0 1 2.022-2.49c3.12.01 6.235 0 9.346-.03Z" fill="#29A9EB"/><path opacity=".999" d="M.776 4.117c4.478.03 8.96.04 13.448.03a8.27 8.27 0 0 1 .615 1.728h-3.955v-.088c.034-.332.058-.664.073-.996-.064-.206-.205-.303-.425-.293a5.28 5.28 0 0 0-1.025.308L6.899 5.875c-2.258-.01-4.513 0-6.767.03a6.971 6.971 0 0 1 .644-1.788Z" fill="#28A7E8"/><path d="M10.884 5.786a166.276 166.276 0 0 1-.645 3.955c-.054.43-.152.85-.293 1.26-.051.066-.11.13-.176.19a.903.903 0 0 1-.556 0 3.028 3.028 0 0 1-.352-.19c-.655-.46-1.32-.91-1.992-1.348a1.675 1.675 0 0 1-.454-.38.31.31 0 0 1-.03-.352c.11-.169.242-.32.396-.454a36.799 36.799 0 0 0 2.183-2.095c.014-.161-.06-.215-.22-.161a140.99 140.99 0 0 0-3.223 2.138 1.325 1.325 0 0 1-1.025.205 8.988 8.988 0 0 1-1.553-.498c-.164-.158-.154-.304.03-.439a3.56 3.56 0 0 1 .38-.205C4.54 6.902 5.722 6.389 6.9 5.874l2.608-1.07c.332-.137.674-.24 1.025-.307.22-.01.361.087.425.293-.015.332-.039.664-.073.996Z" fill="#FEFEFE"/><path opacity=".999" d="M6.9 5.875c-1.178.515-2.36 1.027-3.546 1.538-.131.06-.258.129-.38.205-.184.135-.194.281-.03.44.503.212 1.02.378 1.553.497.371.072.713.004 1.025-.205a140.99 140.99 0 0 1 3.223-2.138c.16-.054.234 0 .22.16-.7.73-1.427 1.428-2.183 2.095a2.18 2.18 0 0 0-.395.455.31.31 0 0 0 .029.351c.131.156.283.283.454.381H.278A10.095 10.095 0 0 1-.015 8.16V6.812c.04-.3.09-.603.147-.908 2.254-.03 4.51-.039 6.767-.03Z" fill="#27A5E4"/><path opacity=".998" d="M10.884 5.785v.088h3.955c.054.316.103.628.146.938v1.347c-.059.502-.157 1-.293 1.494H10.27c.006.038-.003.067-.03.088.232-1.32.446-2.638.645-3.955Z" fill="#27A5E4"/><path d="M.278 9.652H6.87c.673.44 1.337.888 1.992 1.348-2.67-.01-5.337 0-7.998.03a7.501 7.501 0 0 1-.586-1.378Z" fill="#25A3E1"/><path opacity=".999" d="M14.692 9.652A9.544 9.544 0 0 1 14.136 11h-4.19c.141-.41.239-.83.293-1.26.027-.02.036-.05.03-.088h4.423Z" fill="#25A3E1"/><path opacity=".996" d="M8.862 11.002c.112.07.23.134.352.19a.903.903 0 0 0 .557 0c.065-.06.124-.124.175-.19h4.19c-1.114 1.996-2.784 3.27-5.01 3.823-.325.066-.647.12-.967.161H6.812c-2.26-.258-4.072-1.293-5.435-3.105a7.557 7.557 0 0 1-.513-.85c2.661-.03 5.327-.04 7.998-.03Z" fill="#23A1DD"/></g><defs><clipPath id="a"><path fill="#fff" d="M0 0h15v15H0z"/></clipPath></defs></svg>