<svg width="60" height="60" fill="none" xmlns="http://www.w3.org/2000/svg"><path d="M5.102 24.252c.172 1.92.32 3.84.43 5.76.05.96.21 1.92.123 2.88-.086.96-.209 1.92-.553 2.88-.013.037-.05.05-.087.037-.024-.012-.036-.024-.036-.037-.345-.96-.468-1.92-.554-2.88-.086-.96.074-1.92.123-2.88.11-1.92.258-3.84.43-5.76 0-.037.037-.061.062-.061.037 0 .05.024.062.061Z" fill="#fff"/><path d="M59.452 23.243c0 12.59-10.203 22.806-22.806 22.806-12.59 0-22.806-10.203-22.806-22.806C13.84 10.64 24.055.45 36.66.45c12.59 0 22.793 10.203 22.793 22.794Z" fill="#AFDEE0"/><path d="M42.91 24.51h-.578v-7.224a3.814 3.814 0 0 0-3.803-3.803H8.375a5.497 5.497 0 0 0-3.901 1.612 5.438 5.438 0 0 0-1.6 3.619c-.013.369.012.726.061 1.07-.037-.258-.086-.516-.086-.8V53.41a5.513 5.513 0 0 0 5.514 5.514h34.535a3.805 3.805 0 0 0 3.803-3.803V28.326a3.798 3.798 0 0 0-3.79-3.815Zm-34.535 0c-2.744 0-4.997-2.005-5.427-4.615.467 2.622 2.929 4.616 5.723 4.616h-.296Z" fill="#000"/><path d="M42.91 59.55H8.376c-3.384 0-6.129-2.756-6.129-6.14V18.996c0-.037 0-.062.012-.099v-.209a6.069 6.069 0 0 1 1.785-4.024 6.09 6.09 0 0 1 4.332-1.797H38.53c2.437 0 4.43 1.981 4.43 4.418v6.622a4.423 4.423 0 0 1 4.383 4.418v26.806a4.44 4.44 0 0 1-4.431 4.419ZM3.478 22.678v30.745c0 2.707 2.203 4.91 4.898 4.91h34.536a3.188 3.188 0 0 0 3.187-3.187v-26.82a3.187 3.187 0 0 0-3.187-3.188h-.579a.61.61 0 0 1-.615-.615v-7.237a3.191 3.191 0 0 0-3.2-3.188H8.375a4.921 4.921 0 0 0-3.47 1.44 4.893 4.893 0 0 0-1.428 3.213c-.012.258 0 .517.037.8 0 .037.012.061.012.098v.099c0 .012.012.024.012.037.419 2.35 2.622 4.11 5.12 4.11a.61.61 0 0 1 .616.616.61.61 0 0 1-.616.615h-.283a6.09 6.09 0 0 1-4.898-2.45Z" fill="#000"/><path d="M40.634 15.588v7.224H6.972c-3.187 0-5.969-2.609-5.809-5.797a5.45 5.45 0 0 1 1.612-3.618 5.497 5.497 0 0 1 3.902-1.612H36.83a3.79 3.79 0 0 1 3.803 3.803Z" fill="#fff"/><path d="M40.634 23.428H6.972a6.556 6.556 0 0 1-4.75-2.043C1.065 20.166.462 18.603.548 16.978a6.154 6.154 0 0 1 1.784-4.024 6.09 6.09 0 0 1 4.333-1.797h30.153a4.423 4.423 0 0 1 4.419 4.418V22.8a.595.595 0 0 1-.603.628ZM6.677 12.388a4.921 4.921 0 0 0-3.47 1.44 4.893 4.893 0 0 0-1.429 3.212c-.061 1.28.407 2.523 1.33 3.495a5.329 5.329 0 0 0 3.852 1.662h33.046v-6.61a3.188 3.188 0 0 0-3.188-3.187H6.677v-.012Z" fill="#000"/><path d="M34.172 15.674c0 7.335-5.944 13.28-13.267 13.28-7.324 0-13.28-5.945-13.28-13.28 0-7.336 5.944-13.268 13.267-13.268 7.323 0 13.28 5.932 13.28 13.268Z" fill="#fff"/><path d="M20.905 29.57c-7.656 0-13.884-6.229-13.884-13.896 0-7.656 6.228-13.883 13.884-13.883 7.655 0 13.883 6.227 13.883 13.883 0 7.655-6.228 13.895-13.883 13.895Zm0-26.56c-6.979 0-12.653 5.673-12.653 12.652 0 6.978 5.674 12.664 12.653 12.664 6.978 0 12.652-5.686 12.652-12.665 0-6.966-5.674-12.652-12.652-12.652Z" fill="#000"/><path d="M20.905 26.468c-5.957 0-10.794-4.85-10.794-10.806 0-5.957 4.837-10.794 10.794-10.794 5.957 0 10.793 4.837 10.793 10.793 0 5.97-4.849 10.807-10.793 10.807Z" fill="#00AAE8"/><path d="M12.338 13.212a8.51 8.51 0 0 1 1.687-3.544c.418-.517.861-1.047 1.427-1.403.566-.37 1.182-.64 1.859-.751l.024.061c-.517.419-1.021.8-1.501 1.206-.468.407-.985.764-1.428 1.219a9.198 9.198 0 0 0-2.006 3.225l-.062-.013Z" fill="#fff"/><path d="M24.917 17.95c0 .591-.148 1.12-.443 1.564-.296.455-.702.812-1.206 1.095a4.379 4.379 0 0 1-1.502.456v1.107a.716.716 0 0 1-.221.53.734.734 0 0 1-.542.233.7.7 0 0 1-.554-.233.755.755 0 0 1-.209-.53v-1.046a7.044 7.044 0 0 1-1.526-.258 6.53 6.53 0 0 1-1.366-.566.881.881 0 0 1-.382-.419c-.074-.16-.098-.332-.074-.505a.72.72 0 0 1 .185-.443.766.766 0 0 1 .394-.258c.16-.025.357.012.566.135.283.148.665.32 1.12.456.455.147 1.01.233 1.661.233.505 0 .923-.061 1.243-.184a1.49 1.49 0 0 0 .69-.492c.147-.222.234-.456.234-.739 0-.234-.05-.418-.148-.578-.099-.16-.283-.32-.505-.443a3.73 3.73 0 0 0-.935-.32l-1.625-.345c-.91-.197-1.612-.542-2.067-1.022-.456-.467-.69-1.095-.69-1.87a3 3 0 0 1 .443-1.613 3.323 3.323 0 0 1 1.231-1.132c.456-.258.973-.406 1.563-.468V9.188c0-.197.062-.394.21-.53a.762.762 0 0 1 .553-.233c.197 0 .394.073.53.233a.727.727 0 0 1 .233.53v1.07c.345.037.727.111 1.12.234.517.16.96.394 1.342.69.148.123.258.27.308.418.049.16.049.32.012.455a.692.692 0 0 1-.234.382.8.8 0 0 1-.418.172.998.998 0 0 1-.567-.16 4.164 4.164 0 0 0-.984-.418c-.37-.099-.8-.16-1.305-.16-.652 0-1.157.147-1.538.443-.37.283-.542.664-.542 1.132 0 .345.099.628.333.825.233.221.615.381 1.144.492l1.662.37c.972.22 1.686.553 2.141 1.02.431.432.665 1.047.665 1.798Z" fill="#000"/><path d="M45.028 26.628v26.806a3.806 3.806 0 0 1-3.803 3.803H6.677a5.513 5.513 0 0 1-5.514-5.514V17.3a5.513 5.513 0 0 0 5.514 5.513h34.535a3.819 3.819 0 0 1 3.816 3.816Z" fill="#00AAE8"/><path d="M41.212 57.852H6.677a6.138 6.138 0 0 1-6.13-6.129V17.3h1.231a4.903 4.903 0 0 0 4.899 4.898h34.535a4.423 4.423 0 0 1 4.419 4.418v26.807a4.42 4.42 0 0 1-4.419 4.43ZM1.778 20.98v30.744a4.903 4.903 0 0 0 4.899 4.898h34.535a3.188 3.188 0 0 0 3.188-3.187V26.628a3.188 3.188 0 0 0-3.188-3.188H6.677a6.17 6.17 0 0 1-4.899-2.462Z" fill="#000"/><path d="M45.028 35.342v9.378H33.249a3.136 3.136 0 0 1-3.138-3.138V38.48a3.136 3.136 0 0 1 3.138-3.138h11.779Z" fill="#fff"/><path d="M45.028 45.335H33.249a3.76 3.76 0 0 1-3.754-3.753V38.48a3.76 3.76 0 0 1 3.754-3.754h11.779a.61.61 0 0 1 .615.616v9.378a.617.617 0 0 1-.615.615Zm-11.779-9.378a2.527 2.527 0 0 0-2.523 2.523v3.102a2.527 2.527 0 0 0 2.523 2.523h11.163v-8.148H33.25Z" fill="#000"/><path d="M33.237 39.834h1.44v1.23h-1.44v-1.23Z" fill="#000"/><path d="M5.643 30.665c.172 1.92.32 3.84.43 5.76.05.96.21 1.92.124 2.88s-.21 1.92-.554 2.88c-.012.036-.05.049-.086.036-.025-.012-.037-.024-.037-.036-.345-.96-.468-1.92-.554-2.88-.086-.96.074-1.92.123-2.88.111-1.92.259-3.84.431-5.76 0-.037.037-.062.062-.062.037.012.061.037.061.062Z" fill="#fff"/></svg>